<svg width="26" height="26" viewBox="0 0 26 26" fill="none" xmlns="http://www.w3.org/2000/svg">
<path d="M25.0768 12.9336C25.0872 15.3043 24.3945 17.6248 23.086 19.6018C21.7776 21.5788 19.9124 23.1233 17.7261 24.0402C15.5399 24.9571 13.1308 25.205 10.8037 24.7527C8.47648 24.3004 6.33568 23.1682 4.652 21.4992C2.96831 19.8302 1.81735 17.6994 1.34467 15.3763C0.871995 13.0532 1.09883 10.6421 1.99648 8.44788C2.89413 6.25367 4.42229 4.37493 6.38771 3.04924C8.35313 1.72355 10.6675 1.01044 13.0382 1.00011C16.2171 0.986262 19.2713 2.23573 21.5289 4.47367C23.7866 6.71161 25.0628 9.75471 25.0768 12.9336Z" stroke="#8CC63F" stroke-width="1.65031"/>
<path d="M18.7137 9.11163C17.9094 8.87885 17.0755 8.54879 16.2313 8.21525C16.1826 8.00332 15.995 7.73927 15.6154 7.41702C15.0639 6.93843 14.0277 6.95059 13.1322 7.16253C12.1437 6.92975 11.1674 6.84723 10.2302 7.07567C2.56499 9.18719 6.91138 14.3388 4.09717 19.5172C4.49758 20.3667 8.81357 25.3229 15.0587 23.9931C15.0587 23.9931 12.9228 18.8606 17.7426 16.3973C21.6521 14.3917 24.4767 10.6812 18.7137 9.11163Z" fill="#8CC63F"/>
<path d="M19.6603 12.4827C19.6608 12.5746 19.6341 12.6646 19.5835 12.7413C19.5328 12.818 19.4606 12.878 19.3759 12.9136C19.2912 12.9493 19.1978 12.959 19.1075 12.9416C19.0173 12.9242 18.9343 12.8804 18.8689 12.8157C18.8036 12.7511 18.7588 12.6686 18.7404 12.5785C18.722 12.4885 18.7306 12.395 18.7653 12.3099C18.8 12.2248 18.8592 12.1519 18.9353 12.1004C19.0114 12.0489 19.1011 12.0212 19.193 12.0206C19.2541 12.0203 19.3146 12.032 19.3711 12.055C19.4276 12.078 19.479 12.112 19.5224 12.1549C19.5658 12.1978 19.6003 12.2488 19.624 12.3051C19.6476 12.3613 19.66 12.4217 19.6603 12.4827Z" fill="#08283E"/>
<path d="M13.1321 7.15914C13.6906 7.19909 15.71 7.854 16.2312 8.21186C15.7969 6.95242 14.3351 6.78478 13.1321 7.15914Z" fill="#8CC63F"/>
<path d="M13.6638 10.3442C13.664 10.7682 13.5384 11.1828 13.3029 11.5354C13.0675 11.8881 12.7327 12.163 12.341 12.3253C11.9493 12.4877 11.5183 12.5303 11.1024 12.4476C10.6865 12.365 10.3044 12.1609 10.0045 11.8611C9.70467 11.5613 9.50044 11.1793 9.41769 10.7634C9.33493 10.3476 9.37737 9.9165 9.53963 9.52475C9.7019 9.13301 9.9767 8.79818 10.3293 8.56262C10.6818 8.32707 11.0964 8.20136 11.5204 8.20142C12.0887 8.20149 12.6338 8.42725 13.0357 8.82907C13.4376 9.23088 13.6636 9.77587 13.6638 10.3442Z" fill="#08283E"/>
<path d="M13.0279 10.3633C13.0279 10.6616 12.9395 10.9531 12.7738 11.2011C12.6081 11.449 12.3726 11.6423 12.0971 11.7564C11.8216 11.8705 11.5184 11.9004 11.2259 11.8422C10.9334 11.784 10.6647 11.6404 10.4538 11.4295C10.243 11.2187 10.0994 10.95 10.0412 10.6575C9.983 10.365 10.0129 10.0618 10.127 9.7863C10.2411 9.51077 10.4344 9.27527 10.6823 9.10959C10.9303 8.9439 11.2218 8.85547 11.5201 8.85547C11.92 8.85547 12.3035 9.01433 12.5863 9.29711C12.8691 9.57989 13.0279 9.96342 13.0279 10.3633Z" fill="#8CC63F"/>
<path d="M21.3968 13.4278C19.6596 14.6516 17.6845 15.5801 14.8824 15.5801C13.5708 15.5801 13.3051 14.1904 12.4382 14.8696C11.9909 15.2223 10.4135 16.0109 9.16192 15.951C7.91029 15.8911 5.88128 15.1571 5.31584 12.4854C5.09174 15.1571 4.97709 17.1253 3.97388 19.381C5.97162 22.58 10.7349 25.0477 15.0587 23.9845C14.594 20.7404 17.4291 17.5631 19.0264 15.9371C19.6344 15.3213 20.7896 14.3163 21.3968 13.426V13.4278Z" fill="#8CC63F"/>
<path d="M21.3288 13.5076C20.7894 13.9993 20.1475 14.3632 19.4943 14.6846C18.8332 14.9985 18.144 15.2495 17.4358 15.4342C16.727 15.6174 15.9879 15.7555 15.2391 15.6878C14.4904 15.62 13.7252 15.3655 13.2292 14.8044L13.2527 14.7775C13.8607 15.1718 14.5625 15.3108 15.2609 15.3308C15.9687 15.3523 16.6767 15.2941 17.3715 15.1571C18.0734 15.0102 18.7599 14.7979 19.4222 14.523C20.085 14.2494 20.7408 13.9324 21.3053 13.4807L21.3288 13.5076Z" fill="#08283E"/>
</svg>
