<svg width="25" height="24" viewBox="0 0 25 24" fill="none" xmlns="http://www.w3.org/2000/svg">
<path d="M5.09126 11.4073C5.09128 11.273 5.11776 11.1402 5.16919 11.0162C5.22061 10.8923 5.29596 10.7798 5.39091 10.6851C5.48586 10.5905 5.59853 10.5155 5.72247 10.4646C5.84641 10.4137 5.97916 10.3878 6.11311 10.3884L7.80725 10.394C8.07737 10.394 8.33643 10.5015 8.52743 10.6928C8.71844 10.8842 8.82574 11.1438 8.82574 11.4144V17.8329C9.01655 17.7762 9.26074 17.7158 9.52946 17.6524C9.71563 17.6085 9.88154 17.5029 10.0003 17.3527C10.1191 17.2025 10.1837 17.0165 10.1837 16.8249V8.86383C10.1837 8.59318 10.291 8.33362 10.482 8.14222C10.673 7.95082 10.9321 7.84327 11.2022 7.84322H12.9015C13.1717 7.84327 13.4307 7.95082 13.6217 8.14222C13.8127 8.33362 13.92 8.59318 13.92 8.86383V16.253C13.92 16.253 14.3451 16.0807 14.759 15.9055C14.9128 15.8404 15.044 15.7313 15.1363 15.5919C15.2286 15.4525 15.2779 15.2889 15.278 15.1216V6.31269C15.278 6.04209 15.3853 5.78258 15.5763 5.59122C15.7672 5.39986 16.0262 5.29233 16.2963 5.29227H17.9938C18.2638 5.29254 18.5226 5.40016 18.7134 5.5915C18.9041 5.78284 19.0113 6.04223 19.0113 6.31269V13.5666C20.483 12.498 21.9745 11.2127 23.1581 9.66733C23.3298 9.44301 23.4434 9.17959 23.4888 8.90057C23.5342 8.62155 23.51 8.33561 23.4183 8.06826C22.8704 6.48903 21.9995 5.04177 20.8613 3.81911C19.7231 2.59644 18.3427 1.62529 16.8083 0.967809C15.274 0.310323 13.6196 -0.0190231 11.9509 0.00084856C10.2823 0.0207202 8.63616 0.38937 7.11787 1.08321C5.59959 1.77705 4.24259 2.7808 3.13372 4.03022C2.02485 5.27965 1.18852 6.74723 0.678252 8.33907C0.167984 9.93091 -0.00498366 11.6119 0.170415 13.2746C0.345813 14.9372 0.865717 16.5449 1.69686 17.9947C1.84166 18.2448 2.0547 18.4483 2.31094 18.5813C2.56719 18.7143 2.85599 18.7713 3.14343 18.7455C3.46454 18.7172 3.86435 18.6772 4.33969 18.6213C4.54657 18.5977 4.73756 18.4987 4.8763 18.3432C5.01504 18.1876 5.09183 17.9864 5.09205 17.7778V11.4073" fill="white"/>
<path d="M5.05518 21.7007C6.84446 23.0049 8.95896 23.7877 11.1647 23.9625C13.3705 24.1374 15.5816 23.6975 17.5533 22.6915C19.525 21.6855 21.1805 20.1526 22.3367 18.2624C23.4928 16.3723 24.1045 14.1985 24.1041 11.9817C24.1041 11.7044 24.0913 11.4314 24.0729 11.1592C19.6906 17.7074 11.5992 20.7687 5.05518 21.7007" fill="#F2BA00"/>
</svg>
