<svg width="34" height="33" viewBox="0 0 34 33" fill="none" xmlns="http://www.w3.org/2000/svg">
<path d="M32.9998 16.4316C33.0138 19.4972 32.089 22.498 30.3425 25.0545C28.596 27.611 26.1062 29.6083 23.1879 30.7939C20.2696 31.9795 17.0539 32.3002 13.9475 31.7153C10.8411 31.1304 7.98346 29.6663 5.73601 27.5081C3.48855 25.3499 1.95221 22.5945 1.32126 19.5904C0.690306 16.5863 0.993087 13.4684 2.19131 10.6311C3.38954 7.79366 5.42939 5.36421 8.05291 3.64993C10.6764 1.93564 13.7658 1.01351 16.9303 1.00015C21.1736 0.982235 25.2504 2.59796 28.264 5.4919C31.2776 8.38584 32.9811 12.321 32.9998 16.4316Z" stroke="white" stroke-width="1.65031"/>
<path d="M24.5061 11.4893C23.4325 11.1883 22.3194 10.7615 21.1925 10.3301C21.1275 10.0561 20.8771 9.71464 20.3704 9.29794C19.6342 8.67906 18.251 8.69478 17.0556 8.96884C15.7362 8.66783 14.433 8.56112 13.182 8.85652C2.95015 11.587 8.75188 18.2486 4.99536 24.9451C5.52985 26.0435 11.291 32.4525 19.6272 30.7329C19.6272 30.7329 16.7762 24.0959 23.2099 20.9106C28.4284 18.3171 32.1988 13.5189 24.5061 11.4893Z" fill="white"/>
<path d="M25.7697 15.8485C25.7704 15.9674 25.7347 16.0837 25.6671 16.1829C25.5995 16.2821 25.5031 16.3597 25.39 16.4058C25.277 16.4518 25.1523 16.4644 25.0319 16.4419C24.9114 16.4194 24.8006 16.3627 24.7133 16.2792C24.6261 16.1956 24.5664 16.0888 24.5418 15.9724C24.5172 15.856 24.5288 15.7351 24.5751 15.625C24.6214 15.515 24.7003 15.4207 24.802 15.3541C24.9036 15.2875 25.0233 15.2517 25.146 15.251C25.2274 15.2505 25.3082 15.2656 25.3836 15.2954C25.459 15.3252 25.5277 15.3691 25.5856 15.4246C25.6435 15.4801 25.6896 15.5461 25.7212 15.6188C25.7528 15.6916 25.7693 15.7696 25.7697 15.8485V15.8485Z" fill="#0D0D0D"/>
<path d="M17.0555 8.96456C17.801 9.01622 20.4967 9.86311 21.1924 10.3259C20.6126 8.69724 18.6613 8.48046 17.0555 8.96456Z" fill="white"/>
<path d="M17.7654 13.0832C17.7656 13.6315 17.598 14.1675 17.2837 14.6236C16.9694 15.0796 16.5225 15.435 15.9997 15.645C15.4768 15.855 14.9014 15.91 14.3463 15.8032C13.7911 15.6963 13.2812 15.4323 12.8809 15.0447C12.4806 14.657 12.208 14.1631 12.0975 13.6253C11.987 13.0875 12.0437 12.5301 12.2603 12.0235C12.4769 11.5169 12.8437 11.0839 13.3143 10.7793C13.785 10.4747 14.3383 10.3122 14.9043 10.3123C15.6629 10.3123 16.3905 10.6043 16.927 11.1239C17.4635 11.6435 17.7651 12.3482 17.7654 13.0832V13.0832Z" fill="#0D0D0D"/>
<path d="M16.9165 13.1081C16.9165 13.4937 16.7985 13.8707 16.5773 14.1913C16.3561 14.512 16.0418 14.7619 15.674 14.9095C15.3062 15.0571 14.9015 15.0957 14.5111 15.0204C14.1206 14.9452 13.762 14.7595 13.4805 14.4868C13.199 14.2141 13.0073 13.8667 12.9297 13.4885C12.852 13.1102 12.8919 12.7182 13.0442 12.3619C13.1965 12.0056 13.4545 11.7011 13.7855 11.4868C14.1165 11.2726 14.5057 11.1582 14.9037 11.1582C15.4376 11.1582 15.9495 11.3636 16.327 11.7293C16.7044 12.095 16.9165 12.5909 16.9165 13.1081V13.1081Z" fill="white"/>
<path d="M28.0876 17.0707C25.7688 18.6533 23.1323 19.854 19.392 19.854C17.6412 19.854 17.2865 18.0569 16.1294 18.9352C15.5323 19.3912 13.4268 20.4111 11.756 20.3336C10.0853 20.2561 7.3769 19.307 6.62211 15.8521C6.32298 19.307 6.16994 21.8521 4.83081 24.769C7.49748 28.9057 13.8557 32.0967 19.6273 30.7219C19.007 26.5268 22.7914 22.4182 24.9236 20.3156C25.7352 19.5193 27.2772 18.2197 28.0876 17.0685V17.0707Z" fill="white"/>
<path d="M27.9969 17.174C27.2769 17.8097 26.4201 18.2803 25.5482 18.6959C24.6657 19.1018 23.7457 19.4264 22.8004 19.6652C21.8543 19.9022 20.8676 20.0808 19.8682 19.9932C18.8688 19.9056 17.8473 19.5765 17.1853 18.8509L17.2166 18.8161C18.0282 19.326 18.965 19.5057 19.8972 19.5316C20.842 19.5594 21.7871 19.484 22.7146 19.3069C23.6514 19.1169 24.5679 18.8424 25.452 18.487C26.3366 18.1332 27.212 17.7232 27.9656 17.1392L27.9969 17.174Z" fill="#0D0D0D"/>
</svg>
