<svg width="563" height="491" viewBox="0 0 563 491" fill="none" xmlns="http://www.w3.org/2000/svg">
<path d="M179.772 441.384C175.117 441.384 170.673 440.45 167.376 438.528L5.04313 344.832C1.78097 342.946 0 340.337 0 337.464C0 334.026 2.57446 330.553 7.07096 327.962L316.677 149.261C325.088 144.396 337.89 143.884 345.19 148.098L507.523 241.793C510.785 243.68 512.566 246.289 512.566 249.162C512.566 252.6 509.991 256.073 505.495 258.664L195.889 437.365C191.286 440.027 185.379 441.384 179.772 441.384ZM167.711 437.929C174.817 442.036 187.301 441.508 195.518 436.765L505.125 258.065C509.392 255.597 511.843 252.353 511.843 249.18C511.843 246.571 510.168 244.173 507.152 242.428L344.82 148.732C337.714 144.625 325.229 145.154 317.012 149.896L7.40599 328.596C3.13873 331.064 0.687699 334.308 0.687699 337.481C0.687699 340.09 2.36287 342.488 5.37817 344.233L167.711 437.929Z" fill="#42E8E0"/>
<path d="M512.213 205.884L488.902 209.904L345.014 126.855C337.802 122.695 325.194 123.206 316.853 128.019L41.5794 286.905L0.352684 294.009V308.624C0.335051 311.285 1.92205 313.842 5.20185 315.728L167.534 409.424C174.746 413.584 187.354 413.073 195.695 408.26L505.301 229.559C509.78 226.968 512.107 223.671 512.178 220.516H512.195V205.902L512.213 205.884Z" fill="url(#paint0_linear_55_2680)"/>
<path d="M167.552 394.704L5.2195 301.008C-1.99253 296.848 -1.09324 289.567 7.24732 284.754L316.853 106.054C325.194 101.241 337.802 100.712 345.014 104.89L507.346 198.586C514.558 202.746 513.659 210.027 505.318 214.839L195.712 393.54C187.372 398.353 174.764 398.882 167.552 394.704Z" fill="url(#paint1_linear_55_2680)"/>
<path d="M505.318 214.822L195.712 393.523C187.372 398.335 174.764 398.864 167.552 394.686L5.21945 300.99C2.32758 299.316 0.75821 297.147 0.423177 294.838C-0.0176564 297.835 1.53408 300.761 5.21945 302.894L167.552 396.59C174.764 400.75 187.372 400.239 195.712 395.426L505.318 216.726C510.309 213.852 512.619 210.08 512.125 206.625C511.702 209.516 509.409 212.46 505.318 214.822Z" fill="white"/>
<path opacity="0.51" d="M167.869 391.072L11.3206 300.691C4.33782 296.654 5.21949 289.62 13.2779 284.966L317.136 109.632C325.194 104.978 337.396 104.467 344.379 108.504L500.928 198.886C507.911 202.923 507.029 209.956 498.971 214.61L195.113 389.944C187.054 394.598 174.852 395.109 167.869 391.072Z" fill="#453C9E"/>
<path style="mix-blend-mode:lighten" opacity="0.8" d="M179.702 390.244C175.17 390.244 170.85 389.327 167.623 387.476L11.0741 297.094C7.86488 295.243 6.10156 292.67 6.10156 289.831C6.10156 286.447 8.62312 283.044 13.0314 280.488L316.889 105.155C325.071 100.43 337.538 99.9189 344.644 104.026L501.193 194.408C504.402 196.259 506.165 198.833 506.165 201.671C506.165 205.056 503.644 208.458 499.235 211.014L195.378 386.348C190.899 388.922 185.15 390.244 179.702 390.244ZM168.117 386.595C174.958 390.544 186.949 390.032 194.866 385.466L498.724 210.133C502.797 207.77 505.143 204.685 505.143 201.671C505.143 199.203 503.555 196.947 500.681 195.272L344.133 104.89C337.291 100.941 325.3 101.453 317.383 106.018L13.5252 281.352C9.45188 283.714 7.10665 286.799 7.10665 289.814C7.10665 292.282 8.69365 294.538 11.5679 296.213L168.117 386.595Z" fill="url(#paint2_linear_55_2680)"/>
<g opacity="0.1">
<g style="mix-blend-mode:lighten" opacity="0.5">
<path d="M167.87 387.035L11.3209 296.654C4.33806 292.617 5.21973 285.583 13.2782 280.929L317.136 105.595C325.194 100.941 337.396 100.43 344.379 104.467L500.928 194.849C507.911 198.885 507.029 205.919 498.971 210.573L195.113 385.907C187.055 390.561 174.852 391.072 167.87 387.035Z" fill="url(#paint3_linear_55_2680)"/>
</g>
<mask id="mask0_55_2680" style="mask-type:luminance" maskUnits="userSpaceOnUse" x="6" y="101" width="500" height="289">
<path d="M167.87 387.035L11.3209 296.654C4.33806 292.617 5.21973 285.583 13.2782 280.929L317.136 105.595C325.194 100.941 337.396 100.43 344.379 104.467L500.928 194.849C507.911 198.885 507.029 205.919 498.971 210.573L195.113 385.907C187.055 390.561 174.852 391.072 167.87 387.035Z" fill="white"/>
</mask>
<g mask="url(#mask0_55_2680)">
<path d="M340.782 353.1C340.782 333.444 326.975 309.54 309.941 299.703C301.407 294.785 293.683 294.327 288.111 297.57L282.275 300.973L283.967 301.131C280.899 304.886 279.101 310.439 279.101 317.508C279.101 337.164 292.908 361.068 309.941 370.905C315.796 374.29 321.262 375.559 325.917 374.977L325.794 376.546L331.719 373.091C331.719 373.091 331.771 373.056 331.789 373.056L332.036 372.915C337.449 369.618 340.8 362.796 340.8 353.118L340.782 353.1Z" fill="#9FFFF8"/>
<path d="M325.883 376.534C337.926 369.583 337.928 347.044 325.886 326.192C313.844 305.341 294.319 294.073 282.275 301.025C270.232 307.976 270.23 330.515 282.272 351.366C294.314 372.217 313.839 383.486 325.883 376.534Z" fill="#42E8E0"/>
</g>
</g>
<path opacity="0.4" d="M467.513 209.833C465.115 211.208 461.253 211.208 458.855 209.833C456.457 208.458 456.457 206.219 458.855 204.844C461.253 203.469 465.115 203.469 467.513 204.844C469.911 206.219 469.911 208.458 467.513 209.833Z" fill="#24126A"/>
<path opacity="0.4" d="M434.486 185.77L451.431 195.554C453.494 196.753 453.247 198.833 450.849 200.208C448.451 201.583 444.836 201.741 442.773 200.543L425.828 190.759C423.764 189.56 424.011 187.48 426.409 186.105C428.808 184.73 432.422 184.571 434.486 185.77Z" fill="#24126A"/>
<path opacity="0.4" d="M337.855 127.137L354.801 136.921C356.864 138.12 356.617 140.2 354.219 141.575C351.821 142.95 348.206 143.109 346.143 141.91L329.197 132.126C327.134 130.928 327.381 128.847 329.779 127.472C332.177 126.097 335.792 125.939 337.855 127.137Z" fill="#24126A"/>
<path d="M467.513 203.769C465.115 205.144 461.253 205.144 458.855 203.769C456.457 202.394 456.457 200.155 458.855 198.78C461.253 197.405 465.115 197.405 467.513 198.78C469.911 200.155 469.911 202.394 467.513 203.769Z" fill="#42E8E0"/>
<path d="M434.486 179.706L451.431 189.49C453.494 190.688 453.247 192.768 450.849 194.144C448.451 195.519 444.836 195.677 442.773 194.478L425.828 184.695C423.764 183.496 424.011 181.416 426.409 180.041C428.808 178.666 432.422 178.507 434.486 179.706Z" fill="#42E8E0"/>
<path d="M337.855 121.055L354.801 130.839C356.864 132.038 356.617 134.118 354.219 135.493C351.821 136.868 348.206 137.027 346.143 135.828L329.197 126.044C327.134 124.845 327.381 122.765 329.779 121.39C332.177 120.015 335.792 119.857 337.855 121.055Z" fill="#42E8E0"/>
<g opacity="0.3">
<path d="M562.433 417.215V409.318L560.247 408.101C559.629 411.839 555.239 414.289 551.571 414.8L526.584 429.414L515.669 433.346L480.861 415.382L481.672 414.924C478.692 413.531 477.088 410.358 475.483 407.449L473.138 408.842L471.745 409.23V417.339C471.745 418.89 472.768 420.441 474.813 421.605L509.692 441.737C513.783 444.099 520.413 444.099 524.504 441.737L559.383 421.605C561.393 420.441 562.415 418.925 562.451 417.409C562.451 417.339 562.451 417.268 562.451 417.198L562.433 417.215Z" fill="url(#paint4_linear_55_2680)"/>
<path opacity="0.3" d="M551.571 414.8L526.585 429.414L517.098 432.834V443.517C519.778 443.517 522.458 442.936 524.504 441.754L559.383 421.623C561.393 420.459 562.416 418.943 562.451 417.427C562.451 417.357 562.451 417.286 562.451 417.216V409.318L560.458 408.207H560.247C559.559 411.874 555.221 414.289 551.589 414.8H551.571Z" fill="#0F054C"/>
<path d="M509.692 433.716L474.813 413.584C470.722 411.222 470.722 407.396 474.813 405.034L509.692 384.902C513.783 382.54 520.413 382.54 524.504 384.902L559.383 405.034C563.474 407.396 563.474 411.222 559.383 413.584L524.504 433.716C520.413 436.078 513.783 436.078 509.692 433.716Z" fill="url(#paint5_linear_55_2680)"/>
<g opacity="0.3">
<path d="M509.692 433.716L474.813 413.584C470.722 411.222 470.722 407.396 474.813 405.034L509.692 384.902C513.783 382.54 520.413 382.54 524.504 384.902L559.383 405.034C563.474 407.396 563.474 411.222 559.383 413.584L524.504 433.716C520.413 436.078 513.783 436.078 509.692 433.716Z" fill="#0F054C"/>
</g>
</g>
<path d="M517.098 408.278C514.717 408.278 512.337 407.749 510.521 406.709L475.642 386.577C473.826 385.537 472.838 384.127 472.838 382.61C472.838 381.094 473.843 379.684 475.642 378.644L510.521 358.512C514.153 356.432 520.043 356.414 523.675 358.512L558.554 378.644C560.37 379.684 561.358 381.094 561.358 382.61C561.358 384.127 560.352 385.537 558.554 386.577L523.675 406.709C521.859 407.749 519.478 408.278 517.098 408.278ZM517.098 357.543C514.823 357.543 512.548 358.036 510.82 359.041L475.942 379.173C474.319 380.107 473.438 381.324 473.438 382.61C473.438 383.897 474.319 385.114 475.942 386.048L510.82 406.18C514.277 408.172 519.902 408.172 523.358 406.18L558.236 386.048C559.859 385.114 560.74 383.897 560.74 382.61C560.74 381.324 559.859 380.107 558.236 379.173L523.358 359.041C521.63 358.036 519.355 357.543 517.08 357.543H517.098Z" fill="#42E8E0"/>
<path opacity="0.4" d="M562.433 374.872V362.937L560.247 361.721C559.63 365.458 555.239 367.908 551.571 368.419L526.585 383.034L515.67 386.965L480.861 369.001L481.673 368.543C478.693 367.15 477.088 363.977 475.483 361.068L473.138 362.461L471.745 362.849V374.995C471.745 376.546 472.768 378.098 474.813 379.261L509.692 399.393C513.783 401.755 520.413 401.755 524.504 399.393L559.383 379.261C561.393 378.098 562.416 376.581 562.451 375.065C562.451 374.995 562.451 374.924 562.451 374.854L562.433 374.872Z" fill="#42E8E0"/>
<path d="M562.433 364.259V356.362L560.247 355.145C559.63 358.882 555.239 361.333 551.571 361.844L526.585 376.458L515.67 380.389L480.861 362.426L481.673 361.967C478.693 360.575 477.088 357.402 475.483 354.493L473.138 355.886L471.745 356.273V364.383C471.745 365.934 472.768 367.485 474.813 368.649L509.692 388.781C513.783 391.143 520.413 391.143 524.504 388.781L559.383 368.649C561.393 367.485 562.416 365.969 562.451 364.453C562.451 364.383 562.451 364.312 562.451 364.242L562.433 364.259Z" fill="url(#paint6_linear_55_2680)"/>
<path opacity="0.3" d="M551.571 361.844L526.585 376.458L517.098 379.878V390.561C519.778 390.561 522.458 389.979 524.504 388.798L559.383 368.666C561.393 367.503 562.416 365.987 562.451 364.471C562.451 364.4 562.451 364.33 562.451 364.259V356.362L560.458 355.251H560.247C559.559 358.918 555.221 361.333 551.589 361.844H551.571Z" fill="#0F054C"/>
<path d="M509.692 380.777L474.813 360.645C470.722 358.283 470.722 354.458 474.813 352.095L509.692 331.964C513.783 329.601 520.413 329.601 524.504 331.964L559.383 352.095C563.474 354.458 563.474 358.283 559.383 360.645L524.504 380.777C520.413 383.139 513.783 383.139 509.692 380.777Z" fill="url(#paint7_linear_55_2680)"/>
<path d="M559.383 360.645L524.504 380.777C520.413 383.139 513.783 383.139 509.692 380.777L474.813 360.645C472.979 359.588 471.974 358.248 471.78 356.855C471.533 358.565 472.556 360.31 474.813 361.615L509.692 381.747C513.783 384.109 520.413 384.109 524.504 381.747L559.383 361.615C561.64 360.31 562.645 358.547 562.416 356.855C562.222 358.23 561.217 359.588 559.383 360.645Z" fill="white"/>
<g opacity="0.3">
<path d="M407.154 464.196V456.298L404.967 455.082C404.35 458.819 399.96 461.269 396.292 461.781L371.305 476.395L360.39 480.326L325.582 462.362L326.393 461.904C323.413 460.511 321.809 457.338 320.204 454.429L317.859 455.822L316.466 456.21V464.319C316.466 465.87 317.488 467.422 319.534 468.585L354.413 488.717C358.504 491.079 365.134 491.079 369.225 488.717L404.103 468.585C406.114 467.422 407.136 465.906 407.172 464.39C407.172 464.319 407.172 464.249 407.172 464.178L407.154 464.196Z" fill="url(#paint8_linear_55_2680)"/>
<path opacity="0.3" d="M396.292 461.781L371.305 476.395L361.819 479.814V490.497C364.499 490.497 367.179 489.916 369.225 488.735L404.103 468.603C406.114 467.439 407.136 465.923 407.172 464.407C407.172 464.337 407.172 464.266 407.172 464.196V456.298L405.179 455.187H404.967C404.28 458.854 399.942 461.269 396.309 461.781H396.292Z" fill="#0F054C"/>
<path d="M354.395 480.714L319.516 460.582C315.425 458.22 315.425 454.394 319.516 452.032L354.395 431.9C358.486 429.538 365.116 429.538 369.207 431.9L404.086 452.032C408.177 454.394 408.177 458.22 404.086 460.582L369.207 480.714C365.116 483.076 358.486 483.076 354.395 480.714Z" fill="url(#paint9_linear_55_2680)"/>
<g opacity="0.3">
<path d="M354.395 480.714L319.516 460.582C315.425 458.22 315.425 454.394 319.516 452.032L354.395 431.9C358.486 429.538 365.116 429.538 369.207 431.9L404.086 452.032C408.177 454.394 408.177 458.22 404.086 460.582L369.207 480.714C365.116 483.076 358.486 483.076 354.395 480.714Z" fill="#0F054C"/>
</g>
</g>
<path d="M361.801 451.415C359.421 451.415 357.04 450.886 355.224 449.846L320.345 429.714C318.529 428.674 317.541 427.264 317.541 425.748C317.541 424.232 318.546 422.821 320.345 421.781L355.224 401.649C358.856 399.552 364.746 399.552 368.378 401.649L403.257 421.781C405.073 422.821 406.061 424.232 406.061 425.748C406.061 427.264 405.056 428.674 403.257 429.714L368.378 449.846C366.562 450.886 364.182 451.415 361.801 451.415ZM355.541 449.317C358.997 451.309 364.622 451.309 368.079 449.317L402.957 429.185C404.58 428.251 405.461 427.035 405.461 425.748C405.461 424.461 404.58 423.244 402.957 422.31L368.079 402.178C364.622 400.186 358.997 400.186 355.541 402.178L320.662 422.31C319.058 423.244 318.159 424.461 318.159 425.748C318.159 427.035 319.04 428.251 320.662 429.185L355.541 449.317Z" fill="#42E8E0"/>
<path opacity="0.4" d="M407.154 418.026V406.092L404.967 404.875C404.35 408.613 399.96 411.063 396.292 411.574L371.305 426.188L360.39 430.12L325.582 412.156L326.393 411.698C323.413 410.305 321.809 407.132 320.204 404.223L317.859 405.616L316.466 406.004V418.15C316.466 419.701 317.488 421.252 319.534 422.416L354.413 442.548C358.504 444.91 365.134 444.91 369.225 442.548L404.103 422.416C406.114 421.252 407.136 419.736 407.172 418.22C407.172 418.15 407.172 418.079 407.172 418.009L407.154 418.026Z" fill="#42E8E0"/>
<path d="M407.154 407.396V399.499L404.967 398.282C404.35 402.02 399.96 404.47 396.292 404.981L371.305 419.595L360.39 423.527L325.582 405.563L326.393 405.105C323.413 403.712 321.809 400.539 320.204 397.63L317.859 399.023L316.466 399.411V407.52C316.466 409.071 317.488 410.622 319.534 411.786L354.413 431.918C358.504 434.28 365.134 434.28 369.225 431.918L404.103 411.786C406.114 410.622 407.136 409.106 407.172 407.59C407.172 407.52 407.172 407.449 407.172 407.379L407.154 407.396Z" fill="url(#paint10_linear_55_2680)"/>
<path opacity="0.3" d="M396.292 404.981L371.305 419.595L361.819 423.015V433.698C364.499 433.698 367.179 433.116 369.225 431.935L404.103 411.803C406.114 410.64 407.136 409.124 407.172 407.608C407.172 407.537 407.172 407.467 407.172 407.396V399.499L405.179 398.388H404.967C404.28 402.055 399.942 404.47 396.309 404.981H396.292Z" fill="#0F054C"/>
<path d="M354.395 423.914L319.516 403.782C315.425 401.42 315.425 397.595 319.516 395.233L354.395 375.101C358.486 372.739 365.116 372.739 369.207 375.101L404.086 395.233C408.177 397.595 408.177 401.42 404.086 403.782L369.207 423.914C365.116 426.277 358.486 426.277 354.395 423.914Z" fill="url(#paint11_linear_55_2680)"/>
<path d="M361.801 420.248C359.65 420.248 357.498 419.772 355.859 418.837L328.615 403.113C326.975 402.161 326.076 400.891 326.076 399.499C326.076 398.106 326.975 396.837 328.615 395.902L355.859 380.178C359.138 378.291 364.464 378.291 367.743 380.178L394.987 395.902C396.627 396.854 397.526 398.124 397.526 399.516C397.526 400.891 396.627 402.178 394.987 403.113L367.743 418.837C366.103 419.789 363.952 420.248 361.801 420.248ZM356.176 418.308C359.279 420.106 364.34 420.106 367.444 418.308L394.687 402.584C396.133 401.755 396.927 400.662 396.927 399.516C396.927 398.37 396.133 397.277 394.687 396.431L367.444 380.707C364.34 378.909 359.279 378.909 356.176 380.707L328.932 396.431C327.486 397.26 326.693 398.353 326.693 399.499C326.693 400.645 327.486 401.738 328.932 402.566L356.176 418.291V418.308Z" fill="#5351AF"/>
<path d="M404.086 403.782L369.207 423.914C365.116 426.277 358.486 426.277 354.395 423.914L319.516 403.782C317.682 402.725 316.677 401.385 316.483 399.992C316.236 401.702 317.259 403.448 319.516 404.752L354.395 424.884C358.486 427.246 365.116 427.246 369.207 424.884L404.086 404.752C406.343 403.448 407.348 401.685 407.119 399.992C406.925 401.367 405.92 402.725 404.086 403.782Z" fill="white"/>
<g opacity="0.3">
<path d="M108.851 183.937V176.039L106.664 174.823C106.047 178.56 101.656 181.01 97.9887 181.522L73.0023 196.136L62.0872 200.067L27.2791 182.103L28.0902 181.645C25.1101 180.252 23.5055 177.079 21.9009 174.17L19.5556 175.563L18.1626 175.951V184.06C18.1626 185.611 19.1853 187.163 21.2308 188.326L56.1095 208.458C60.2004 210.82 66.8306 210.82 70.9216 208.458L105.8 188.326C107.81 187.163 108.833 185.647 108.868 184.131C108.868 184.06 108.868 183.99 108.868 183.919L108.851 183.937Z" fill="url(#paint12_linear_55_2680)"/>
<path opacity="0.3" d="M97.9888 181.522L73.0024 196.136L63.5156 199.556V210.238C66.1959 210.238 68.8762 209.657 70.9216 208.476L105.8 188.344C107.811 187.18 108.833 185.664 108.869 184.148C108.869 184.078 108.869 184.007 108.869 183.937V176.039L106.876 174.928H106.664C105.977 178.595 101.639 181.01 98.0064 181.522H97.9888Z" fill="#0F054C"/>
<path d="M56.0919 200.437L21.2132 180.305C17.1223 177.943 17.1223 174.118 21.2132 171.755L56.0919 151.623C60.1829 149.261 66.813 149.261 70.9039 151.623L105.783 171.755C109.874 174.118 109.874 177.943 105.783 180.305L70.9039 200.437C66.813 202.799 60.1829 202.799 56.0919 200.437Z" fill="url(#paint13_linear_55_2680)"/>
<g opacity="0.3">
<path d="M56.0919 200.437L21.2132 180.305C17.1223 177.943 17.1223 174.118 21.2132 171.755L56.0919 151.623C60.1829 149.261 66.813 149.261 70.9039 151.623L105.783 171.755C109.874 174.118 109.874 177.943 105.783 180.305L70.9039 200.437C66.813 202.799 60.1829 202.799 56.0919 200.437Z" fill="#0F054C"/>
</g>
</g>
<path d="M63.4977 176.321C61.1172 176.321 58.7367 175.792 56.9205 174.752L22.0418 154.62C20.2256 153.58 19.238 152.17 19.238 150.654C19.238 149.138 20.2432 147.727 22.0418 146.687L56.9205 126.556C60.553 124.458 66.4425 124.458 70.075 126.556L104.954 146.687C106.77 147.727 107.757 149.138 107.757 150.654C107.757 152.17 106.752 153.58 104.954 154.62L70.075 174.752C68.2587 175.792 65.8782 176.321 63.4977 176.321ZM63.4977 125.586C61.223 125.586 58.966 126.08 57.2203 127.084L22.3415 147.216C20.7193 148.151 19.8376 149.367 19.8376 150.654C19.8376 151.941 20.7193 153.157 22.3415 154.091L57.2203 174.223C60.6764 176.215 66.3014 176.215 69.7576 174.223L104.636 154.091C106.259 153.157 107.14 151.941 107.14 150.654C107.14 149.367 106.259 148.151 104.636 147.216L69.7576 127.084C68.0295 126.08 65.7548 125.586 63.4801 125.586H63.4977Z" fill="#42E8E0"/>
<path opacity="0.4" d="M108.851 142.915V130.98L106.664 129.764C106.047 133.501 101.656 135.951 97.9886 136.463L73.0022 151.077L62.0871 155.008L27.2789 137.044L28.0901 136.586C25.11 135.193 23.5054 132.02 21.9007 129.112L19.5555 130.504L18.1625 130.892V143.038C18.1625 144.589 19.1852 146.141 21.2307 147.304L56.1094 167.436C60.2003 169.798 66.8305 169.798 70.9214 167.436L105.8 147.304C107.81 146.141 108.833 144.625 108.868 143.109C108.868 143.038 108.868 142.968 108.868 142.897L108.851 142.915Z" fill="#42E8E0"/>
<path d="M108.851 132.302V124.405L106.664 123.188C106.047 126.926 101.656 129.376 97.9886 129.887L73.0022 144.501L62.0871 148.433L27.2789 130.469L28.0901 130.011C25.11 128.618 23.5054 125.445 21.9007 122.536L19.5555 123.929L18.1625 124.317V132.426C18.1625 133.977 19.1852 135.528 21.2307 136.692L56.1094 156.824C60.2003 159.186 66.8305 159.186 70.9214 156.824L105.8 136.692C107.81 135.528 108.833 134.012 108.868 132.496C108.868 132.426 108.868 132.355 108.868 132.285L108.851 132.302Z" fill="url(#paint14_linear_55_2680)"/>
<path opacity="0.3" d="M97.9885 129.887L73.0021 144.501L63.5154 147.921V158.604C66.1956 158.604 68.8759 158.022 70.9214 156.841L105.8 136.71C107.81 135.546 108.833 134.03 108.868 132.514C108.868 132.443 108.868 132.373 108.868 132.302V124.405L106.876 123.294H106.664C105.976 126.961 101.639 129.376 98.0062 129.887H97.9885Z" fill="#0F054C"/>
<path d="M28.0724 130.011L61.1172 110.936C62.4221 110.178 64.5557 110.178 65.8606 110.936L98.3412 129.676L97.9885 129.887C101.656 129.376 106.047 126.926 106.664 123.188L70.216 102.915L59.6184 100.113L50.9781 105.19L21.8831 122.536C23.4877 125.427 25.0923 128.618 28.0724 130.011Z" fill="url(#paint15_linear_55_2680)"/>
<path opacity="0.3" d="M63.4977 101.153L59.6184 100.13L50.9781 105.207L21.8831 122.554C23.4877 125.445 25.0923 128.636 28.0724 130.028L61.1172 110.954C61.7697 110.584 62.6337 110.39 63.4977 110.39V101.17V101.153Z" fill="#0F054C"/>
<path d="M56.0917 148.803L21.213 128.671C17.122 126.309 17.122 122.483 21.213 120.121L56.0917 99.9892C60.1826 97.627 66.8128 97.627 70.9037 99.9892L105.782 120.121C109.873 122.483 109.873 126.309 105.782 128.671L70.9037 148.803C66.8128 151.165 60.1826 151.165 56.0917 148.803ZM65.8605 102.898C64.5557 102.14 62.422 102.14 61.1172 102.898L26.2384 123.03C24.9336 123.788 24.9336 125.004 26.2384 125.762L61.1172 145.894C62.422 146.652 64.5557 146.652 65.8605 145.894L100.739 125.762C102.044 125.004 102.044 123.788 100.739 123.03L65.8605 102.898Z" fill="url(#paint16_linear_55_2680)"/>
<path d="M100.757 123.03L65.8783 102.898C64.5734 102.14 62.4398 102.14 61.1349 102.898L26.2562 123.03C25.3921 123.541 25.0924 124.246 25.3921 124.898C25.5332 124.581 25.833 124.281 26.2562 124.017L61.1349 103.885C62.4398 103.127 64.5734 103.127 65.8783 103.885L100.757 124.017C101.198 124.264 101.48 124.581 101.621 124.898C101.921 124.246 101.621 123.541 100.757 123.03Z" fill="white"/>
<path d="M105.782 128.671L70.9037 148.803C66.8128 151.165 60.1827 151.165 56.0917 148.803L21.213 128.671C19.3791 127.613 18.374 126.273 18.1801 124.881C17.9332 126.591 18.9559 128.336 21.213 129.64L56.0917 149.772C60.1827 152.134 66.8128 152.134 70.9037 149.772L105.782 129.64C108.04 128.336 109.045 126.573 108.815 124.881C108.621 126.256 107.616 127.613 105.782 128.671Z" fill="white"/>
<path d="M57.0792 148.239L22.2005 128.107C18.6562 126.062 18.6562 122.73 22.2005 120.685L57.0792 100.553C60.6235 98.5083 66.3896 98.5083 69.9163 100.553L104.795 120.685C108.339 122.73 108.339 126.062 104.795 128.089L69.9163 148.221C66.372 150.266 60.6059 150.266 57.0792 148.221V148.239ZM66.848 102.334C64.9965 101.258 61.9812 101.258 60.1297 102.334L25.251 122.466C23.3995 123.541 23.3995 125.268 25.251 126.344L60.1297 146.476C61.9812 147.551 64.9965 147.551 66.848 146.476L101.727 126.344C103.578 125.268 103.578 123.541 101.727 122.466L66.848 102.334Z" fill="url(#paint17_linear_55_2680)"/>
<path opacity="0.4" d="M65.8782 102.898C64.5734 102.14 62.4397 102.14 61.1348 102.898L26.2561 123.03C24.9512 123.788 24.9512 125.004 26.2561 125.762L61.1348 145.894C62.4397 146.652 64.5734 146.652 65.8782 145.894L100.757 125.762C102.062 125.004 102.062 123.788 100.757 123.03L65.8782 102.898Z" fill="#42E8E0"/>
<path style="mix-blend-mode:lighten" opacity="0.5" d="M101.727 124.37V0H25.2687V124.37C25.2687 124.881 25.5861 125.374 26.2561 125.762L61.1349 145.894C62.4397 146.652 64.5734 146.652 65.8782 145.894L100.757 125.762C101.427 125.374 101.744 124.863 101.727 124.37Z" fill="url(#paint18_linear_55_2680)"/>
<path d="M383.973 173.186C383.973 134.528 356.818 87.5146 323.317 68.1684C306.532 58.4953 291.342 57.5938 280.383 63.9732L268.904 70.6647L272.233 70.9767C266.199 78.3616 262.662 89.2829 262.662 103.186C262.662 141.844 289.816 188.857 323.317 208.203C334.831 214.86 345.582 217.356 354.737 216.212L354.495 219.298L366.147 212.502C366.147 212.502 366.251 212.433 366.286 212.433L366.771 212.156C377.418 205.672 384.007 192.255 384.007 173.221L383.973 173.186Z" fill="#9FFFF8"/>
<path opacity="0.84" d="M354.225 120.503C366.031 140.946 371.92 162.195 371.919 180.009C371.918 197.839 366.025 212.12 354.402 218.829C342.779 225.538 327.461 223.499 312.016 214.585C296.583 205.679 281.12 189.956 269.315 169.513C257.509 149.071 251.62 127.822 251.622 110.008C251.623 92.178 257.515 77.8967 269.138 71.1879C280.761 64.4791 296.079 66.5181 311.525 75.4319C326.957 84.3381 342.42 100.061 354.225 120.503Z" fill="#09112E" stroke="white"/>
<g opacity="0.1">
<path d="M279.118 267.866C279.118 248.21 265.311 224.306 248.278 214.469C239.743 209.551 232.02 209.092 226.447 212.336L220.611 215.738L222.304 215.897C219.235 219.652 217.437 225.205 217.437 232.274C217.437 251.93 231.244 275.834 248.278 285.671C254.132 289.056 259.598 290.325 264.253 289.743L264.13 291.312L270.055 287.857C270.055 287.857 270.108 287.822 270.125 287.822L270.372 287.681C275.786 284.384 279.136 277.562 279.136 267.884L279.118 267.866Z" fill="#9FFFF8"/>
<path d="M264.204 291.296C276.247 284.344 276.249 261.806 264.207 240.954C252.165 220.103 232.64 208.835 220.596 215.786C208.553 222.738 208.551 245.276 220.593 266.128C232.635 286.979 252.16 298.247 264.204 291.296Z" fill="#42E8E0"/>
</g>
<path opacity="0.4" d="M244.381 299.932C223.115 299.932 201.832 295.261 185.644 285.918C169.898 276.821 161.222 264.728 161.222 251.842C161.222 238.955 169.898 226.862 185.644 217.766C218.037 199.062 270.725 199.079 303.117 217.766C318.864 226.862 327.54 238.955 327.54 251.842C327.54 264.728 318.864 276.839 303.117 285.918C286.93 295.261 265.647 299.932 244.381 299.932ZM244.381 204.333C223.221 204.333 202.061 208.987 185.944 218.277C170.391 227.25 161.839 239.167 161.839 251.824C161.839 264.481 170.409 276.398 185.961 285.371C218.178 303.969 270.601 303.969 302.818 285.371C318.37 276.398 326.922 264.481 326.922 251.824C326.922 239.167 318.353 227.25 302.8 218.277C286.683 208.969 265.523 204.333 244.363 204.333H244.381Z" fill="#42E8E0"/>
<path opacity="0.2" d="M244.381 312.837C217.384 312.837 190.387 306.913 169.844 295.049C149.884 283.52 138.88 268.183 138.88 251.859C138.88 235.535 149.884 220.181 169.844 208.669C210.948 184.941 277.813 184.941 318.917 208.669C338.878 220.198 349.881 235.535 349.881 251.859C349.881 268.183 338.878 283.538 318.917 295.049C298.374 306.913 271.377 312.837 244.381 312.837ZM244.381 191.464C217.49 191.464 190.617 197.369 170.144 209.181C150.377 220.586 139.48 235.747 139.48 251.842C139.48 267.954 150.36 283.097 170.144 294.503C211.071 318.125 277.672 318.125 318.599 294.503C338.366 283.097 349.264 267.937 349.264 251.842C349.264 235.747 338.384 220.586 318.599 209.181C298.127 197.369 271.254 191.464 244.363 191.464H244.381Z" fill="#42E8E0"/>
<path d="M244.381 289.779C227.611 289.779 210.86 286.094 198.093 278.725C185.679 271.551 178.837 261.996 178.837 251.824C178.837 241.653 185.679 232.098 198.093 224.923C223.626 210.186 265.153 210.186 290.668 224.923C303.082 232.098 309.924 241.653 309.924 251.824C309.924 261.996 303.082 271.551 290.668 278.725C277.901 286.094 261.15 289.779 244.381 289.779ZM244.381 214.487C227.735 214.487 211.071 218.154 198.393 225.469C186.173 232.521 179.437 241.882 179.437 251.842C179.437 261.802 186.173 271.145 198.393 278.214C223.749 292.846 265.012 292.846 290.368 278.214C302.588 271.163 309.324 261.802 309.324 251.859C309.324 241.917 302.588 232.556 290.368 225.487C277.69 218.171 261.044 214.505 244.381 214.505V214.487Z" fill="#42E8E0"/>
<mask id="mask1_55_2680" style="mask-type:luminance" maskUnits="userSpaceOnUse" x="196" y="141" width="97" height="131">
<path d="M292.661 260.074L273.282 271.233L196.101 226.686V141.011L292.661 196.753V260.074Z" fill="white"/>
</mask>
<g mask="url(#mask1_55_2680)">
<path d="M279.118 267.866C279.118 248.21 265.311 224.306 248.278 214.469C239.743 209.551 232.02 209.092 226.447 212.336L220.611 215.738L222.304 215.897C219.235 219.652 217.437 225.205 217.437 232.274C217.437 251.93 231.244 275.834 248.278 285.671C254.132 289.056 259.598 290.325 264.253 289.743L264.13 291.312L270.055 287.857C270.055 287.857 270.108 287.822 270.125 287.822L270.372 287.681C275.786 284.384 279.136 277.562 279.136 267.884L279.118 267.866Z" fill="#9FFFF8"/>
<path opacity="0.84" d="M264.204 291.296C276.247 284.344 276.249 261.806 264.207 240.954C252.165 220.103 232.64 208.835 220.596 215.786C208.553 222.738 208.551 245.276 220.593 266.128C232.635 286.979 252.16 298.247 264.204 291.296Z" fill="#09112E"/>
</g>
<path opacity="0.4" d="M161.575 352.907L64.7324 297.006C61.8758 295.349 61.8758 291.242 64.7324 289.585L79.5092 280.982C84.4465 278.126 90.5476 278.126 95.485 280.982L192.327 336.882C195.184 338.539 195.184 342.647 192.327 344.304L177.55 352.907C172.613 355.762 166.512 355.762 161.575 352.907Z" fill="#24126A"/>
<path d="M113.101 295.772L97.601 286.817L100.669 285.037L116.169 293.992L113.101 295.772Z" fill="#42E8E0"/>
<path d="M156.796 321.616L152.035 318.866L155.103 317.085L159.864 319.835L156.796 321.616Z" fill="#42E8E0"/>
<path d="M122.076 301.096L117.315 298.346L120.401 296.566L125.162 299.316L122.076 301.096Z" fill="#42E8E0"/>
<path d="M169.563 341.765C166.741 341.765 163.92 341.042 161.398 339.579L64.5561 283.679C63.1101 282.833 62.2461 281.335 62.2461 279.66C62.2461 277.985 63.1101 276.487 64.5561 275.64L79.3328 267.038C84.3759 264.129 90.6181 264.129 95.6613 267.038L192.504 322.938C193.949 323.766 194.813 325.283 194.813 326.957C194.813 328.632 193.949 330.13 192.504 330.977L177.727 339.579C175.205 341.025 172.384 341.765 169.563 341.765ZM87.5146 265.575C84.8167 265.575 82.1188 266.262 79.7031 267.655L64.9263 276.257C63.692 276.963 62.9514 278.25 62.9514 279.66C62.9514 281.07 63.692 282.357 64.9263 283.062L161.769 338.962C166.583 341.748 172.578 341.748 177.392 338.962L192.168 330.36C193.403 329.654 194.143 328.385 194.143 326.957C194.143 325.529 193.403 324.26 192.168 323.555L95.3262 267.655C92.9105 266.262 90.2125 265.575 87.5146 265.575Z" fill="#42E8E0"/>
<path d="M277.967 149.445C277.846 149.722 277.718 150.007 277.602 150.32C277.184 151.444 276.937 152.661 276.72 153.743C276.461 155.056 276.369 156.549 276.44 158.305C276.435 159.036 276.478 159.721 276.574 160.386L276.621 160.954C276.621 160.954 276.625 160.995 276.626 161.012C276.656 161.299 276.739 161.576 276.858 161.825C276.93 162.098 277.015 162.37 277.107 162.635C277.24 163.018 277.401 163.401 277.594 163.803C277.599 163.814 277.602 163.821 277.606 163.832C277.846 164.324 278.132 164.822 278.457 165.315C278.474 165.346 278.492 165.372 278.51 165.398C278.532 165.431 278.556 165.462 278.565 165.475C278.604 165.534 278.642 165.59 278.685 165.648C278.695 165.664 278.706 165.681 278.721 165.699L278.757 165.751C278.854 165.887 278.951 166.022 279.048 166.15L279.202 166.353C279.28 166.454 279.357 166.552 279.438 166.652L279.536 166.775C279.619 166.878 279.705 166.98 279.791 167.083L279.821 167.12C280.42 167.833 281.036 168.491 281.614 169.102C284.403 172.055 287.942 174.73 292.758 177.528C297.175 180.095 301.684 181.698 305.12 182.809C307.689 183.642 309.785 184.199 311.71 184.56C312.733 184.752 313.821 184.894 315.041 184.996C315.254 185.013 315.474 185.023 315.695 185.036C316.111 185.058 316.506 185.079 316.868 185.141C317.206 185.32 317.517 185.476 317.818 185.616C317.819 185.619 317.821 185.623 317.824 185.63L317.882 185.833C317.919 185.957 317.956 186.08 317.996 186.203L318.061 186.399C318.104 186.528 318.15 186.656 318.199 186.792C318.222 186.854 318.246 186.915 318.262 186.959C318.315 187.097 318.371 187.233 318.421 187.355C318.449 187.419 318.476 187.48 318.502 187.54C318.563 187.679 318.628 187.811 318.693 187.944C318.713 187.99 318.739 188.034 318.779 188.11C318.85 188.248 318.926 188.384 319.001 188.517C319.027 188.56 319.053 188.604 319.094 188.666C319.18 188.807 319.266 188.943 319.371 189.096L319.451 189.209C319.55 189.348 319.653 189.49 319.764 189.627C319.794 189.665 319.823 189.699 319.844 189.724C319.961 189.867 320.084 190.008 320.206 190.137C320.224 190.155 320.245 190.18 320.269 190.203C320.579 190.529 320.895 190.814 321.234 191.081C323.63 192.948 326.595 193.391 329.169 192.266C329.648 192.056 330.106 191.792 330.533 191.486C330.555 191.473 330.573 191.461 330.593 191.443C330.619 191.424 330.644 191.404 330.67 191.384C330.838 191.26 330.984 191.141 331.115 191.02C331.139 190.997 331.166 190.972 331.2 190.941C331.347 190.808 331.492 190.669 331.62 190.532C331.659 190.49 331.699 190.447 331.734 190.402L331.789 190.34C331.894 190.222 332 190.104 332.093 189.982C332.24 189.795 332.38 189.598 332.505 189.4C334.056 187.196 334.241 183.993 332.98 181.033C332.829 180.68 332.658 180.318 332.464 179.954C332.863 178.78 333.092 177.476 333.135 176.153C335.235 174.328 336.883 171.853 338.524 169.267C339.994 166.947 341.266 164.285 342.307 161.351C344.592 154.878 345.31 148.934 344.449 143.677C344.449 143.669 344.45 143.655 344.45 143.647C344.449 143.622 344.45 143.6 344.449 143.575C344.446 143.483 344.438 143.394 344.424 143.298C344.329 142.692 344.23 142.083 344.133 141.477L344.127 141.433C344.127 141.433 344.12 141.402 344.12 141.385C344.028 140.824 343.926 140.263 343.819 139.691L343.807 139.624C343.734 139.237 343.657 138.851 343.581 138.49C343.578 138.483 343.573 138.456 343.573 138.447C343.569 138.424 343.561 138.397 343.556 138.37C343.474 137.995 343.395 137.619 343.303 137.244L343.195 136.804C342.933 135.711 342.661 134.581 342.171 133.422C341.544 131.926 340.506 130.859 339.578 129.973C337.399 127.889 334.988 126.783 332.657 125.715C332.105 125.46 331.555 125.21 331.037 124.957C330.971 124.923 330.897 124.887 330.846 124.863C330.109 124.499 329.472 124.151 328.889 123.788C328.754 123.707 328.621 123.621 328.497 123.54C328.477 123.527 328.454 123.512 328.434 123.499C328.306 122.759 328.179 122.01 328.061 121.286C327.668 118.912 327.26 116.456 326.6 113.978C325.696 110.599 324.495 107.274 323.022 104.089C322.438 102.824 321.791 101.586 321.169 100.392L320.702 99.4953C319.893 97.9346 319.139 96.5401 318.131 95.2908C318.11 95.2662 318.092 95.2402 318.069 95.212C318.068 95.2084 318.066 95.2049 318.06 95.199L317.877 94.9445L317.851 94.9091L317.743 94.7619C317.699 94.7006 317.652 94.6406 317.599 94.5747L317.545 94.5053C317.477 94.4205 317.406 94.3371 317.351 94.2725C317.334 94.2501 317.315 94.229 317.297 94.2114C317.217 94.1233 317.139 94.0388 317.057 93.9604C317.045 93.9487 317.033 93.937 317.021 93.9253C316.913 93.8198 316.794 93.7195 316.673 93.6287C316.662 93.6205 316.647 93.6101 316.641 93.6042C316.024 93.1457 315.478 93.0625 315.124 93.0734C314.744 93.0872 314.369 93.1834 314.01 93.3618C313.665 93.449 313.32 93.5662 312.984 93.713C311.55 94.3405 310.376 95.4553 309.415 96.4606C307.835 98.1219 306.621 100.089 305.74 101.622C304.61 103.587 303.716 105.723 303.084 107.974C302.619 109.622 302.146 111.518 301.966 113.512C299.918 113.675 297.741 114.268 295.351 115.313C294.926 115.499 294.483 115.705 294.032 115.924C292.233 116.796 290.498 117.923 288.878 119.267C288.234 119.803 287.65 120.351 287.129 120.909C287.003 120.816 286.875 120.72 286.749 120.627C285.585 119.755 284.383 118.853 283.092 118.088C281.261 117.004 279.389 116.077 277.527 115.337C276.128 114.78 274.739 114.409 273.392 114.049C273.018 113.95 272.644 113.847 272.268 113.745C271.001 113.396 269.549 113.062 268.207 113.462C267.613 113.519 267.11 113.807 266.734 114.298C265.956 115.316 266.11 116.943 266.21 118.022C266.222 118.135 266.231 118.241 266.239 118.339C266.24 118.402 266.244 118.468 266.252 118.533C266.454 121.829 267.172 125.378 268.388 129.087C269.404 132.192 270.686 135.122 272.196 137.791L272.353 138.065C272.528 138.37 272.706 138.669 272.888 138.967C272.972 139.104 273.055 139.241 273.144 139.38C273.279 139.596 273.419 139.814 273.555 140.022C273.679 140.213 273.807 140.403 273.936 140.597C274.028 140.73 274.119 140.868 274.215 141C274.395 141.256 274.578 141.51 274.761 141.756C274.837 141.859 274.912 141.961 275.007 142.085C275.201 142.339 275.397 142.592 275.603 142.845L275.791 143.072C275.99 143.316 276.194 143.557 276.405 143.795L276.574 143.988C276.815 144.255 277.059 144.517 277.309 144.776L277.49 144.964C277.755 145.233 278.017 145.488 278.272 145.727L278.42 145.862C278.464 145.902 278.506 145.943 278.549 145.979C278.551 146.749 278.535 147.353 278.492 147.919C278.459 148.39 278.24 148.889 277.987 149.466L277.967 149.445Z" fill="white"/>
<path d="M340.793 134.032C340.337 132.942 339.52 132.108 338.715 131.337C335.279 128.054 330.946 127.381 327.28 124.69C327.171 124.611 327.065 124.526 326.956 124.442C327.002 124.375 327.023 124.281 327.004 124.167C326.401 120.844 325.989 117.573 325.107 114.275C324.237 111.027 323.081 107.823 321.664 104.755C320.958 103.228 320.161 101.741 319.388 100.248C318.709 98.9385 317.977 97.5545 317.059 96.4173C316.665 95.9239 316.068 94.871 315.428 94.8925C315.162 94.9027 314.929 94.9876 314.709 95.1094C313.065 95.4685 311.756 96.6513 310.581 97.8863C309.233 99.3068 308.117 101.024 307.102 102.783C306.048 104.617 305.202 106.628 304.6 108.769C304.023 110.819 303.493 113.031 303.475 115.294C300.415 115.263 297.448 116.349 294.828 117.622C293.083 118.471 291.437 119.551 289.924 120.806C289.091 121.497 288.252 122.305 287.53 123.219C285.874 122.027 284.272 120.71 282.548 119.684C280.812 118.654 279.034 117.77 277.221 117.05C275.535 116.376 273.832 115.985 272.124 115.511C271.008 115.202 269.72 114.901 268.678 115.268C268.42 115.266 268.181 115.345 267.98 115.611C267.5 116.241 267.763 117.796 267.813 118.605C268.009 121.961 268.772 125.401 269.847 128.678C271.857 134.806 275.272 141.206 280.065 145.214C280.08 145.224 280.092 145.227 280.106 145.238C280.125 146.289 280.131 147.334 280.059 148.357C279.982 149.464 279.438 150.337 279.079 151.291C278.713 152.274 278.488 153.386 278.275 154.446C278.014 155.772 277.972 157.177 278.032 158.596C278.027 159.217 278.06 159.847 278.154 160.476C278.172 160.688 278.189 160.901 278.206 161.119C278.212 161.18 278.251 161.213 278.289 161.222C278.363 161.563 278.458 161.898 278.574 162.242C279.333 164.428 281.093 166.312 282.591 167.899C285.729 171.219 289.586 173.822 293.298 175.98C297.186 178.239 301.261 179.801 305.338 181.12C307.461 181.807 309.605 182.425 311.747 182.827C312.809 183.028 313.87 183.157 314.926 183.242C315.636 183.301 316.407 183.29 317.143 183.455C317.761 183.791 318.385 184.099 319.014 184.341C320.548 184.925 322.082 184.915 323.561 184.692C325.133 184.458 326.631 183.904 328.025 183.184C328.734 182.819 329.276 182.23 329.714 181.534C331.023 179.939 331.668 177.474 331.583 175.078C331.615 175.064 331.645 175.055 331.675 175.037C333.909 173.259 335.638 170.608 337.23 168.097C338.704 165.769 339.898 163.208 340.861 160.493C342.611 155.53 343.902 149.493 342.904 143.634C342.902 143.55 342.9 143.467 342.897 143.383C342.589 141.419 342.288 139.465 341.806 137.505C341.519 136.325 341.264 135.157 340.789 134.025L340.793 134.032Z" fill="#FC23CE"/>
<path d="M329.581 167.3C329.504 167.185 329.378 167.109 329.245 167.163C328.199 167.582 327.156 168.009 326.025 168.194C325.043 168.36 324.001 168.311 322.982 168.286C321.022 168.231 319.044 168.197 317.422 169.297C314.551 171.24 314.199 175.909 310.954 177.443C310.823 177.509 310.91 177.793 311.059 177.753C311.068 177.749 311.074 177.747 311.079 177.744C313.354 178.675 315.653 179.146 317.963 179.774C320.298 180.406 322.761 180.657 324.794 179.568C326.644 178.577 327.195 176.206 328.015 174.209C328.457 173.129 329.084 172.189 329.488 171.075C329.87 170.021 329.943 168.758 329.765 167.542C329.744 167.407 329.668 167.326 329.581 167.292L329.581 167.3Z" fill="#68151A"/>
<path d="M328.907 170.802C328.515 171.958 327.839 172.911 327.383 174.023C326.569 176.009 326.07 178.077 324.24 179.06C322.321 180.09 319.844 179.604 317.665 179.055C315.593 178.532 313.518 178.192 311.446 177.631C314.428 176.534 315.093 172.348 317.311 170.198C318.938 168.625 321.465 168.886 323.619 168.954C325.675 169.017 327.436 168.65 329.244 167.88C329.234 168.903 329.225 169.866 328.907 170.802ZM329.578 167.301C329.5 167.187 329.375 167.11 329.241 167.164C328.196 167.583 327.153 168.01 326.022 168.195C325.04 168.362 323.997 168.313 322.979 168.287C321.019 168.232 319.041 168.198 317.419 169.298C314.548 171.242 314.196 175.91 310.951 177.444C310.817 177.511 310.904 177.796 311.056 177.754C311.065 177.751 311.07 177.748 311.076 177.746C313.351 178.677 315.65 179.147 317.96 179.775C320.295 180.408 322.757 180.659 324.791 179.57C326.641 178.578 327.192 176.207 328.012 174.211C328.454 173.13 329.081 172.19 329.484 171.076C329.867 170.022 329.942 168.758 329.764 167.547C329.742 167.412 329.666 167.331 329.576 167.298L329.578 167.301Z" fill="#AC5C1A"/>
<path d="M342.797 143.151C342.543 141.554 342.288 139.956 341.947 138.363C341.087 135.287 339.602 132.557 336.584 131.951C335.267 131.685 333.985 131.772 332.695 131.785C331.579 131.79 330.461 131.814 329.364 131.918C326.943 132.144 324.311 132.633 322.72 134.671C322.624 134.794 322.409 134.725 322.372 134.515C321.96 131.995 320.849 129.611 318.137 127.977C316.418 126.94 314.059 126.13 312.317 126.619C306.455 128.252 313.761 136.377 315.665 139.141C315.687 139.17 315.7 139.198 315.707 139.23C315.82 139.27 315.916 139.394 315.852 139.529C315.545 140.172 314.839 141.327 315.468 142.171C315.851 142.687 316.381 142.749 316.866 143.012C317.715 143.469 318.157 144.353 318.427 145.345C318.786 146.666 318.934 147.998 319.061 149.327C319.174 150.533 320.549 154.738 320.612 155.937C320.654 156.769 319.495 154.738 318.955 155.269C318.156 156.062 316.967 155.899 315.909 155.952C314.257 156.03 312.484 156.19 311.117 157.113C310.723 157.379 310.352 157.678 309.978 157.974C309.987 158.056 309.956 158.133 309.875 158.169C309.762 158.214 309.643 158.27 309.527 158.334C309.004 158.742 308.472 159.128 307.873 159.408C307.81 159.435 307.753 159.422 307.708 159.382C307.112 159.668 306.496 159.848 305.869 159.704C304.164 159.309 302.834 156.754 301.923 155.179C300.876 153.356 300.336 151.896 300.516 149.908C300.589 149.111 300.772 148.211 300.608 147.373C300.346 146.056 299.171 145.895 298.253 145.836C298.156 145.826 298.034 145.743 298.03 145.617C297.911 142.849 297.838 134.982 294.919 133.884C290.57 132.245 284.777 142.101 290.816 147.034C290.925 147.127 290.858 147.319 290.752 147.365C284.992 149.761 276.946 154.4 278.832 162.893C279.712 164.708 281.192 166.303 282.483 167.674C285.635 171.024 289.504 173.655 293.228 175.837C297.128 178.121 301.213 179.705 305.3 181.044C307.428 181.741 309.577 182.368 311.723 182.78C312.787 182.985 313.851 183.118 314.909 183.206C315.619 183.267 316.392 183.258 317.129 183.427C317.752 183.765 318.375 184.078 319.005 184.323C320.543 184.915 322.079 184.909 323.56 184.689C325.134 184.457 326.633 183.904 328.027 183.183C328.736 182.818 329.277 182.226 329.713 181.527C331.02 179.926 331.659 177.446 331.568 175.034C331.6 175.02 331.63 175.011 331.66 174.993C333.892 173.209 335.617 170.545 337.201 168.024C338.671 165.685 339.86 163.11 340.817 160.38C342.556 155.39 343.832 149.316 342.817 143.416C342.814 143.332 342.812 143.247 342.809 143.163L342.797 143.151Z" fill="white"/>
<path d="M331.54 155.504C330.836 153.896 329.889 152.348 328.762 150.888C327.233 148.912 325.43 147.228 323.543 145.769C321.696 144.339 319.715 143.143 317.759 141.978C317.198 141.645 316.629 141.324 316.06 141.02C315.999 141.311 315.93 141.601 315.867 141.896C315.724 142.596 315.573 143.522 316.113 144.195C316.507 144.685 317.1 144.953 317.425 145.52C317.808 146.178 317.996 146.787 318.076 147.524C318.2 148.664 318.562 149.8 318.918 150.907C319.544 152.854 320.233 154.783 320.603 156.779C320.619 156.877 320.573 156.965 320.498 156.993C318.202 157.792 315.827 158.462 313.601 159.436C311.632 160.302 309.732 161.359 307.611 161.83C307.938 162.278 308.253 162.605 308.475 162.572C308.707 162.533 308.768 162.971 308.533 163.007C308.133 163.077 307.644 162.461 307.271 161.903C307.209 161.914 307.149 161.932 307.086 161.942C306.856 161.98 306.793 161.551 307.017 161.507C306.945 161.388 306.88 161.286 306.829 161.208C305.85 159.696 304.963 158.114 304.095 156.524C303.382 155.218 302.773 153.82 301.816 152.717C301.287 152.11 300.577 151.444 300.551 150.583C300.534 150.08 300.794 149.689 300.716 149.162C300.593 148.356 300.419 147.69 299.851 147.163C299.632 147.804 299.419 148.45 299.219 149.096C298.499 151.414 297.923 153.799 297.663 156.328C297.343 159.414 297.347 162.707 298.046 165.918C298.463 167.836 299.226 169.594 300.213 171.211C300.592 171.985 301.023 172.731 301.543 173.425C302.464 174.653 303.699 175.546 304.912 176.269C307.323 177.708 310.035 178.462 312.549 178.386C314.743 178.319 316.733 177.331 317.905 175.351C318.542 174.271 318.885 172.864 318.895 171.476C318.895 171.367 318.883 171.255 318.88 171.148C319.664 172.192 320.995 172.666 322.039 172.88C323.546 173.185 325.052 172.987 326.499 172.84C327.323 172.756 327.97 172.339 328.501 171.755C328.871 171.413 329.221 171.033 329.566 170.681C329.929 170.216 330.269 169.736 330.587 169.266C331.503 167.906 332.143 166.284 332.54 164.568C333.251 161.466 332.792 158.389 331.536 155.51L331.54 155.504Z" fill="white"/>
<path d="M310.642 113.379C310.83 114.521 310.791 115.053 312.042 115.333C313.29 115.615 318.57 117.308 321.13 119.79C323.684 122.266 322.743 116.264 320.481 109.784C318.218 103.308 315.881 97.431 314.394 99.3907C312.906 101.35 309.562 106.846 310.645 113.377L310.642 113.379Z" fill="white"/>
<path d="M280.535 141.302C280.535 141.302 280.483 134.992 282.221 129.882C282.554 128.901 282.541 127.856 281.056 126.424C279.572 124.992 274.482 120.267 272.102 120.515C269.723 120.767 271.668 127.309 274.137 131.795C276.598 136.28 280.535 141.302 280.535 141.302Z" fill="white"/>
<path d="M314.466 99.4935C312.812 101.324 311.72 104.017 311.073 106.629C310.404 109.336 309.94 112.475 311.094 115.411C311.148 115.549 311.298 115.479 311.28 115.359C311.095 113.837 310.858 112.443 310.929 110.944C310.996 109.535 311.202 108.164 311.492 106.836C312.095 104.078 313.193 101.811 314.526 99.5606C314.548 99.5254 314.494 99.4642 314.465 99.4983L314.466 99.4935Z" fill="#AC5C1A"/>
<path d="M328.231 125.238C327.85 125.006 327.475 124.758 327.107 124.486C326.997 124.407 326.892 124.322 326.783 124.238C326.829 124.171 326.851 124.081 326.83 123.963C326.226 120.638 325.812 117.365 324.928 114.065C324.056 110.815 322.899 107.608 321.48 104.537C321.448 104.463 321.409 104.39 321.373 104.317C322.507 107.096 323.504 109.906 323.995 112.792C324.226 113.608 324.443 114.425 324.649 115.247C325.342 118.08 325.654 120.909 326.156 123.748C324.61 122.502 323.15 121.1 321.59 119.882C319.784 118.47 317.801 117.535 315.807 116.778C315.752 116.755 315.73 116.845 315.785 116.868C317.644 117.684 319.432 118.76 321.107 120.115C322.878 121.546 324.536 123.184 326.319 124.598C327.302 125.377 327.698 125.237 328.727 125.801C328.714 125.786 330.729 126.64 330.716 126.624C330.476 126.343 328.562 125.759 328.23 125.243L328.231 125.238Z" fill="#AC5C1A"/>
<path d="M280.001 145.009C280.008 145.29 280.007 145.57 280.007 145.85C280.085 145.481 280.156 145.106 280.202 144.713C280.291 143.94 280.381 143.171 280.492 142.409C280.49 142.287 280.488 142.165 280.484 142.048C280.478 139.709 280.836 137.482 280.852 135.154C280.853 135.077 280.743 135.036 280.732 135.113C280.45 137.137 279.972 139.12 279.945 141.228C279.931 142.197 279.958 143.178 279.986 144.163C278.762 143.09 277.647 141.876 276.628 140.561C275.337 139.242 274.116 137.753 273.046 136.15C274.888 139.549 277.197 142.667 279.962 144.983C279.977 144.994 279.989 144.997 280.004 145.008L280.001 145.009Z" fill="#AC5C1A"/>
<path d="M342.526 145.48C342.454 150.561 341.661 155.524 340.1 160.033C339.177 162.699 337.96 165.179 336.538 167.468C335.049 169.863 333.396 172.212 331.38 174.027C331.366 173.901 331.353 173.78 331.334 173.657C331.308 173.481 331.095 173.494 331.088 173.649C331.079 173.887 331.063 174.123 331.048 174.354C330.996 174.445 330.992 174.545 331.031 174.642C330.955 175.672 330.838 176.691 330.614 177.663C330.506 178.156 330.361 178.622 330.192 179.078C329.391 180.26 328.817 181.665 327.591 182.35C326.269 183.089 324.781 183.566 323.286 183.842C321.716 184.131 320.117 184.028 318.487 183.43C318.231 183.339 317.975 183.23 317.724 183.115C317.368 182.863 316.98 182.694 316.575 182.574C315.793 182.182 315.018 181.77 314.22 181.428C314.079 181.362 314.023 181.594 314.162 181.669C314.572 181.88 314.978 182.114 315.388 182.35C314.633 182.27 313.873 182.267 313.213 182.186C311.188 181.927 309.159 181.401 307.145 180.81C303.068 179.624 298.965 178.126 295.036 176.069C293.135 175.072 291.244 173.926 289.402 172.657C285.857 170.212 282.468 167.897 279.626 164.265C280.468 165.526 281.534 166.668 282.492 167.679C285.629 171.003 289.484 173.61 293.195 175.771C297.081 178.034 301.153 179.6 305.228 180.923C307.349 181.612 309.491 182.232 311.631 182.636C312.693 182.838 313.753 182.968 314.808 183.054C315.517 183.113 316.288 183.103 317.023 183.269C317.644 183.604 318.264 183.914 318.893 184.156C320.426 184.742 321.959 184.733 323.436 184.511C325.007 184.278 326.503 183.725 327.895 183.006C328.603 182.641 329.144 182.052 329.581 181.356C330.887 179.762 331.529 177.296 331.443 174.898C331.475 174.885 331.505 174.876 331.535 174.858C333.765 173.081 335.491 170.429 337.077 167.92C338.547 165.592 339.738 163.03 340.696 160.312C342.441 155.348 343.727 149.312 342.725 143.446C342.722 143.362 342.72 143.278 342.717 143.195C342.618 142.576 342.522 141.96 342.418 141.34C342.504 142.723 342.535 144.097 342.517 145.467L342.526 145.48Z" fill="#AC5C1A"/>
<path d="M281.993 127.858C281.476 126.887 280.501 126.118 279.756 125.413C278.742 124.46 277.682 123.583 276.583 122.787C275.378 121.914 269.955 118.228 270.663 122.11C270.68 122.196 270.787 122.191 270.788 122.115C270.796 121.369 270.962 120.834 271.6 120.826C271.228 121.591 271.439 122.924 271.585 123.773C271.785 124.988 272.316 126.512 273.031 127.531C273.068 127.583 273.13 127.539 273.104 127.479C272.675 126.397 272.355 125.37 272.158 124.239C272.042 123.577 271.963 122.92 271.952 122.263C271.942 121.779 272.085 121.356 272.109 120.896C272.554 121.024 273.02 121.278 273.432 121.493C274.595 122.1 275.747 122.898 276.831 123.714C278.334 124.855 279.938 126.211 281.192 127.729C282.064 128.786 281.681 129.798 281.494 130.885C281.346 131.773 281.262 132.688 281.116 133.579C281.1 133.684 281.24 133.792 281.282 133.685C281.67 132.692 281.741 131.536 282.089 130.519C282.4 129.615 282.51 128.828 281.988 127.847L281.993 127.858Z" fill="#AC5C1A"/>
<path d="M331.784 155.5C331.072 153.873 330.113 152.306 328.972 150.829C327.555 148.996 325.912 147.424 324.176 146.032C324.507 146.358 324.842 146.649 325.024 146.845C326.581 148.531 328.122 150.564 329.467 152.483C332.081 156.21 333.103 160.201 332.194 164.375C331.769 166.3 330.929 168.055 329.844 169.557C329.83 169.563 329.816 169.569 329.803 169.587C328.789 170.79 327.961 172.167 326.323 172.332C325.035 172.462 323.742 172.583 322.41 172.427C321.737 172.348 321.067 172.174 320.409 171.864C319.467 171.427 319.102 170.662 318.735 169.652C318.076 167.857 317.198 166.115 316.458 164.347C316.423 164.265 316.321 164.297 316.34 164.382C316.604 165.327 316.901 166.279 317.221 167.221C317.203 167.259 317.197 167.308 317.217 167.354C317.32 167.581 317.415 167.807 317.509 168.029C317.605 168.288 317.7 168.543 317.802 168.8C318.147 169.79 318.37 170.8 318.361 171.856C318.35 173.206 317.842 174.519 317.205 175.514C316.043 177.321 313.964 177.916 311.955 177.943C309.729 177.974 307.395 177.175 305.248 176.036C303.998 175.373 302.781 174.455 301.79 173.297C301.684 173.174 301.582 173.04 301.48 172.911C298.227 168.682 296.961 160.7 297.578 155.725C297.551 155.928 297.525 156.126 297.505 156.33C297.181 159.454 297.185 162.787 297.893 166.037C298.315 167.978 299.087 169.757 300.087 171.395C300.47 172.177 300.906 172.933 301.432 173.636C302.365 174.878 303.614 175.783 304.843 176.514C307.283 177.971 310.027 178.735 312.571 178.657C314.792 178.59 316.806 177.59 317.991 175.586C318.637 174.493 318.983 173.069 318.994 171.664C318.993 171.554 318.981 171.441 318.978 171.332C319.772 172.389 321.119 172.869 322.176 173.085C323.701 173.394 325.225 173.194 326.689 173.045C327.523 172.961 328.178 172.538 328.715 171.947C329.089 171.601 329.444 171.217 329.793 170.86C330.161 170.39 330.505 169.904 330.826 169.428C331.753 168.051 332.401 166.41 332.802 164.673C333.521 161.533 333.057 158.418 331.785 155.504L331.784 155.5Z" fill="#AF743C"/>
<path d="M341.476 151.299C340.714 154.419 339.889 157.755 338.426 160.435C337.732 161.706 336.942 162.93 336.137 164.093C335.55 164.93 334.908 165.843 333.963 166.164C333.821 166.213 333.691 166.058 333.692 165.896C333.699 162.72 333.821 159.284 332.169 156.287C332.154 156.301 332.145 156.318 332.128 156.334C332.752 160.406 331.682 164.501 329.746 167.444C328.703 169.033 327.38 170.448 325.743 171.241C324.539 171.822 322.974 172.015 321.529 171.552C320.801 171.315 320.085 171.06 319.778 170.312C319.451 169.525 318.911 168.4 318.996 167.548C319.055 167.004 319.804 166.727 320.14 166.487C320.806 166.005 321.475 165.513 322.082 164.942C323.381 163.72 324.807 161.866 324.319 159.534C323.976 157.898 322.828 156.499 321.484 155.589C320.806 155.25 320.103 154.993 319.398 154.826C315.444 153.912 311.633 155.308 308.627 157.561C307.814 158.167 307.022 158.963 306.398 159.902C305.828 161.026 305.491 162.348 305.684 163.71C305.953 165.621 307.084 167.052 308.661 167.775C311.445 169.044 314.02 168.528 316.652 168.17C316.791 168.152 316.865 168.289 316.863 168.417C317.404 168.444 317.583 169.447 317.653 169.989C317.823 171.222 317.532 172.249 316.956 173.158C315.611 175.274 313.288 175.972 310.928 176.033C306.55 176.141 302.103 173.788 299.196 169.391C299.342 172.488 302.212 175.433 304.168 177.471C304.285 177.59 304.277 177.797 304.14 177.844C303.923 177.918 303.699 177.944 303.465 177.94C302.622 178.058 301.304 177.574 300.531 177.335C299.275 176.955 298.034 176.467 296.813 175.877C294.229 174.636 291.759 173.065 289.256 171.559C286.115 169.67 282.492 167.547 279.802 164.519C280.613 165.679 281.6 166.732 282.492 167.679C285.629 171.003 289.484 173.61 293.195 175.771C297.081 178.034 301.153 179.6 305.228 180.924C307.349 181.612 309.491 182.232 311.632 182.637C312.693 182.838 313.754 182.968 314.809 183.054C315.517 183.113 316.288 183.103 317.023 183.269C317.641 183.605 318.265 183.914 318.893 184.157C320.426 184.742 321.959 184.733 323.436 184.511C325.007 184.278 326.503 183.725 327.895 183.006C328.603 182.641 329.144 182.052 329.581 181.356C330.888 179.762 331.53 177.296 331.444 174.899C331.475 174.885 331.505 174.876 331.535 174.859C333.766 173.081 335.491 170.43 337.077 167.92C338.547 165.592 339.738 163.03 340.698 160.315C342.443 155.352 343.727 149.312 342.727 143.45C342.723 143.379 342.722 143.307 342.722 143.235C342.534 145.982 342.107 148.676 341.468 151.289L341.476 151.299Z" fill="#FFB1EF"/>
<path d="M316.129 100.009C315.69 99.3786 315.16 98.8634 314.587 99.4027C314.23 99.7414 313.948 100.166 313.703 100.621C312.505 102.855 311.503 105.262 311.024 107.945C310.758 109.436 310.572 110.985 310.667 112.569C310.706 113.282 310.735 114.05 310.895 114.76C310.941 114.952 310.989 115.139 311.033 115.332C311.653 115.625 312.287 115.577 312.918 115.746C313.72 115.964 314.509 116.23 315.292 116.562C316.548 117.09 317.805 117.741 319.015 118.446C320.791 119.477 322.743 120.786 324.27 122.473C322.927 120.129 320.644 118.391 318.828 116.644C318.01 115.852 317.025 114.841 316.764 113.627C316.459 112.212 316.647 110.793 316.679 109.413C316.695 108.74 316.934 104.503 318.385 106.312C319.069 107.166 319.526 108.375 320.003 109.363C320.247 109.867 320.485 110.378 320.722 110.89C319.804 108.253 318.762 105.667 317.732 103.063C317.648 102.896 317.564 102.734 317.48 102.566C317.031 101.719 316.677 100.801 316.128 100.014L316.129 100.009Z" fill="white"/>
<path d="M281.688 131.445C281.997 130.215 282.493 128.899 281.648 127.576C280.474 125.743 278.635 124.74 277.036 123.535C275.291 122.224 273.443 120.771 271.443 120.585C270.906 120.676 270.468 120.978 270.408 121.738C270.364 122.27 270.408 122.807 270.527 123.353C271.056 125.858 272.039 128.105 273.159 130.377C273.734 131.238 274.308 132.098 274.884 132.953C274.487 132.007 274.201 131.025 274.091 130.008C273.891 128.178 275.134 129.318 275.712 130.147C276.569 131.381 277.42 132.569 278.345 133.739C278.914 134.462 279.184 135.15 279.163 136.054C279.108 138.403 279.538 140.642 280.137 142.947C280.16 142.75 280.208 142.564 280.281 142.379C280.299 142.341 280.321 142.315 280.353 142.301C280.562 139.821 280.549 137.272 280.98 134.869C281.189 133.717 281.406 132.565 281.688 131.445Z" fill="white"/>
<path d="M310.632 124.048C310.578 124.03 310.528 124.023 310.474 124.014C310.476 123.995 310.47 123.974 310.456 123.956C309.082 122.405 306.452 120.038 305.615 123.168C305.199 124.721 305.919 126.35 307.029 126.689C307.629 126.874 308.206 126.49 308.67 126.051C309.343 125.413 309.949 124.752 310.654 124.19C310.693 124.163 310.675 124.063 310.632 124.048Z" fill="#FAF9E8"/>
<path d="M290.946 150.704C290.946 150.704 292.703 148.569 295.855 147.971C296.518 147.847 298.341 147.932 299.347 148.272C299.347 148.272 298.669 147.402 297.344 146.793C297.344 146.793 296.285 137.77 294.042 136.622C291.798 135.473 290.635 140.034 291.098 143.153C291.559 146.274 292.339 147.473 292.94 147.745C292.94 147.745 291.611 148.86 290.943 150.705L290.946 150.704Z" fill="#AC5C1A"/>
<path d="M291.261 150.627C291.261 150.627 292.703 148.57 295.856 147.972C296.518 147.847 298.341 147.932 299.347 148.273C299.347 148.273 298.28 147.666 296.953 147.054C296.953 147.054 296.946 142.73 295.146 139.334C293.844 136.879 291.822 140.359 292.286 143.479C292.749 146.598 293.282 147.349 293.884 147.625C293.884 147.625 291.927 148.778 291.258 150.628L291.261 150.627Z" fill="#AC5C1A"/>
<path d="M291.597 150.123C292.887 147.976 295.818 146.512 298.301 147.793C298.393 147.842 298.409 148.034 298.299 148.031C296.969 147.973 295.792 147.889 294.571 148.36C293.479 148.782 292.601 149.531 291.632 150.172C291.61 150.185 291.584 150.15 291.597 150.123Z" fill="#AF743C"/>
<path d="M296.309 127.707C294.698 125.061 292.097 127.245 291.434 129.565C291.245 129.888 291.11 130.241 291.109 130.703C291.109 130.904 291.256 131.041 291.408 130.982C292.918 130.372 294.561 131.594 296.053 131.1C297.335 130.675 296.923 128.705 296.309 127.707Z" fill="#FAF9E8"/>
<path d="M293.603 145.779C294.124 147.579 294.875 148.375 296.15 147.847C296.719 147.611 297.161 146.709 296.175 143.02C295.69 141.209 295.263 139.584 294.393 140.071C293.228 140.725 293.083 143.974 293.604 145.783L293.603 145.779Z" fill="#491C00"/>
<path d="M294.969 142.178C294.784 142.983 294.382 143.578 294.064 143.508C293.747 143.44 293.645 142.731 293.824 141.929C294.008 141.122 294.412 140.532 294.727 140.597C295.038 140.667 295.15 141.372 294.965 142.176L294.969 142.178Z" fill="white"/>
<path d="M324.073 136.735C324.073 136.735 321.307 136.523 318.696 138.374C318.144 138.76 316.944 140.129 316.496 141.089C316.496 141.089 316.334 140.001 316.809 138.627C316.809 138.627 310.988 131.627 311.703 129.218C312.419 126.813 316.533 129.129 318.482 131.62C320.428 134.108 320.762 135.497 320.543 136.119C320.543 136.119 322.269 135.937 324.073 136.735Z" fill="#AC5C1A"/>
<path d="M323.795 136.912C323.795 136.912 321.305 136.528 318.694 138.379C318.142 138.765 316.942 140.134 316.494 141.094C316.494 141.094 316.502 140.166 316.974 138.788C316.974 138.788 314.082 136.774 312.91 131.894C312.265 129.21 315.951 130.22 317.897 132.703C319.844 135.195 320.016 136.095 319.8 136.716C319.8 136.716 321.993 136.109 323.795 136.912Z" fill="#AC5C1A"/>
<path d="M322.956 136.634C320.503 136.176 317.466 137.406 316.768 140.126C316.74 140.227 316.874 140.368 316.948 140.28C317.785 139.244 318.51 138.303 319.67 137.698C320.71 137.158 321.848 136.996 322.97 136.687C322.996 136.684 322.981 136.636 322.959 136.633L322.956 136.634Z" fill="#AF743C"/>
<path d="M318.523 135.671C319.191 137.432 319.054 138.476 317.673 138.69C317.057 138.79 316.14 138.27 314.707 134.705C314.003 132.956 313.366 131.389 314.385 131.346C315.746 131.289 317.851 133.907 318.523 135.671Z" fill="#491C00"/>
<path d="M314.759 133.429C315.087 134.259 315.478 134.875 315.629 134.809C315.782 134.742 315.473 133.912 315.146 133.086C314.817 132.256 314.54 131.878 314.388 131.945C314.235 132.011 314.432 132.602 314.759 133.429Z" fill="white"/>
<path d="M322.46 157.332C320.973 154.252 317.094 154.45 314.889 154.731C311.298 155.199 308.259 157.2 306.303 160.431C305.463 161.819 305.006 163.63 306.352 165.224C307.467 166.548 309.311 166.963 310.699 167.288C314.433 168.162 318.897 166.944 321.211 163.924C322.411 162.36 323.615 159.714 322.462 157.327L322.46 157.332Z" fill="#6A5D53"/>
<path d="M320.503 157.109C320.172 157.907 317.68 157.648 317.043 157.762C314.992 158.132 313.043 158.82 311.488 160.064C310.797 160.617 310.278 161.311 309.614 161.877C309.204 162.226 308.61 162.634 307.967 162.466C306.105 161.973 308.858 158.805 309.277 158.452C311.311 156.756 313.997 155.967 316.866 155.679C317.517 155.615 320.315 155.821 320.522 156.778C320.551 156.906 320.544 157.015 320.503 157.109ZM322.725 157.185C321.249 154.131 317.37 154.334 315.164 154.621C311.576 155.091 308.537 157.096 306.571 160.314C305.727 161.694 305.265 163.495 306.606 165.077C307.715 166.386 309.553 166.795 310.943 167.116C314.672 167.976 319.137 166.756 321.457 163.747C322.656 162.188 323.87 159.552 322.725 157.185Z" fill="#0D0D0D"/>
<path d="M313.781 166.664C312.927 166.702 312.06 166.632 311.211 166.456C309.877 166.178 308.478 165.852 307.244 164.996C305.333 163.673 306.192 161.553 307.042 160.18C307.538 159.378 308.064 158.621 308.708 157.979C310.338 156.663 312.086 155.602 314.217 155.251C316.382 154.893 320.528 154.34 322.005 157.436C323.042 159.612 321.525 162.122 320.451 163.453C318.819 165.474 316.347 166.551 313.781 166.664ZM322.458 157.068C320.984 154.009 317.104 154.217 314.9 154.502C311.311 154.978 308.269 156.975 306.306 160.192C305.464 161.575 305.002 163.376 306.343 164.958C307.453 166.271 309.291 166.68 310.68 166.998C314.409 167.857 318.872 166.634 321.192 163.625C322.396 162.068 323.606 159.434 322.46 157.063L322.458 157.068Z" fill="#0D0D0D"/>
<path d="M317.738 156.769C313.665 157.148 312.452 157.833 310.234 159.474C308.544 160.725 309.283 161.109 309.645 160.986C310.35 160.746 311.949 159.935 313.928 159.095C315.962 158.234 317.488 157.797 317.844 157.677C319.264 157.204 318.157 156.729 317.738 156.769Z" fill="white"/>
<path d="M319.112 171.449C319.117 171.561 319.131 171.669 319.13 171.78C319.127 173.178 318.797 174.593 318.174 175.674C317.838 176.252 317.435 176.742 316.98 177.153C317.78 178.602 318.384 180.158 318.734 181.889C319.325 184.797 319.66 187.627 322.099 189.565C325.303 192.109 329.308 191.144 331.149 188.172C332.301 186.521 332.496 184.086 331.472 181.676C330.75 179.981 329.614 178.531 328.576 177.067C327.714 175.852 327.032 174.576 326.467 173.231C325.099 173.364 323.682 173.518 322.265 173.219C321.226 172.997 319.899 172.506 319.114 171.453L319.112 171.449Z" fill="#FF00FF"/>
<path d="M330.943 183.527C331.735 187.406 328.442 190.188 325.389 190.03C323.805 189.946 322.215 189.097 321.169 187.472C320.533 186.477 319.298 183.53 318.956 180.905C318.608 178.291 318.067 177.39 319.453 176.423C320.277 175.847 320.884 176.985 321.239 177.844C322.591 181.105 324.273 185.77 326.838 187.41C325.186 185.383 321.814 179.073 322.573 176.505C322.785 175.789 323.311 175.359 323.957 175.183C324.51 175.034 325.307 174.919 325.863 175.427C326.744 176.238 327.054 177.54 327.874 178.446C329.178 179.891 330.534 181.499 330.949 183.524L330.943 183.527ZM331.484 181.517C330.763 179.821 329.616 178.371 328.568 176.903C327.699 175.689 327.013 174.41 326.447 173.062C325.052 173.206 323.61 173.374 322.167 173.081C321.109 172.864 319.761 172.381 318.969 171.327C318.974 171.44 318.987 171.549 318.985 171.66C318.971 173.066 318.625 174.49 317.982 175.582C317.637 176.166 317.222 176.661 316.753 177.079C317.558 178.529 318.163 180.093 318.506 181.827C319.086 184.747 319.408 187.589 321.878 189.521C325.126 192.058 329.213 191.06 331.107 188.054C332.293 186.386 332.509 183.937 331.48 181.523L331.484 181.517Z" fill="#991E0A"/>
<path d="M318.219 180.625C318.223 180.572 318.224 180.52 318.226 180.469C318.227 180.464 318.233 180.462 318.233 180.453C318.004 179.595 317.846 178.734 318.02 177.954C318.4 176.277 319.558 175.139 319.956 173.467C319.988 173.321 320.166 173.345 320.246 173.458C321.147 174.745 322.723 174.836 323.897 174.734C324.715 174.66 325.911 174.005 326.767 174.636C327.183 174.947 327.487 175.369 327.829 175.767C327.299 174.9 326.844 174 326.452 173.065C325.057 173.208 323.615 173.377 322.172 173.083C321.114 172.867 319.766 172.383 318.974 171.33C318.978 171.442 318.992 171.551 318.989 171.662C318.976 173.068 318.629 174.492 317.987 175.584C317.642 176.168 317.227 176.663 316.76 177.08C317.375 178.189 317.872 179.364 318.225 180.631L318.219 180.625Z" fill="#991E0A"/>
<path d="M319.321 184.385C318.823 182.553 318.649 180.593 318.102 178.843C317.867 178.088 317.538 177.375 317.145 176.695C317.02 176.83 316.89 176.955 316.754 177.073C317.559 178.524 318.165 180.088 318.507 181.822C319.054 184.578 319.375 187.255 321.476 189.17C320.295 187.799 319.617 186.148 319.321 184.385Z" fill="#991E0A"/>
<path d="M331.484 181.516C330.763 179.821 329.616 178.371 328.568 176.903C327.698 175.688 327.013 174.41 326.447 173.062C326.308 173.08 326.166 173.092 326.023 173.108C326.295 173.901 326.62 174.675 327.002 175.416C327.678 176.711 328.583 177.843 329.411 179.025C329.979 179.684 330.428 180.485 330.8 181.319C331.051 181.837 331.267 182.371 331.42 182.915C332.015 184.751 331.647 186.401 330.877 187.887C330.514 188.594 330.043 189.22 329.503 189.757C330.122 189.299 330.67 188.725 331.103 188.043C332.288 186.375 332.504 183.926 331.478 181.511L331.484 181.516Z" fill="#991E0A"/>
<path d="M321.071 176.717C322.194 179.76 323.625 182.969 325.374 185.688C325.413 185.747 325.499 185.692 325.464 185.627C323.96 183.001 322.824 180.07 321.773 177.229C321.204 175.704 320.718 174.156 320.31 172.582C320.295 172.525 320.276 172.465 320.263 172.403C320.007 172.265 319.761 172.101 319.538 171.91C319.574 172.03 319.616 172.152 319.65 172.26C320.11 173.756 320.529 175.244 321.072 176.721L321.071 176.717Z" fill="#991E0A"/>
<path d="M329.599 185.195C328.657 185.872 328.005 186.862 326.959 187.417C325.903 187.981 324.56 188.228 323.281 187.408C323.132 187.31 323.024 187.538 323.142 187.689C325.339 190.534 330.176 188.929 329.762 185.309C329.748 185.205 329.666 185.148 329.601 185.194L329.599 185.195Z" fill="#FFF3F6"/>
<path d="M330.345 183.021C330.345 183.021 330.338 183.012 330.334 183.01C329.862 182.664 329.682 184.357 330.165 184.847C330.66 185.355 330.879 183.449 330.347 183.02L330.345 183.021Z" fill="#FFF3F6"/>
<path d="M268.262 116.675C269.45 115.596 272.073 116.707 273.445 117.306C276.189 118.499 278.14 119.538 280.5 120.835C281.664 121.475 282.819 122.164 283.994 122.743C284.821 123.151 285.499 123.326 286.137 123.177C282.064 120.017 278.225 118.382 273.712 116.769C271.687 116.043 267.395 114.426 267.804 117.625C267.918 117.238 268.027 116.887 268.265 116.674L268.262 116.675Z" fill="url(#paint19_linear_55_2680)"/>
<path d="M312.842 96.2647C310.263 98.0266 308.225 101.289 306.836 104.346C305.473 107.357 304.456 111.041 304.967 114.808C304.977 114.903 305.107 114.924 305.125 114.839C305.652 111.121 306.463 107.753 307.95 104.545C308.603 103.13 309.32 101.77 310.077 100.444C310.918 98.9646 313.476 96.4694 314.445 95.1249C314.516 95.0285 312.942 96.1948 312.847 96.2622L312.842 96.2647Z" fill="url(#paint20_linear_55_2680)"/>
<path d="M285.757 126.069C285.757 126.069 288.502 120.81 295.429 117.749C302.356 114.689 306.586 116.096 307.78 116.236C307.78 116.236 294.488 116.197 285.757 126.069Z" fill="url(#paint21_linear_55_2680)"/>
<path d="M319.245 118.902C312.654 121.785 310.216 130.76 313.799 138.951C315.413 142.641 317.971 145.539 320.9 147.347C323.702 149.078 326.841 149.814 329.81 149.287C330.63 149.14 331.437 148.902 332.22 148.56C338.811 145.676 341.249 136.701 337.666 128.51C334.083 120.319 325.837 116.018 319.245 118.902Z" fill="url(#paint22_linear_55_2680)" fill-opacity="0.65"/>
<path fill-rule="evenodd" clip-rule="evenodd" d="M297.867 163.261C300.269 161.438 301.86 158.637 302.491 155.404C303.149 152.023 302.757 148.177 301.143 144.487C297.56 136.297 289.314 131.995 282.722 134.879C276.131 137.762 273.693 146.738 277.276 154.928C280.859 163.119 289.105 167.42 295.697 164.537C296.479 164.195 297.202 163.764 297.867 163.261ZM295.891 136.146C298.174 137.91 300.171 140.325 301.603 143.243L301.595 143.242C301.737 143.527 301.871 143.817 301.999 144.109C303.535 147.62 304.037 151.266 303.638 154.576C303.124 158.827 301.117 162.526 297.887 164.665C297.347 165.024 296.772 165.339 296.161 165.607C291.43 167.676 285.901 166.293 281.612 162.514C279.497 160.652 277.683 158.208 276.414 155.306C274.214 150.277 274.131 144.976 275.788 140.78C277.026 137.647 279.285 135.106 282.254 133.807C285.223 132.508 288.507 132.569 291.603 133.731C292.852 134.2 294.073 134.848 295.227 135.657C295.324 135.471 295.422 135.264 295.516 135.035C295.603 134.819 295.693 134.588 295.773 134.333C295.811 134.202 295.87 134.087 295.942 133.979C296.006 133.878 296.058 133.766 296.112 133.651L296.112 133.651L296.13 133.612C296.373 133.099 296.606 132.509 296.853 131.87C296.909 131.728 296.965 131.582 297.022 131.434C297.219 130.923 297.428 130.384 297.668 129.838C297.821 129.487 297.992 129.128 298.188 128.779C298.242 128.692 298.294 128.601 298.347 128.51L298.347 128.51C298.372 128.471 298.398 128.432 298.423 128.392L298.423 128.392L298.423 128.392C298.448 128.352 298.474 128.312 298.499 128.274L298.666 128.023C298.704 127.964 298.745 127.911 298.785 127.858C298.806 127.832 298.826 127.805 298.846 127.778C299.088 127.456 299.346 127.157 299.631 126.879C299.77 126.738 299.922 126.608 300.085 126.473C300.177 126.403 300.273 126.335 300.37 126.267L300.37 126.267C300.413 126.24 300.449 126.22 300.49 126.198L300.55 126.163L300.58 126.146L300.594 126.14L300.603 126.136L300.64 126.119L301.231 127.469L301.205 127.48L301.145 127.515C301.132 127.522 301.119 127.529 301.105 127.536C301.079 127.549 301.052 127.563 301.029 127.579C300.98 127.621 300.926 127.662 300.873 127.698L300.862 127.707C300.747 127.803 300.621 127.908 300.505 128.028C300.261 128.267 300.03 128.533 299.823 128.81C299.805 128.836 299.785 128.862 299.764 128.888L299.764 128.888L299.764 128.888L299.764 128.888C299.732 128.931 299.699 128.973 299.671 129.017L299.527 129.233L299.481 129.305L299.481 129.305C299.447 129.36 299.412 129.415 299.377 129.468C299.357 129.504 299.336 129.54 299.315 129.576C299.294 129.612 299.273 129.647 299.253 129.684C299.082 129.988 298.927 130.314 298.783 130.64C298.538 131.198 298.319 131.768 298.107 132.324L298.107 132.324L298.106 132.324C298.069 132.423 298.031 132.521 297.993 132.619C297.745 133.262 297.497 133.88 297.236 134.44C297.206 134.507 297.173 134.573 297.142 134.638L297.142 134.638L297.142 134.638C297.107 134.71 297.072 134.78 297.041 134.852C297.031 134.874 297.021 134.896 297.012 134.918L297.012 134.918L297.012 134.918C296.992 134.965 296.972 135.011 296.948 135.053C296.914 135.115 296.869 135.169 296.824 135.222C296.647 135.435 296.469 135.628 296.294 135.798C296.157 135.928 296.022 136.043 295.891 136.146ZM332.221 148.563C331.439 148.905 330.632 149.144 329.811 149.29C326.84 149.818 323.701 149.083 320.901 147.35C317.972 145.539 315.413 142.64 313.8 138.954C310.217 130.764 312.655 121.788 319.247 118.905C325.838 116.021 334.084 120.322 337.667 128.513C341.251 136.704 338.813 145.679 332.221 148.563ZM328.284 117.819C325.143 116.601 321.798 116.511 318.778 117.833C315.757 119.154 313.628 121.584 312.377 124.642C311.872 125.878 311.522 127.21 311.332 128.608C311.129 128.554 310.911 128.484 310.678 128.398C310.461 128.315 310.23 128.225 309.989 128.11C309.868 128.053 309.742 128.023 309.614 128.002C309.497 127.981 309.378 127.943 309.257 127.905L309.217 127.892C308.675 127.722 308.083 127.493 307.447 127.241C307.351 127.202 307.253 127.164 307.155 127.125L307.152 127.123C306.602 126.904 306.018 126.672 305.401 126.459C305.036 126.335 304.661 126.219 304.271 126.123C304.173 126.102 304.075 126.081 303.975 126.056C303.925 126.047 303.875 126.038 303.825 126.029L303.825 126.029C303.775 126.02 303.725 126.011 303.675 126.001L303.399 125.956C303.355 125.95 303.304 125.943 303.25 125.937L303.093 125.921L302.936 125.905L302.789 125.897L302.493 125.882L302.444 125.882L302.444 125.882C302.262 125.88 302.081 125.878 301.898 125.888C301.699 125.894 301.498 125.918 301.294 125.944L300.982 126.004C300.873 126.035 300.764 126.075 300.657 126.113L300.649 126.116L301.238 127.462L301.246 127.458C301.276 127.45 301.306 127.44 301.336 127.43C301.363 127.421 301.391 127.412 301.42 127.403L301.647 127.359L301.647 127.359L301.647 127.359C301.809 127.34 301.971 127.32 302.143 127.316C302.29 127.307 302.44 127.309 302.589 127.31L302.66 127.311L302.922 127.324L303.051 127.331L303.173 127.345L303.296 127.359L303.323 127.362L303.323 127.362C303.354 127.365 303.388 127.368 303.425 127.375L303.704 127.418L303.957 127.465C304.043 127.482 304.126 127.501 304.211 127.523C304.55 127.604 304.893 127.709 305.232 127.828C305.808 128.026 306.375 128.252 306.928 128.473L306.928 128.473C307.026 128.513 307.124 128.552 307.222 128.591C307.866 128.847 308.486 129.085 309.072 129.27C309.119 129.285 309.166 129.299 309.212 129.313L309.212 129.313L309.212 129.313L309.213 129.313C309.312 129.342 309.41 129.371 309.505 129.408C309.647 129.46 309.786 129.505 309.924 129.509C310.201 129.523 310.463 129.523 310.707 129.51C310.895 129.498 311.073 129.477 311.238 129.451C310.985 132.317 311.403 135.413 312.571 138.44C312.685 138.738 312.808 139.036 312.939 139.335C314.475 142.847 316.812 145.69 319.512 147.64C322.987 150.15 327.065 151.184 330.827 150.263C331.46 150.109 332.083 149.901 332.69 149.635C337.422 147.565 340.157 142.563 340.294 136.851C340.362 134.034 339.797 131.04 338.529 128.141C336.329 123.112 332.492 119.453 328.286 117.823L328.284 117.819Z" fill="#0D0D0D"/>
<path d="M282.722 134.879C276.131 137.763 273.693 146.738 277.276 154.929C280.859 163.12 289.105 167.421 295.697 164.537C296.479 164.195 297.202 163.764 297.867 163.261C300.268 161.438 301.858 158.634 302.491 155.404C303.149 152.023 302.757 148.177 301.143 144.488C297.56 136.297 289.314 131.996 282.722 134.879Z" fill="url(#paint23_linear_55_2680)" fill-opacity="0.65"/>
<defs>
<linearGradient id="paint0_linear_55_2680" x1="0.335051" y1="268.131" x2="512.213" y2="268.131" gradientUnits="userSpaceOnUse">
<stop stop-color="#BCBEFF"/>
<stop offset="0.15" stop-color="#A2A6F5"/>
<stop offset="0.39" stop-color="#8188E8"/>
<stop offset="0.61" stop-color="#6A72DE"/>
<stop offset="0.82" stop-color="#5B65D8"/>
<stop offset="1" stop-color="#5761D7"/>
</linearGradient>
<linearGradient id="paint1_linear_55_2680" x1="23.4994" y1="102.07" x2="512.302" y2="204.715" gradientUnits="userSpaceOnUse">
<stop stop-color="#4D3CB8"/>
<stop offset="1" stop-color="#FF23CF"/>
</linearGradient>
<linearGradient id="paint2_linear_55_2680" x1="327.575" y1="340.531" x2="184.741" y2="150.917" gradientUnits="userSpaceOnUse">
<stop stop-color="#42E8E0"/>
<stop offset="0.11" stop-color="#36B5BF"/>
<stop offset="0.22" stop-color="#2C87A0"/>
<stop offset="0.34" stop-color="#235F86"/>
<stop offset="0.46" stop-color="#1B3E71"/>
<stop offset="0.58" stop-color="#162560"/>
<stop offset="0.71" stop-color="#121355"/>
<stop offset="0.85" stop-color="#0F084E"/>
<stop offset="1" stop-color="#0F054C"/>
</linearGradient>
<linearGradient id="paint3_linear_55_2680" x1="29.1781" y1="101.743" x2="505.72" y2="201.823" gradientUnits="userSpaceOnUse">
<stop stop-color="#4D3CB8"/>
<stop offset="1" stop-color="#FF23CF"/>
</linearGradient>
<linearGradient id="paint4_linear_55_2680" x1="480.773" y1="393.611" x2="552.725" y2="435.161" gradientUnits="userSpaceOnUse">
<stop stop-color="#BCBEFF"/>
<stop offset="0.23" stop-color="#AAADF7"/>
<stop offset="0.68" stop-color="#7B82E5"/>
<stop offset="1" stop-color="#5761D7"/>
</linearGradient>
<linearGradient id="paint5_linear_55_2680" x1="471.745" y1="409.318" x2="562.433" y2="409.318" gradientUnits="userSpaceOnUse">
<stop stop-color="#E9E9FD"/>
<stop offset="0.36" stop-color="#D2D2F9"/>
<stop offset="0.71" stop-color="#C4C3F6"/>
<stop offset="1" stop-color="#C0BFF6"/>
</linearGradient>
<linearGradient id="paint6_linear_55_2680" x1="480.773" y1="340.654" x2="552.725" y2="382.222" gradientUnits="userSpaceOnUse">
<stop stop-color="#BCBEFF"/>
<stop offset="0.23" stop-color="#AAADF7"/>
<stop offset="0.68" stop-color="#7B82E5"/>
<stop offset="1" stop-color="#5761D7"/>
</linearGradient>
<linearGradient id="paint7_linear_55_2680" x1="471.745" y1="356.362" x2="562.433" y2="356.362" gradientUnits="userSpaceOnUse">
<stop stop-color="#E9E9FD"/>
<stop offset="0.36" stop-color="#D2D2F9"/>
<stop offset="0.71" stop-color="#C4C3F6"/>
<stop offset="1" stop-color="#C0BFF6"/>
</linearGradient>
<linearGradient id="paint8_linear_55_2680" x1="325.476" y1="440.591" x2="397.428" y2="482.158" gradientUnits="userSpaceOnUse">
<stop stop-color="#BCBEFF"/>
<stop offset="0.23" stop-color="#AAADF7"/>
<stop offset="0.68" stop-color="#7B82E5"/>
<stop offset="1" stop-color="#5761D7"/>
</linearGradient>
<linearGradient id="paint9_linear_55_2680" x1="316.448" y1="456.298" x2="407.154" y2="456.298" gradientUnits="userSpaceOnUse">
<stop stop-color="#E9E9FD"/>
<stop offset="0.36" stop-color="#D2D2F9"/>
<stop offset="0.71" stop-color="#C4C3F6"/>
<stop offset="1" stop-color="#C0BFF6"/>
</linearGradient>
<linearGradient id="paint10_linear_55_2680" x1="325.476" y1="383.809" x2="397.428" y2="425.359" gradientUnits="userSpaceOnUse">
<stop stop-color="#BCBEFF"/>
<stop offset="0.23" stop-color="#AAADF7"/>
<stop offset="0.68" stop-color="#7B82E5"/>
<stop offset="1" stop-color="#5761D7"/>
</linearGradient>
<linearGradient id="paint11_linear_55_2680" x1="316.448" y1="399.499" x2="407.154" y2="399.499" gradientUnits="userSpaceOnUse">
<stop stop-color="#E9E9FD"/>
<stop offset="0.36" stop-color="#D2D2F9"/>
<stop offset="0.71" stop-color="#C4C3F6"/>
<stop offset="1" stop-color="#C0BFF6"/>
</linearGradient>
<linearGradient id="paint12_linear_55_2680" x1="27.1732" y1="160.332" x2="99.1251" y2="201.882" gradientUnits="userSpaceOnUse">
<stop stop-color="#BCBEFF"/>
<stop offset="0.23" stop-color="#AAADF7"/>
<stop offset="0.68" stop-color="#7B82E5"/>
<stop offset="1" stop-color="#5761D7"/>
</linearGradient>
<linearGradient id="paint13_linear_55_2680" x1="18.145" y1="176.039" x2="108.851" y2="176.039" gradientUnits="userSpaceOnUse">
<stop stop-color="#E9E9FD"/>
<stop offset="0.36" stop-color="#D2D2F9"/>
<stop offset="0.71" stop-color="#C4C3F6"/>
<stop offset="1" stop-color="#C0BFF6"/>
</linearGradient>
<linearGradient id="paint14_linear_55_2680" x1="27.1731" y1="108.698" x2="99.125" y2="150.247" gradientUnits="userSpaceOnUse">
<stop stop-color="#BCBEFF"/>
<stop offset="0.23" stop-color="#AAADF7"/>
<stop offset="0.68" stop-color="#7B82E5"/>
<stop offset="1" stop-color="#5761D7"/>
</linearGradient>
<linearGradient id="paint15_linear_55_2680" x1="31.4932" y1="105.912" x2="95.6523" y2="142.965" gradientUnits="userSpaceOnUse">
<stop offset="0.24" stop-color="#5761D7"/>
<stop offset="0.39" stop-color="#7A81E5"/>
<stop offset="0.55" stop-color="#979BF0"/>
<stop offset="0.7" stop-color="#ABAEF8"/>
<stop offset="0.85" stop-color="#B7BAFD"/>
<stop offset="1" stop-color="#BCBEFF"/>
</linearGradient>
<linearGradient id="paint16_linear_55_2680" x1="18.1448" y1="124.405" x2="108.851" y2="124.405" gradientUnits="userSpaceOnUse">
<stop stop-color="#E9E9FD"/>
<stop offset="0.36" stop-color="#D2D2F9"/>
<stop offset="0.71" stop-color="#C4C3F6"/>
<stop offset="1" stop-color="#C0BFF6"/>
</linearGradient>
<linearGradient id="paint17_linear_55_2680" x1="19.5378" y1="124.405" x2="107.458" y2="124.405" gradientUnits="userSpaceOnUse">
<stop stop-color="#E9E9FD"/>
<stop offset="0.36" stop-color="#D2D2F9"/>
<stop offset="0.71" stop-color="#C4C3F6"/>
<stop offset="1" stop-color="#C0BFF6"/>
</linearGradient>
<linearGradient id="paint18_linear_55_2680" x1="63.4977" y1="146.476" x2="63.4977" y2="0" gradientUnits="userSpaceOnUse">
<stop stop-color="#42E8E0"/>
<stop offset="0.11" stop-color="#36B5BF"/>
<stop offset="0.22" stop-color="#2C87A0"/>
<stop offset="0.34" stop-color="#235F86"/>
<stop offset="0.46" stop-color="#1B3E71"/>
<stop offset="0.58" stop-color="#162560"/>
<stop offset="0.71" stop-color="#121355"/>
<stop offset="0.85" stop-color="#0F084E"/>
<stop offset="1" stop-color="#0F054C"/>
</linearGradient>
<linearGradient id="paint19_linear_55_2680" x1="267.886" y1="116.168" x2="281.716" y2="112.123" gradientUnits="userSpaceOnUse">
<stop stop-color="#4D3CB8"/>
<stop offset="1" stop-color="#FF23CF"/>
</linearGradient>
<linearGradient id="paint20_linear_55_2680" x1="299.942" y1="101.463" x2="315.707" y2="97.0435" gradientUnits="userSpaceOnUse">
<stop stop-color="#4D3CB8"/>
<stop offset="1" stop-color="#FF23CF"/>
</linearGradient>
<linearGradient id="paint21_linear_55_2680" x1="285.255" y1="122.2" x2="303.622" y2="126.895" gradientUnits="userSpaceOnUse">
<stop stop-color="#4D3CB8"/>
<stop offset="1" stop-color="#FF23CF"/>
</linearGradient>
<linearGradient id="paint22_linear_55_2680" x1="308.391" y1="123.65" x2="332.969" y2="115.637" gradientUnits="userSpaceOnUse">
<stop stop-color="#4D3CB8"/>
<stop offset="1" stop-color="#FF23CF"/>
</linearGradient>
<linearGradient id="paint23_linear_55_2680" x1="271.868" y1="139.627" x2="296.447" y2="131.615" gradientUnits="userSpaceOnUse">
<stop stop-color="#4D3CB8"/>
<stop offset="1" stop-color="#FF23CF"/>
</linearGradient>
</defs>
</svg>
