<svg width="381" height="313" viewBox="0 0 381 313" fill="none" xmlns="http://www.w3.org/2000/svg">
<path d="M359.008 272.422C355.939 272.422 353.016 273.221 350.251 274.829C347.497 276.438 345.342 278.582 343.786 281.305C342.241 284.028 341.463 287.055 341.463 290.398C341.463 295.339 343.177 299.512 346.604 302.908C350.031 306.314 354.162 308.017 358.998 308.017C362.236 308.017 365.221 307.239 367.965 305.673C370.719 304.106 372.864 301.962 374.398 299.249C375.933 296.537 376.711 293.52 376.711 290.198C376.711 286.876 375.933 283.912 374.398 281.242C372.864 278.572 370.688 276.438 367.902 274.84C365.105 273.231 362.141 272.432 359.008 272.432V272.422Z" fill="white"/>
<path d="M358.819 268.364C365.116 268.364 370.393 270.466 374.63 274.671C378.866 278.876 381 284.048 381 290.198C381 296.348 378.887 301.457 374.651 305.704C370.414 309.94 365.253 312.074 359.155 312.074C353.058 312.074 347.781 309.961 343.544 305.736C339.308 301.51 337.174 296.401 337.174 290.408C337.174 286.414 338.141 282.713 340.075 279.286C342.01 275.88 344.648 273.2 347.991 271.265C351.324 269.331 354.94 268.364 358.819 268.364Z" fill="#FC23CE"/>
<path d="M307.96 269.405H331.781V273.463H312.133V286.498H331.613V290.556H312.133V306.965H331.613V311.023H307.96V269.405Z" fill="white"/>
<path d="M299.561 277.079L296.281 279.602C294.473 277.247 292.297 275.46 289.763 274.24C287.23 273.021 284.454 272.411 281.406 272.411C278.094 272.411 275.025 273.21 272.186 274.808C269.359 276.406 267.172 278.551 265.616 281.231C264.06 283.912 263.282 286.95 263.282 290.303C263.282 295.381 265.017 299.628 268.497 303.013C271.976 306.408 276.36 308.111 281.658 308.111C287.482 308.111 292.349 305.83 296.27 301.268L299.55 303.759C297.469 306.398 294.883 308.448 291.781 309.888C288.68 311.328 285.211 312.053 281.385 312.053C274.1 312.053 268.349 309.625 264.155 304.779C260.633 300.69 258.857 295.749 258.857 289.956C258.857 283.87 260.991 278.74 265.259 274.587C269.537 270.424 274.888 268.343 281.322 268.343C285.201 268.343 288.712 269.11 291.845 270.635C294.977 272.17 297.542 274.314 299.54 277.068L299.561 277.079Z" fill="white"/>
<path d="M231.924 280.243H235.866V311.023H231.924V280.243Z" fill="white"/>
<path d="M233.879 267.607C234.773 267.607 235.54 267.923 236.181 268.574C236.823 269.216 237.138 269.993 237.138 270.898C237.138 271.802 236.823 272.559 236.181 273.2C235.54 273.852 234.783 274.167 233.879 274.167C232.975 274.167 232.239 273.852 231.598 273.2C230.957 272.559 230.641 271.791 230.641 270.898C230.641 270.004 230.957 269.216 231.598 268.574C232.239 267.923 232.985 267.607 233.879 267.607Z" fill="white"/>
<path d="M203.404 268.364H207.346V292.679L221.717 280.243H227.456L210.521 294.908L228.445 311.023H222.831L207.346 297.094V311.023H203.404V268.364Z" fill="white"/>
<path d="M180.035 283.376C176.745 283.376 173.917 284.585 171.552 287.003C169.186 289.431 168.009 292.364 168.009 295.801C168.009 298.009 168.545 300.08 169.617 302.004C170.7 303.917 172.161 305.399 173.99 306.44C175.82 307.481 177.838 308.006 180.025 308.006C182.211 308.006 184.24 307.481 186.059 306.44C187.898 305.399 189.349 303.917 190.432 302.004C191.504 300.08 192.04 298.009 192.04 295.801C192.04 292.364 190.852 289.431 188.476 287.003C186.111 284.574 183.294 283.376 180.014 283.376H180.035Z" fill="white"/>
<path d="M180.046 279.486C184.787 279.486 188.729 281.2 191.851 284.627C194.689 287.749 196.108 291.449 196.108 295.717C196.108 299.985 194.616 303.759 191.609 306.966C188.613 310.172 184.755 311.78 180.046 311.78C175.336 311.78 171.436 310.172 168.44 306.966C165.433 303.759 163.941 300.006 163.941 295.717C163.941 291.428 165.36 287.781 168.198 284.658C171.32 281.21 175.273 279.486 180.046 279.486Z" fill="#FC23CE"/>
<path d="M153.27 268.364H157.213V311.023H153.27V268.364Z" fill="white"/>
<path d="M126.39 269.405H147.257V273.463H130.564V286.498H147.257V290.556H130.564V311.023H126.39V269.405Z" fill="white"/>
<path d="M80.6088 268.364H84.5509V292.679L98.9213 280.243H104.661L87.7256 294.908L105.649 311.023H100.036L84.5509 297.094V311.023H80.6088V268.364Z" fill="white"/>
<path d="M45.2664 280.243H49.2085V285.762C50.8064 283.66 52.5619 282.083 54.4857 281.053C56.42 280.022 58.5119 279.497 60.7826 279.497C63.0533 279.497 65.1347 280.075 66.9218 281.242C68.709 282.409 70.0335 283.986 70.885 285.962C71.7365 287.928 72.157 291.018 72.157 295.192V311.013H68.2149V296.348C68.2149 292.816 68.0572 290.451 67.7628 289.263C67.2793 287.234 66.3962 285.71 65.0822 284.679C63.7786 283.66 62.0756 283.145 59.9837 283.145C57.5763 283.145 55.4213 283.933 53.5291 285.52C51.6263 287.097 50.3649 289.053 49.7762 291.397C49.3977 292.921 49.2085 295.707 49.2085 299.754V311.023H45.2664V280.243Z" fill="white"/>
<path d="M33.0823 280.243H37.0244V311.023H33.0823V280.243Z" fill="white"/>
<path d="M35.0484 267.607C35.9419 267.607 36.7093 267.923 37.3506 268.574C37.9918 269.216 38.3072 269.993 38.3072 270.898C38.3072 271.802 37.9918 272.559 37.3506 273.2C36.7093 273.852 35.9524 274.167 35.0484 274.167C34.1443 274.167 33.4084 273.852 32.7672 273.2C32.1259 272.559 31.8105 271.791 31.8105 270.898C31.8105 270.004 32.1259 269.216 32.7672 268.574C33.4084 267.923 34.1548 267.607 35.0484 267.607Z" fill="white"/>
<path d="M4.17358 273.463V287.602L11.2274 287.686C14.0762 287.686 16.1682 287.423 17.4822 286.908C18.8068 286.382 19.8475 285.552 20.6044 284.396C21.3613 283.239 21.7398 281.936 21.7398 280.506C21.7398 279.076 21.3613 277.825 20.6044 276.669C19.8475 275.513 18.8489 274.693 17.6084 274.199C16.3679 273.704 14.3496 273.463 11.5322 273.463H4.17358Z" fill="white"/>
<path d="M0 269.405H8.29426C13.0459 269.405 16.2626 269.605 17.9236 270.025C20.2994 270.614 22.2442 271.812 23.7475 273.641C25.2612 275.46 26.0181 277.752 26.0181 280.495C26.0181 283.239 25.2823 285.552 23.8105 287.349C22.3388 289.147 20.3099 290.356 17.7344 290.987C15.8422 291.439 12.3205 291.659 7.14842 291.659H4.17341V311.013H0V269.405Z" fill="#FC23CE"/>
<path d="M101.524 89.6557C100.855 90.1537 100.158 90.6612 99.4608 91.2439C96.9546 93.3302 94.8063 95.7925 92.9031 97.9822C90.6041 100.642 88.5501 103.865 86.628 107.831C85.7329 109.448 85.0262 111.008 84.4892 112.577L83.9333 113.883C83.9333 113.883 83.8956 113.977 83.8767 114.015C83.6129 114.682 83.5093 115.378 83.5375 116.045C83.4056 116.722 83.3114 117.408 83.2454 118.084C83.1512 119.062 83.1324 120.067 83.1795 121.148C83.1795 121.176 83.1795 121.195 83.1795 121.223C83.2454 122.548 83.4339 123.93 83.7354 125.339C83.7448 125.424 83.7637 125.499 83.7825 125.574C83.8013 125.668 83.8296 125.762 83.839 125.8C83.8767 125.969 83.9144 126.129 83.9615 126.298C83.9709 126.345 83.9804 126.392 83.9992 126.448L84.0369 126.599C84.1405 126.993 84.2442 127.388 84.3572 127.764L84.5363 128.365C84.6305 128.666 84.7247 128.958 84.8283 129.258L84.9508 129.625C85.0545 129.935 85.1675 130.245 85.2806 130.555L85.3183 130.668C86.1098 132.829 87.0143 134.888 87.8717 136.805C91.9985 146.062 98.528 155.431 108.431 166.314C117.514 176.295 128.01 184.226 136.141 190.025C142.218 194.367 147.325 197.637 152.196 200.306C154.787 201.725 157.614 203.097 160.855 204.507C161.42 204.751 162.014 204.986 162.608 205.231C163.729 205.682 164.793 206.114 165.717 206.603C166.433 207.326 167.102 207.975 167.761 208.576C167.761 208.586 167.761 208.595 167.761 208.614L167.677 209.121C167.63 209.432 167.582 209.742 167.545 210.052L167.488 210.55C167.45 210.879 167.422 211.208 167.394 211.555C167.385 211.715 167.375 211.875 167.366 211.988C167.347 212.345 167.337 212.702 167.328 213.021C167.328 213.191 167.328 213.35 167.328 213.51C167.328 213.877 167.347 214.234 167.366 214.591C167.366 214.713 167.385 214.835 167.403 215.042C167.432 215.418 167.479 215.794 167.526 216.16C167.545 216.283 167.564 216.405 167.601 216.583C167.667 216.978 167.743 217.363 167.846 217.805L167.931 218.134C168.035 218.538 168.148 218.952 168.289 219.365C168.327 219.478 168.364 219.581 168.393 219.656C168.543 220.089 168.713 220.521 168.892 220.925C168.92 220.981 168.949 221.057 168.986 221.132C169.448 222.156 169.976 223.096 170.588 224.017C174.941 230.483 182.582 234.345 191.034 234.345C192.607 234.345 194.19 234.204 195.736 233.941C195.811 233.932 195.877 233.922 195.952 233.904C196.046 233.885 196.141 233.866 196.235 233.847C196.847 233.734 197.394 233.612 197.903 233.471C197.997 233.443 198.1 233.415 198.232 233.377C198.798 233.227 199.363 233.058 199.881 232.879C200.041 232.823 200.202 232.766 200.352 232.701L200.578 232.616C201.012 232.456 201.445 232.297 201.85 232.118C202.482 231.845 203.104 231.545 203.688 231.225C210.622 227.842 214.994 220.916 215.088 213.125C215.098 212.194 215.06 211.226 214.966 210.23C217.482 208.012 219.686 205.343 221.401 202.449C229.391 200.438 236.919 196.547 244.561 192.403C251.411 188.681 258.129 184.01 264.536 178.513C278.64 166.37 287.789 153.881 291.756 141.382C291.765 141.363 291.784 141.335 291.794 141.316C291.822 141.259 291.85 141.212 291.878 141.156C291.982 140.949 292.067 140.742 292.142 140.517C292.613 139.079 293.075 137.632 293.537 136.194L293.574 136.091C293.574 136.091 293.593 136.015 293.612 135.978C294.036 134.643 294.432 133.299 294.827 131.927L294.875 131.768C295.138 130.837 295.393 129.907 295.619 129.033C295.619 129.014 295.638 128.948 295.647 128.929C295.666 128.873 295.675 128.807 295.694 128.741C295.92 127.83 296.156 126.918 296.354 125.997L296.589 124.916C297.183 122.238 297.795 119.466 297.843 116.421C297.918 112.492 296.344 109.119 294.856 106.252C291.36 99.514 286.046 94.7211 280.911 90.088C279.696 88.9884 278.48 87.8983 277.359 86.8363C277.218 86.6953 277.057 86.545 276.944 86.4416C275.352 84.9191 274.014 83.5283 272.846 82.1562C272.573 81.846 272.309 81.5265 272.064 81.2258C272.026 81.1788 271.979 81.1224 271.941 81.0754C272.478 79.3086 273.034 77.523 273.581 75.8032C275.361 70.1551 277.199 64.3096 278.367 58.1728C279.95 49.7993 280.647 41.2566 280.431 32.761C280.346 29.3871 280.054 26.0133 279.78 22.7616L279.573 20.3182C279.225 16.0704 278.829 12.2454 277.557 8.49567C277.529 8.42049 277.51 8.34531 277.481 8.26073C277.481 8.25133 277.481 8.24193 277.472 8.22313L277.274 7.4807L277.246 7.37733L277.123 6.94502C277.076 6.76647 277.02 6.58791 276.954 6.39055L276.888 6.1838C276.803 5.93006 276.709 5.67631 276.633 5.47896C276.615 5.41317 276.586 5.34739 276.558 5.291C276.445 5.01846 276.332 4.75532 276.2 4.50158C276.181 4.46399 276.162 4.4264 276.144 4.3888C275.974 4.05048 275.767 3.71216 275.54 3.39263C275.522 3.36444 275.493 3.32685 275.484 3.30805C274.334 1.69162 272.931 0.977378 271.941 0.657851C270.877 0.319528 269.727 0.169162 268.521 0.216151C267.466 0.0751829 266.373 0 265.27 0C260.559 0 255.98 1.3345 252.117 2.6314C245.757 4.78351 240.038 7.96939 235.761 10.5162C230.277 13.7773 225.236 17.6492 220.779 22.0286C217.51 25.2333 213.92 28.983 211.018 33.2309C205.176 31.605 198.459 30.8062 190.61 30.8062C189.215 30.8062 187.746 30.8344 186.238 30.8814C180.227 31.0694 174.084 31.887 167.997 33.2966C165.576 33.8605 163.305 34.509 161.194 35.242C160.959 34.9131 160.723 34.5748 160.488 34.2458C158.33 31.1821 156.106 28.015 153.468 25.0641C149.728 20.8821 145.686 17.0101 141.446 13.5611C138.261 10.9673 134.878 8.7964 131.6 6.69128C130.686 6.10861 129.781 5.51655 128.867 4.92448C125.796 2.92274 122.196 0.770625 118.013 0.357119C116.307 -0.0939787 114.574 0.0563872 112.944 0.780023C109.571 2.28368 108.035 6.04283 107.008 8.53326C106.904 8.7964 106.801 9.04075 106.706 9.2663C106.631 9.40727 106.565 9.55763 106.509 9.708C103.088 17.2169 100.789 25.7878 99.6681 35.195C98.7259 43.0704 98.7259 50.8143 99.6681 58.201L99.7718 58.9622C99.8848 59.808 100.017 60.6444 100.158 61.4809C100.224 61.8662 100.29 62.2515 100.365 62.6462C100.478 63.257 100.601 63.8773 100.723 64.4694C100.836 65.0145 100.959 65.5595 101.081 66.114C101.176 66.4993 101.26 66.894 101.364 67.2793C101.553 68.0218 101.75 68.7642 101.958 69.4878C102.042 69.7886 102.127 70.0893 102.24 70.4558C102.466 71.2076 102.702 71.9595 102.966 72.7207L103.211 73.4068C103.465 74.1398 103.738 74.8728 104.031 75.6059L104.266 76.1979C104.605 77.0249 104.963 77.8425 105.34 78.6602L105.613 79.2522C106.019 80.1074 106.433 80.925 106.848 81.7051L107.093 82.1468C107.168 82.2783 107.234 82.4099 107.309 82.5321C106.386 84.2425 105.613 85.5676 104.813 86.7799C104.153 87.7949 102.947 88.6877 101.553 89.7214L101.524 89.6557Z" fill="white"/>
<path d="M293.308 116.435C293.364 113.576 292.12 110.933 290.829 108.441C285.315 97.8232 274.185 92.1239 267.324 82.5968C267.116 82.3147 266.928 82.0232 266.73 81.7316C266.937 81.6282 267.107 81.4401 267.192 81.1673C269.539 73.2109 272.347 65.5554 273.893 57.3826C275.41 49.3322 276.089 41.103 275.881 32.9208C275.778 28.8486 275.372 24.7763 275.043 20.7134C274.75 17.149 274.402 13.3683 273.242 9.95436C272.752 8.47781 272.375 5.56233 270.585 4.98864C269.84 4.75352 269.096 4.7159 268.342 4.77233C263.375 3.97292 258.342 5.32721 253.611 6.92602C248.182 8.76936 243.036 11.4967 238.117 14.4122C232.999 17.4594 228.24 21.099 223.998 25.2653C219.936 29.253 215.808 33.645 213.028 38.6483C204.631 35.6106 195.14 35.1404 186.385 35.4225C180.551 35.6106 174.707 36.41 169.024 37.7267C165.895 38.4508 162.606 39.4289 159.515 40.755C156.386 36.504 153.558 32.0274 150.043 28.0774C146.499 24.1085 142.663 20.4219 138.535 17.0644C134.7 13.9326 130.477 11.4121 126.34 8.70352C123.635 6.93543 120.449 5.01685 117.132 4.81935C116.425 4.56542 115.671 4.50899 114.795 4.90399C112.712 5.83507 111.562 9.54055 110.723 11.3839C107.217 19.0206 105.172 27.3908 104.182 35.7046C102.335 51.2507 104.032 68.7624 112.41 82.3053C112.438 82.3429 112.467 82.3617 112.495 82.3993C111.279 84.7505 110.035 87.0735 108.603 89.2742C107.057 91.6536 104.503 93.0644 102.363 94.8325C100.167 96.657 98.2071 98.9047 96.341 101.049C94.0226 103.739 92.213 106.814 90.6674 110.021C89.904 111.394 89.2348 112.824 88.7353 114.31C88.528 114.799 88.3206 115.288 88.1039 115.786C88.0473 115.927 88.1133 116.04 88.2075 116.097C88.0002 116.924 87.8588 117.761 87.7646 118.636C87.2179 124.222 89.8003 130.11 92.0151 135.085C96.6615 145.496 104.154 155.014 111.788 163.403C119.78 172.187 129.13 179.607 138.78 186.491C143.804 190.075 148.969 193.526 154.388 196.498C157.074 197.975 159.845 199.291 162.653 200.505C164.538 201.323 166.677 202.047 168.506 203.128C169.806 204.473 171.154 205.762 172.596 206.909C176.121 209.693 180.362 211.16 184.707 212.101C189.325 213.107 194.122 213.333 198.835 213.088C201.228 212.966 203.434 212.185 205.479 211.066C211.011 208.8 215.761 203.956 218.419 198.558C218.523 198.558 218.617 198.567 218.721 198.558C227.024 196.78 234.988 192.576 242.405 188.551C249.275 184.817 255.656 180.294 261.584 175.206C272.394 165.895 283.233 153.753 287.549 139.787C287.643 139.599 287.738 139.411 287.832 139.223C289.349 134.568 290.876 129.94 291.913 125.125C292.544 122.229 293.251 119.388 293.308 116.416V116.435Z" fill="#FC23CE"/>
<path d="M222.279 179.36C222.204 179.03 221.949 178.738 221.517 178.729C218.128 178.644 214.739 178.578 211.398 177.891C208.489 177.308 205.675 176.188 202.898 175.143C197.562 173.119 192.149 171.124 186.351 171.99C176.091 173.514 169.493 183.529 158.697 183.784C158.255 183.802 158.151 184.518 158.612 184.574C158.641 184.574 158.659 184.574 158.678 184.574C163.827 188.848 169.597 192.123 175.207 195.756C180.882 199.427 187.368 202.373 194.286 201.931C200.583 201.526 204.96 196.801 209.628 193.168C212.151 191.201 215.012 189.723 217.469 187.643C219.794 185.676 221.517 182.946 222.495 180.075C222.599 179.755 222.486 179.501 222.288 179.341L222.279 179.36Z" fill="#68151A"/>
<path d="M216.198 186.476C213.722 188.659 210.71 190.118 208.112 192.142C203.472 195.756 199.603 199.86 193.372 200.265C186.84 200.689 180.599 197.206 175.253 193.874C170.17 190.702 164.862 187.935 159.826 184.678C169.37 185.139 176.251 176.498 184.957 173.882C191.339 171.971 197.994 175.002 203.849 177.242C209.44 179.379 214.739 180.273 220.65 180.32C219.389 182.579 218.203 184.706 216.198 186.476ZM222.269 179.36C222.194 179.03 221.939 178.738 221.507 178.729C218.118 178.644 214.729 178.578 211.388 177.891C208.48 177.308 205.665 176.188 202.888 175.143C197.552 173.119 192.139 171.124 186.341 171.99C176.081 173.514 169.483 183.529 158.687 183.784C158.235 183.802 158.132 184.518 158.602 184.574C158.631 184.574 158.649 184.574 158.668 184.574C163.817 188.848 169.587 192.123 175.197 195.756C180.872 199.427 187.358 202.373 194.276 201.931C200.573 201.526 204.95 196.801 209.618 193.168C212.141 191.201 215.002 189.723 217.459 187.643C219.784 185.676 221.516 182.946 222.485 180.084C222.589 179.764 222.476 179.51 222.269 179.35V179.36Z" fill="#AC5C1A"/>
<path d="M287.836 138.612C289.061 134.82 290.287 131.029 291.267 127.162C292.606 119.504 291.805 112.008 284.216 107.733C280.907 105.866 277.268 104.814 273.695 103.591C270.612 102.52 267.501 101.487 264.352 100.653C257.404 98.8051 249.56 97.3361 242.716 100.312C242.301 100.492 241.792 100.132 241.943 99.6297C243.847 93.6398 243.659 87.2707 238.153 81.0155C234.665 77.0443 229.14 72.9594 223.748 72.3528C205.619 70.2867 215.961 95.4026 217.874 103.383C217.903 103.468 217.903 103.544 217.884 103.62C218.148 103.819 218.261 104.188 217.922 104.425C216.3 105.553 212.963 107.43 213.679 109.913C214.113 111.429 215.499 112.083 216.517 113.135C218.308 114.974 218.459 117.362 218.006 119.827C217.403 123.106 216.206 126.205 214.952 129.276C213.811 132.062 212.529 142.725 211.256 145.445C210.37 147.331 209.625 141.701 207.495 142.355C204.337 143.341 201.254 141.824 198.275 140.915C193.627 139.483 188.546 138.119 183.662 138.839C182.257 139.047 180.872 139.351 179.486 139.645C179.41 139.834 179.231 139.976 178.967 139.976C178.6 139.967 178.204 139.976 177.808 140.005C175.875 140.403 173.942 140.744 171.953 140.782C171.746 140.782 171.604 140.697 171.529 140.564C169.54 140.621 167.626 140.422 166.07 139.493C161.847 136.962 161.262 130.006 160.65 125.627C159.961 120.566 160.235 116.803 163.129 112.567C164.289 110.87 165.882 109.051 166.438 107.032C167.305 103.857 164.26 102.359 161.8 101.336C161.545 101.222 161.31 100.919 161.451 100.634C164.458 94.379 173.744 76.8547 167.023 71.5851C157.011 63.7281 129.152 79.9729 139.853 96.7769C140.041 97.0896 139.626 97.4498 139.278 97.4498C120.507 97.1749 92.7341 99.6581 87.6904 120.329C87.9261 125.21 90.085 130.186 91.9894 134.479C96.6371 144.971 104.132 154.562 111.768 163.017C119.763 171.869 129.115 179.347 138.768 186.284C143.793 189.895 148.96 193.374 154.38 196.369C157.067 197.857 159.839 199.184 162.648 200.406C164.534 201.231 166.674 201.961 168.503 203.05C169.813 204.406 171.152 205.704 172.594 206.861C176.12 209.666 180.363 211.144 184.709 212.092C189.328 213.106 194.127 213.334 198.84 213.087C201.235 212.964 203.441 212.177 205.487 211.05C211.021 208.766 215.772 203.884 218.431 198.444C218.534 198.444 218.629 198.454 218.732 198.444C227.038 196.653 235.004 192.416 242.414 188.36C249.287 184.597 255.669 180.039 261.599 174.911C272.412 165.528 283.254 153.292 287.572 139.218C287.666 139.029 287.76 138.839 287.855 138.649L287.836 138.612Z" fill="white"/>
<path d="M241.905 155.09C241.905 150.841 241.161 146.489 239.812 142.155C237.98 136.288 235.041 130.801 231.599 125.733C228.233 120.768 224.215 116.193 220.225 111.71C219.081 110.427 217.899 109.163 216.7 107.935C216.179 108.521 215.639 109.097 215.109 109.693C213.872 111.106 212.338 113.012 213.016 115.03C213.509 116.499 214.821 117.671 215.035 119.243C215.295 121.075 215.081 122.609 214.412 124.32C213.379 126.97 213.007 129.843 212.654 132.642C212.031 137.571 211.603 142.518 210.217 147.307C210.143 147.539 209.91 147.688 209.668 147.679C202.376 147.223 195.019 146.405 187.709 146.405C181.236 146.414 174.725 146.916 168.308 145.903C168.67 147.214 169.145 148.246 169.796 148.386C170.484 148.525 170.121 149.557 169.433 149.409C168.242 149.176 167.638 147.335 167.285 145.735C167.098 145.698 166.912 145.68 166.726 145.642C166.047 145.503 166.392 144.489 167.061 144.61C167.005 144.276 166.95 143.987 166.903 143.764C166.029 139.459 165.489 135.088 165.015 130.718C164.624 127.128 164.634 123.436 163.322 120.061C162.597 118.201 161.444 116.034 162.411 114.1C162.969 112.966 164.159 112.352 164.578 111.106C165.21 109.2 165.536 107.554 164.606 105.833C163.229 107.042 161.862 108.27 160.532 109.507C155.752 113.952 151.287 118.685 147.52 124.041C142.916 130.578 138.954 137.887 137.01 145.689C135.848 150.348 135.829 154.988 136.601 159.535C136.713 161.618 137.001 163.692 137.596 165.738C138.657 169.355 140.982 172.535 143.456 175.316C148.367 180.848 154.933 185.154 161.955 187.423C168.084 189.404 174.762 189.143 180.38 185.889C183.44 184.112 186.081 181.323 187.783 178.254C187.914 178.012 188.016 177.752 188.137 177.51C189.039 180.588 192.136 182.931 194.759 184.419C198.544 186.558 202.934 187.581 207.101 188.66C209.473 189.273 211.761 188.976 213.928 188.195C215.36 187.795 216.783 187.293 218.16 186.846C219.722 186.167 221.238 185.433 222.68 184.698C226.847 182.569 230.567 179.593 233.729 176.171C239.431 169.978 241.877 162.706 241.886 155.1L241.905 155.09Z" fill="white"/>
<path d="M235.096 41.3546C234.239 44.0713 233.487 45.2141 236.599 47.0502C239.7 48.8862 252.214 57.7668 256.279 65.7574C260.334 73.7293 264.977 59.4998 266.557 42.9284C268.127 26.3664 268.772 11.0596 262.309 13.9636C255.845 16.8676 239.999 25.8137 235.106 41.3546H235.096Z" fill="white"/>
<path d="M118.425 74.0834C118.425 74.0834 125.89 60.0336 136.843 50.3849C138.945 48.5323 140.17 46.2001 137.805 41.5826C135.439 36.9652 127.106 21.5424 120.244 19.7838C113.382 18.0346 110.856 34.4355 112.251 46.7831C113.627 59.1214 118.425 74.0834 118.425 74.0834Z" fill="white"/>
<path d="M262.386 14.2628C255.618 16.7195 249.359 21.6329 244.427 26.8004C239.316 32.1561 234.252 38.6696 233.894 46.3032C233.875 46.6609 234.374 46.6515 234.468 46.3691C235.795 42.8112 236.821 39.4885 238.826 36.2318C240.709 33.1727 242.93 30.3301 245.33 27.6663C250.319 22.1317 256.08 18.169 262.471 14.4699C262.574 14.4134 262.499 14.2252 262.377 14.2722L262.386 14.2628Z" fill="#AC5C1A"/>
<path d="M269.285 84.7346C268.513 83.8498 267.779 82.9368 267.092 81.9767C266.885 81.6943 266.696 81.4025 266.499 81.1107C266.706 81.0072 266.875 80.8284 266.96 80.546C269.304 72.583 272.108 64.9211 273.652 56.7416C275.168 48.6844 275.845 40.4484 275.638 32.2595C275.638 32.0618 275.619 31.8642 275.61 31.6665C275.384 38.933 274.744 46.1336 272.617 53.0142C272.269 55.0473 271.883 57.071 271.459 59.0947C269.953 66.0506 267.402 72.63 265.36 79.4165C262.602 75.1526 260.267 70.6251 257.434 66.4083C254.159 61.5232 249.82 57.5228 245.236 53.9084C245.113 53.8049 244.944 53.9837 245.066 54.0873C249.208 57.7017 252.841 61.8244 255.825 66.4554C258.978 71.3499 261.576 76.5927 264.786 81.459C266.555 84.1416 267.816 84.2169 269.972 86.4665C269.953 86.4194 274.48 90.2692 274.462 90.2221C274.142 89.3656 269.567 86.2124 269.275 84.744L269.285 84.7346Z" fill="#AC5C1A"/>
<path d="M112.481 81.7884C112.161 82.419 111.822 83.0402 111.483 83.6615C112.142 82.9179 112.791 82.1555 113.394 81.3272C114.57 79.6988 115.747 78.0798 116.971 76.4985C117.112 76.2255 117.253 75.9526 117.385 75.689C120.19 70.4933 123.861 65.9 126.713 60.7513C126.807 60.5819 126.553 60.3842 126.43 60.5442C123.211 64.761 119.503 68.6955 116.886 73.3453C115.681 75.482 114.57 77.6845 113.46 79.8965C111.38 76.3291 109.77 72.5546 108.546 68.6484C106.579 64.4692 105.007 59.9794 103.991 55.3861C104.97 64.714 107.577 73.8724 112.406 81.6943C112.434 81.7319 112.462 81.7507 112.49 81.7884H112.481Z" fill="#AC5C1A"/>
<path d="M284.279 143.516C277.954 154.717 269.784 164.958 260.042 173.448C254.282 178.465 247.938 182.786 241.255 186.485C234.261 190.353 226.872 193.958 219.126 196.029C219.239 195.737 219.352 195.455 219.446 195.163C219.587 194.749 218.984 194.57 218.777 194.909C218.467 195.427 218.137 195.935 217.817 196.434C217.563 196.584 217.431 196.801 217.422 197.055C215.972 199.267 214.419 201.413 212.631 203.352C211.737 204.34 210.777 205.235 209.76 206.082C206.127 207.927 202.851 210.487 198.644 210.816C194.107 211.174 189.429 210.788 184.977 209.95C180.299 209.065 176.016 207.287 172.242 204.378C171.649 203.926 171.074 203.437 170.519 202.938C169.841 202.034 168.975 201.281 168.006 200.622C166.321 198.994 164.683 197.328 162.895 195.794C162.584 195.511 162.151 195.973 162.443 196.274C163.318 197.14 164.156 198.053 165.003 198.975C163.017 198.062 160.928 197.319 159.205 196.5C153.934 193.958 148.974 190.824 144.136 187.558C134.328 180.969 124.821 173.665 116.472 165.288C112.434 161.231 108.603 156.854 105.055 152.251C98.2305 143.385 91.6794 134.96 88.225 124.145C89.025 127.76 90.5875 131.327 92.0088 134.499C96.6492 144.919 104.132 154.444 111.756 162.84C119.738 171.632 129.076 179.058 138.714 185.948C143.731 189.534 148.889 192.989 154.301 195.963C156.984 197.441 159.751 198.759 162.556 199.973C164.439 200.792 166.575 201.517 168.401 202.599C169.71 203.945 171.046 205.235 172.486 206.383C176.007 209.169 180.242 210.637 184.581 211.579C189.194 212.586 193.985 212.812 198.691 212.567C201.082 212.445 203.284 211.663 205.327 210.543C210.852 208.275 215.596 203.427 218.25 198.025C218.354 198.025 218.448 198.034 218.551 198.025C226.844 196.246 234.798 192.038 242.196 188.01C249.058 184.273 255.43 179.745 261.35 174.644C272.147 165.325 282.971 153.183 287.282 139.196C287.376 139.008 287.47 138.819 287.564 138.631C288.035 137.163 288.515 135.704 288.976 134.226C287.546 137.379 285.974 140.457 284.27 143.479L284.279 143.516Z" fill="#AC5C1A"/>
<path d="M138.657 45.6728C138.403 43.0185 136.643 40.3641 135.438 38.0769C133.791 34.9801 131.927 32.0058 129.856 29.1726C127.588 26.0664 117.083 12.6253 114.354 21.9249C114.297 22.132 114.599 22.2261 114.693 22.0567C115.615 20.4095 116.716 19.3835 118.486 19.9859C116.538 21.3225 115.512 24.4851 114.89 26.5088C113.977 29.3985 113.601 33.2953 114.344 36.2508C114.382 36.4014 114.608 36.3638 114.608 36.2038C114.73 33.3894 115.088 30.801 115.907 28.0995C116.387 26.5182 116.961 24.984 117.724 23.5156C118.279 22.4332 119.182 21.6331 119.804 20.6354C120.877 21.3507 121.856 22.3673 122.731 23.2427C125.207 25.7182 127.418 28.6078 129.423 31.4692C132.191 35.4602 134.977 40.0253 136.605 44.6092C137.735 47.8001 135.457 49.6732 133.631 51.9039C132.153 53.73 130.816 55.6784 129.339 57.5138C129.169 57.7303 129.423 58.1068 129.668 57.9092C131.937 56.0831 133.527 53.5888 135.711 51.6686C137.659 49.965 138.911 48.3272 138.657 45.6446V45.6728Z" fill="#AC5C1A"/>
<path d="M242.581 155.32C242.581 151.019 241.828 146.614 240.464 142.227C238.769 136.787 236.134 131.704 233.028 126.932C233.545 127.977 234.119 128.946 234.383 129.558C236.642 134.81 238.44 140.815 239.833 146.378C242.544 157.184 240.548 167.029 233.009 175.407C229.517 179.266 225.083 182.344 220.283 184.621C220.236 184.621 220.189 184.621 220.132 184.65C215.887 186.335 211.943 188.584 207.228 187.361C203.519 186.4 199.811 185.412 196.328 183.774C194.568 182.946 192.93 181.911 191.49 180.583C189.419 178.701 189.334 176.649 189.541 174.051C189.89 169.43 189.57 164.714 189.664 160.073C189.664 159.857 189.344 159.829 189.297 160.036C188.883 162.389 188.553 164.789 188.299 167.189C188.205 167.255 188.13 167.359 188.13 167.481C188.139 168.084 188.13 168.677 188.12 169.26C188.073 169.928 188.026 170.587 187.998 171.256C187.753 173.788 187.151 176.244 185.852 178.579C184.195 181.562 181.211 183.981 178.256 185.572C172.872 188.452 166.424 187.756 160.852 185.864C154.677 183.774 149.209 179.736 144.662 175.124C142.017 172.442 139.768 169.222 138.431 165.693C138.29 165.316 138.168 164.921 138.045 164.535C134.177 151.997 140.314 133.059 148.013 122.621C147.693 123.044 147.383 123.459 147.081 123.892C142.422 130.509 138.412 137.907 136.445 145.804C135.269 150.52 135.25 155.217 136.031 159.819C136.144 161.928 136.436 164.027 137.038 166.098C138.111 169.759 140.464 172.978 142.968 175.792C147.938 181.393 154.583 185.751 161.69 188.048C167.893 190.053 174.651 189.789 180.336 186.495C183.433 184.697 186.106 181.873 187.828 178.767C187.96 178.522 188.064 178.259 188.186 178.014C189.099 181.129 192.233 183.501 194.888 185.007C198.719 187.172 203.161 188.208 207.378 189.3C209.779 189.921 212.094 189.62 214.287 188.829C215.737 188.424 217.177 187.916 218.57 187.464C220.151 186.777 221.685 186.033 223.144 185.29C227.361 183.134 231.126 180.122 234.327 176.658C240.096 170.39 242.572 163.029 242.581 155.33V155.32Z" fill="#AF743C"/>
<path d="M274.368 155.405C268.504 161.589 262.207 168.187 254.94 172.715C251.495 174.861 247.843 176.809 244.219 178.607C241.593 179.896 238.722 181.299 235.729 181.092C235.277 181.064 235.108 180.593 235.306 180.235C239.155 173.195 243.636 165.693 242.694 157.438C242.638 157.457 242.591 157.485 242.525 157.504C239.334 167.142 231.446 175.19 222.561 179.84C217.77 182.353 212.414 184.207 206.946 184.377C202.926 184.499 198.38 183.407 194.954 180.979C193.231 179.746 191.565 178.484 191.622 176.527C191.669 174.465 191.537 171.444 192.798 169.637C193.617 168.488 196.018 168.601 197.232 168.394C199.651 167.971 202.089 167.528 204.451 166.851C209.506 165.401 215.671 162.671 217.139 157.024C218.165 153.061 216.688 148.844 214.08 145.522C212.621 144.11 210.993 142.858 209.252 141.804C199.453 135.94 187.264 135.337 176.261 137.417C173.286 137.973 170.142 138.971 167.29 140.448C164.363 142.387 161.84 144.995 160.73 148.204C159.167 152.703 160.56 156.977 164.034 160.111C170.18 165.627 177.898 166.982 185.588 168.742C185.993 168.837 186.031 169.213 185.871 169.495C187.33 170.079 186.614 172.479 186.153 173.75C185.137 176.649 183.094 178.645 180.411 180.103C174.152 183.492 166.904 182.786 160.325 180.631C148.126 176.621 138.704 167.086 135.994 154.511C132.661 161.523 137.02 170.841 139.956 177.261C140.135 177.637 139.862 178.089 139.429 178.061C138.742 178.014 138.093 177.854 137.452 177.619C134.986 177.063 131.937 174.71 130.092 173.43C127.089 171.369 124.256 169.081 121.602 166.587C115.973 161.325 111.06 155.443 105.977 149.673C99.5951 142.434 92.1686 134.208 88.4036 124.88C89.2413 128.24 90.6908 131.535 92.0086 134.5C96.649 144.919 104.132 154.445 111.756 162.841C119.738 171.632 129.075 179.059 138.714 185.949C143.731 189.535 148.889 192.989 154.301 195.964C156.984 197.441 159.751 198.759 162.556 199.973C164.438 200.792 166.575 201.517 168.401 202.6C169.7 203.945 171.046 205.235 172.486 206.383C176.006 209.169 180.242 210.638 184.581 211.579C189.193 212.586 193.984 212.812 198.691 212.567C201.081 212.445 203.284 211.664 205.327 210.544C210.852 208.275 215.596 203.428 218.25 198.025C218.354 198.025 218.448 198.034 218.551 198.025C226.844 196.246 234.797 192.039 242.196 188.01C249.057 184.273 255.43 179.746 261.35 174.654C272.146 165.335 282.971 153.183 287.282 139.206C287.357 139.046 287.442 138.886 287.527 138.726C283.696 144.637 279.272 150.2 274.358 155.377L274.368 155.405Z" fill="#F5D2B6"/>
<path d="M266.348 17.021C265.896 15.1949 265.058 13.5383 262.828 14.1784C261.435 14.5831 260.145 15.2514 258.921 16.0233C252.926 19.8165 247.259 24.184 242.704 29.6715C240.172 32.7212 237.79 35.9779 236.143 39.5829C235.39 41.2019 234.543 42.9338 234.129 44.6657C234.025 45.1363 233.931 45.5976 233.818 46.0682C235.174 47.3201 236.981 47.8283 238.515 48.8167C240.463 50.0779 242.318 51.4334 244.078 52.93C246.902 55.3208 249.584 57.9845 252.069 60.7236C255.721 64.7333 259.524 69.5337 261.698 74.7577C260.823 68.2536 256.625 62.1825 253.726 56.5444C252.427 53.9936 250.93 50.7933 251.674 47.8472C252.54 44.4116 254.77 41.4466 256.521 38.4158C257.378 36.938 263.148 27.7701 264.964 33.1918C265.821 35.752 265.623 38.877 265.746 41.5313C265.811 42.8867 265.849 44.2516 265.887 45.6164C266.536 38.877 266.781 32.1282 267.082 25.3511C267.054 24.8993 267.016 24.4569 266.988 24.0051C266.772 21.6896 266.903 19.3082 266.339 17.0304L266.348 17.021Z" fill="white"/>
<path d="M133.49 53.3345C135.824 50.9061 138.78 48.4682 138.046 44.7126C137.02 39.5074 133.16 35.4977 130.205 31.2714C126.976 26.6687 123.635 21.6518 118.345 19.2986C116.754 18.9786 115.182 19.2233 114.1 20.8517C113.338 21.9906 112.81 23.2237 112.481 24.5509C110.919 30.622 110.919 36.5613 111.267 42.6889C111.813 45.155 112.359 47.6211 112.914 50.0777C112.961 47.5928 113.356 45.1362 114.279 42.7736C115.935 38.5191 117.987 42.2559 118.58 44.6561C119.456 48.2235 120.369 51.6873 121.508 55.1794C122.204 57.3348 122.119 59.1232 120.971 61.1093C117.987 66.2674 116.472 71.6514 115.342 77.346C115.644 76.9318 116.001 76.5647 116.425 76.2259C116.519 76.16 116.613 76.1223 116.717 76.1223C120.284 70.8231 123.324 65.1567 127.409 60.2433C129.377 57.8902 131.363 55.5465 133.49 53.3345Z" fill="white"/>
<path d="M222.203 65.0171C222.075 64.9231 221.946 64.8604 221.809 64.7873C221.836 64.7455 221.845 64.6933 221.827 64.6411C219.91 59.867 215.515 52.0635 209.433 58.1956C206.415 61.2355 206.433 65.5499 209.085 67.378C210.516 68.3704 212.571 68.078 214.378 67.5556C217.002 66.793 219.469 65.9155 222.093 65.3514C222.231 65.3305 222.304 65.0903 222.203 65.0171Z" fill="#FAF9E8"/>
<path d="M135.786 105.047C135.786 105.047 143.203 102.016 152.616 103.748C154.593 104.115 159.515 106.073 161.878 107.805C161.878 107.805 161.059 105.216 158.141 102.581C158.141 102.581 166.104 81.5343 161.304 76.8092C156.503 72.0841 147.797 81.0731 145.312 88.4431C142.817 95.8132 143.523 99.2299 144.851 100.416C144.851 100.416 139.843 101.602 135.777 105.047H135.786Z" fill="#AC5C1A"/>
<path d="M136.747 105.179C136.747 105.179 143.204 102.017 152.616 103.749C154.593 104.116 159.516 106.074 161.878 107.806C161.878 107.806 159.666 105.424 156.748 102.779C156.748 102.779 161.944 93.1785 161.078 83.8977C160.448 77.1865 150.677 82.947 148.192 90.317C145.707 97.6871 146.272 99.8708 147.599 101.066C147.599 101.066 140.813 101.725 136.737 105.179H136.747Z" fill="#AC5C1A"/>
<path d="M138.28 104.388C144.427 100.878 154.272 100.473 159.572 105.725C159.769 105.923 159.581 106.365 159.28 106.252C155.684 104.831 152.54 103.504 148.606 103.362C145.086 103.24 141.763 104.05 138.318 104.53C138.243 104.539 138.214 104.436 138.28 104.388Z" fill="#AF743C"/>
<path d="M178.304 59.232C177.054 51.7991 167.251 54.1192 162.624 58.6219C161.715 59.1546 160.915 59.8077 160.356 60.8302C160.116 61.2771 160.356 61.7239 160.845 61.7411C165.742 61.8528 168.8 66.1578 173.507 66.5101C177.554 66.8109 178.793 62.0418 178.304 59.232Z" fill="#FAF9E8"/>
<path d="M149.049 96.6988C148.315 101.198 149.426 103.692 153.576 103.758C155.431 103.787 157.737 102.215 159.469 93.075C160.316 88.5852 161.097 84.566 158.113 84.8013C154.113 85.1214 149.793 92.1902 149.049 96.7083V96.6988Z" fill="#491C00"/>
<path d="M157.159 90.0353C155.678 91.6404 153.853 92.5719 153.06 92.1062C152.267 91.6488 152.841 89.9771 154.301 88.3719C155.782 86.7584 157.607 85.8435 158.4 86.2927C159.172 86.7501 158.629 88.4218 157.148 90.027L157.159 90.0353Z" fill="white"/>
<path d="M243.956 106.205C243.956 106.205 236.586 103.052 227.154 104.624C225.168 104.944 220.208 106.817 217.817 108.511C217.817 108.511 218.683 105.941 221.648 103.353C221.648 103.353 214.043 82.1745 218.918 77.5247C223.794 72.8843 232.341 82.0145 234.713 89.4316C237.075 96.8393 236.322 100.247 234.967 101.414C234.967 101.414 239.946 102.685 243.956 106.205Z" fill="#AC5C1A"/>
<path d="M242.976 106.327C242.976 106.327 236.576 103.061 227.145 104.633C225.158 104.953 220.198 106.826 217.807 108.521C217.807 108.521 218.946 106.469 221.911 103.871C221.911 103.871 216.367 96.5948 219.021 84.6314C220.48 78.0521 229.422 83.869 231.794 91.2673C234.157 98.6844 233.545 100.849 232.199 102.016C232.199 102.016 238.976 102.798 242.976 106.327Z" fill="#AC5C1A"/>
<path d="M241 104.897C234.788 101.499 224.933 101.282 219.728 106.638C219.53 106.836 219.728 107.278 220.038 107.156C223.596 105.669 226.731 104.285 230.656 104.068C234.176 103.88 237.508 104.624 240.972 105.029C241.047 105.047 241.066 104.925 241.01 104.897H241Z" fill="#AF743C"/>
<path d="M229.94 98.4585C229.658 103.014 228.02 105.198 223.954 104.332C222.137 103.955 220.236 101.913 220.584 92.6133C220.753 88.0482 220.885 83.9537 223.747 84.8479C227.568 86.0433 230.213 93.8934 229.94 98.4585Z" fill="#491C00"/>
<path d="M222.266 89.8316C222.171 91.9914 222.504 93.7381 223 93.7381C223.502 93.7381 223.65 91.597 223.745 89.4466C223.84 87.2867 223.533 86.1786 223.032 86.1786C222.53 86.1786 222.361 87.6811 222.266 89.8316Z" fill="white"/>
<path d="M214.671 150.334C214.285 142.06 203.352 138.733 196.935 137.216C186.471 134.771 175.679 136.259 166.392 141.529C162.403 143.794 158.959 147.367 160.747 152.211C162.224 156.23 166.806 158.941 170.241 161.007C179.48 166.571 193.256 168.201 203.276 163.746C208.47 161.443 214.981 156.742 214.68 150.325L214.671 150.334Z" fill="#6A5D53"/>
<path d="M209.543 147.941C207.67 149.39 201.11 146.397 199.218 146.03C193.118 144.863 186.915 144.496 181.127 145.747C178.557 146.303 176.289 147.338 173.775 147.95C172.222 148.326 170.095 148.656 168.523 147.658C163.986 144.759 175.394 140.401 176.976 140.025C184.628 138.236 192.987 139.093 201.241 141.239C203.114 141.728 210.579 144.9 209.995 147.225C209.92 147.536 209.769 147.771 209.543 147.941ZM215.577 150.265C215.191 142.058 204.253 138.744 197.825 137.238C187.367 134.801 176.571 136.297 167.271 141.531C163.28 143.771 159.835 147.319 161.624 152.129C163.102 156.111 167.676 158.803 171.121 160.864C180.364 166.389 194.144 168.018 204.169 163.594C209.355 161.297 215.878 156.628 215.577 150.265Z" fill="#0D0D0D"/>
<path d="M179.488 162.614C177.088 161.871 174.782 160.873 172.655 159.659C169.314 157.748 165.85 155.668 163.478 152.571C159.807 147.78 164.73 143.912 168.73 141.69C171.064 140.391 173.427 139.224 175.978 138.424C182.058 137.087 188.157 136.429 194.454 137.718C200.855 139.026 212.95 141.822 213.289 150.124C213.524 155.96 206.314 160.054 201.749 161.965C194.812 164.864 186.699 164.855 179.488 162.614ZM214.983 149.747C214.607 141.53 203.66 138.226 197.241 136.72C186.774 134.292 175.978 135.77 166.687 141.003C162.696 143.253 159.251 146.801 161.04 151.611C162.518 155.602 167.092 158.294 170.537 160.346C179.78 165.871 193.56 167.49 203.585 163.066C208.78 160.779 215.294 156.11 214.993 149.738L214.983 149.747Z" fill="#0D0D0D"/>
<path d="M202.331 144.501C190.647 141.391 186.476 141.734 178.381 143.222C172.215 144.357 173.79 145.925 174.935 146.005C177.169 146.157 182.553 145.909 189.024 145.965C195.668 146.029 200.403 146.541 201.529 146.621C206.016 146.948 203.534 144.821 202.331 144.501Z" fill="white"/>
<path d="M188.414 178.405C188.295 178.658 188.203 178.912 188.064 179.156C186.37 182.255 183.754 185.073 180.732 186.867C179.111 187.825 177.407 188.52 175.657 188.989C176.117 192.981 175.906 197.019 174.782 201.199C172.903 208.224 170.416 214.826 174.8 221.495C180.566 230.248 192.771 231.995 201.43 227.186C206.598 224.641 210.07 219.428 210.153 213.089C210.208 208.628 208.827 204.307 207.73 200.053C206.819 196.522 206.478 193.028 206.542 189.497C202.609 188.463 198.519 187.43 194.973 185.392C192.375 183.89 189.308 181.513 188.414 178.414V178.405Z" fill="#FF00FF"/>
<path d="M206.465 216.681C203.971 226.056 191.537 229.03 183.311 225.717C179.047 223.994 175.686 220.568 174.764 215.947C174.209 213.123 174.359 205.386 176.581 199.23C178.774 193.093 178.369 190.57 183.358 189.77C186.323 189.29 186.624 192.406 186.567 194.655C186.36 203.202 185.372 215.184 190.464 221.312C188.356 215.212 186.671 197.94 191.857 192.98C193.307 191.596 195.274 191.154 197.269 191.389C198.973 191.596 201.307 192.114 202.23 193.78C203.679 196.434 202.964 199.625 204.131 202.43C205.985 206.901 207.783 211.786 206.484 216.681H206.465ZM210.381 212.746C210.438 208.285 209.026 203.955 207.906 199.682C206.974 196.143 206.625 192.641 206.691 189.102C202.672 188.067 198.493 187.041 194.869 184.989C192.215 183.483 189.08 181.101 188.167 177.995C188.045 178.249 187.951 178.503 187.81 178.748C186.078 181.854 183.405 184.678 180.317 186.476C178.661 187.436 176.919 188.132 175.122 188.603C175.592 192.603 175.376 196.66 174.227 200.839C172.307 207.88 169.766 214.497 174.246 221.18C180.138 229.962 192.61 231.713 201.458 226.884C206.738 224.333 210.287 219.109 210.362 212.756L210.381 212.746Z" fill="#991E0A"/>
<path d="M174.886 197.893C174.962 197.78 175.028 197.667 175.093 197.554C175.103 197.544 175.122 197.544 175.131 197.526C175.536 195.398 176.138 193.337 177.56 191.775C180.628 188.424 185.193 187.021 188.309 183.699C188.572 183.407 189.033 183.633 189.118 183.962C190.05 187.689 194.286 189.421 197.646 190.334C199.99 190.965 204.075 190.673 205.675 192.904C206.447 193.996 206.776 195.229 207.237 196.443C206.823 194.005 206.654 191.567 206.701 189.111C202.682 188.075 198.502 187.049 194.879 184.997C192.224 183.491 189.09 181.11 188.177 178.004C188.055 178.258 187.96 178.512 187.819 178.757C186.087 181.863 183.414 184.687 180.327 186.485C178.67 187.445 176.929 188.141 175.14 188.612C175.498 191.671 175.451 194.758 174.896 197.912L174.886 197.893Z" fill="#991E0A"/>
<path d="M173.389 207.306C174.227 202.76 176.109 198.242 176.712 193.827C176.975 191.926 176.928 190.024 176.665 188.133C176.156 188.311 175.648 188.462 175.13 188.594C175.601 192.594 175.385 196.651 174.236 200.83C172.42 207.475 170.076 213.725 173.559 220.013C171.958 215.824 172.081 211.504 173.389 207.306Z" fill="#991E0A"/>
<path d="M210.381 212.746C210.437 208.285 209.025 203.955 207.905 199.682C206.973 196.142 206.625 192.641 206.691 189.102C206.286 189.008 205.881 188.895 205.467 188.791C205.26 190.815 205.223 192.848 205.383 194.862C205.684 198.392 206.813 201.781 207.67 205.207C208.442 207.221 208.715 209.433 208.733 211.645C208.799 213.038 208.752 214.431 208.517 215.787C207.943 220.436 204.94 223.74 201.025 226.291C199.17 227.505 197.118 228.437 194.982 229.105C197.241 228.691 199.443 227.948 201.458 226.856C206.738 224.305 210.287 219.081 210.371 212.727L210.381 212.746Z" fill="#991E0A"/>
<path d="M187.461 191.991C186.887 199.832 186.962 208.341 188.506 216.069C188.543 216.238 188.845 216.201 188.826 216.022C187.847 208.736 188.252 201.131 188.779 193.808C189.052 189.874 189.579 185.967 190.351 182.08C190.379 181.939 190.398 181.788 190.435 181.638C189.899 181.082 189.419 180.48 189.033 179.84C188.986 180.141 188.958 180.452 188.92 180.725C188.383 184.49 187.743 188.198 187.461 192.001V191.991Z" fill="#991E0A"/>
<path d="M200.746 219.078C197.334 219.665 194.343 221.23 190.789 221.445C187.199 221.67 183.199 220.917 180.662 217.855C180.368 217.493 179.796 217.894 179.939 218.344C182.565 226.787 197.835 227.922 201.058 219.489C201.148 219.244 200.987 219.039 200.755 219.078H200.746Z" fill="#FFF3F6"/>
<path d="M205.422 214.976C205.422 214.976 205.414 214.95 205.406 214.941C204.525 213.716 201.989 217.297 202.729 218.853C203.477 220.461 206.379 216.445 205.431 214.976H205.422Z" fill="#FFF3F6"/>
<path d="M114.291 7.53872C118.865 6.29775 124.758 11.3083 127.817 13.9675C133.945 19.2767 138.068 23.4754 143.009 28.6446C145.447 31.1919 147.8 33.8418 150.342 36.2677C152.13 37.9752 153.787 39.0203 155.726 39.3095C148.309 28.346 139.696 20.9935 129.201 13.0345C124.494 9.46083 114.611 1.70708 111.881 9.19957C112.662 8.45312 113.387 7.78132 114.3 7.53872H114.291Z" fill="url(#paint0_linear_55_2044)"/>
<path d="M261.801 5.52226C252.568 6.92872 243.013 12.1885 235.5 17.6217C228.11 22.9779 220.863 30.1643 217.728 39.0173C217.643 39.2389 217.975 39.4123 218.127 39.2389C224.064 31.5033 230.361 24.8178 238.33 19.1438C241.835 16.6391 245.454 14.3175 249.139 12.1115C253.243 9.64532 263.301 6.59156 267.595 4.54929C267.908 4.40479 262.162 5.46446 261.82 5.52226H261.801Z" fill="url(#paint1_linear_55_2044)"/>
<path d="M151.19 45.3572C151.19 45.3572 165.101 36.3534 187.889 36.2862C210.676 36.219 220.64 43.447 223.762 44.9156C223.762 44.9156 187.167 31.9283 151.19 45.3572Z" fill="url(#paint2_linear_55_2044)"/>
<path d="M252.154 61.9568C230.505 61.9568 212.96 79.5018 212.96 101.151C212.96 110.902 216.518 119.816 222.411 126.668C228.049 133.229 235.814 137.907 244.634 139.62C247.071 140.091 249.585 140.345 252.154 140.345C273.803 140.345 291.348 122.8 291.348 101.151C291.348 79.5018 273.803 61.9568 252.154 61.9568Z" fill="url(#paint3_linear_55_2044)" fill-opacity="0.65"/>
<path fill-rule="evenodd" clip-rule="evenodd" d="M139.721 139.62C148.541 137.907 156.306 133.238 161.944 126.678C167.836 119.816 171.394 110.902 171.394 101.151C171.394 79.502 153.849 61.957 132.2 61.957C110.551 61.957 93.0064 79.502 93.0064 101.151C93.0064 122.8 110.551 140.345 132.2 140.345C134.77 140.345 137.283 140.091 139.721 139.62ZM166.974 77.5473C171.141 83.6779 173.733 90.9725 174.162 98.8354L174.143 98.826C174.19 99.5978 174.209 100.37 174.209 101.142C174.209 110.422 171.197 118.997 166.104 125.953C159.563 134.886 149.567 141.145 138.083 142.754C136.163 143.027 134.196 143.169 132.191 143.169C116.651 143.169 103.078 134.735 95.8113 122.188C92.2252 116.004 90.1732 108.822 90.1732 101.151C90.1732 87.8604 96.3385 76.0193 105.968 68.3199C113.159 62.5688 122.449 59.1238 132.2 59.1238C141.952 59.1238 150.931 62.4464 158.066 68.0281C160.945 70.2823 163.528 72.9039 165.734 75.8194C166.226 75.5017 166.745 75.1362 167.281 74.7198C167.78 74.3244 168.307 73.9009 168.834 73.4114C169.098 73.1573 169.399 72.9596 169.729 72.7902C170.025 72.6291 170.307 72.4299 170.593 72.2269L170.594 72.2268L170.594 72.2268L170.689 72.1595C171.978 71.2559 173.334 70.1735 174.783 68.9969C175.109 68.7344 175.44 68.4658 175.776 68.1926L175.776 68.1925L175.777 68.192C176.936 67.2507 178.16 66.2564 179.48 65.279C180.327 64.6483 181.231 64.0177 182.191 63.4341C182.445 63.293 182.699 63.1425 182.953 62.992L182.953 62.992L182.953 62.9917C183.071 62.9305 183.189 62.867 183.306 62.8035C183.424 62.7399 183.542 62.6764 183.659 62.6152L184.422 62.2199C184.597 62.1257 184.773 62.0483 184.949 61.971C185.037 61.9323 185.124 61.8936 185.212 61.8528C186.266 61.3727 187.34 60.9586 188.46 60.6197C189.015 60.4409 189.589 60.2997 190.201 60.1585C190.54 60.0927 190.888 60.0362 191.236 59.9798L191.236 59.9798L191.236 59.9797C191.387 59.9609 191.509 59.9514 191.65 59.942L191.858 59.9232L191.961 59.9138H192.008H192.036H192.159V63.4812H192.074L191.867 63.5C191.823 63.5031 191.778 63.5052 191.733 63.5073C191.643 63.5115 191.553 63.5157 191.472 63.5282C191.283 63.5753 191.086 63.6129 190.897 63.6412L190.856 63.651C190.424 63.7519 189.951 63.8627 189.486 64.0177C188.525 64.3095 187.565 64.6766 186.662 65.0907C186.579 65.1302 186.492 65.1683 186.405 65.2067L186.405 65.2067C186.264 65.2688 186.122 65.3315 185.993 65.4013L185.335 65.7402C185.264 65.7783 185.193 65.8174 185.121 65.8568C184.962 65.9438 184.8 66.0325 184.638 66.1167C184.539 66.1779 184.438 66.2367 184.337 66.2955C184.236 66.3543 184.135 66.4132 184.036 66.4743C183.198 66.9826 182.379 67.5568 181.588 68.1404C180.238 69.1391 178.949 70.1921 177.692 71.2188C177.468 71.4016 177.245 71.5835 177.023 71.7642C175.564 72.9502 174.134 74.0797 172.741 75.068C172.575 75.1891 172.407 75.3038 172.24 75.4171L172.24 75.4172L172.24 75.4172C172.058 75.5418 171.878 75.6647 171.705 75.7928C171.674 75.8151 171.644 75.8377 171.613 75.8604C171.591 75.8774 171.568 75.8944 171.546 75.9114C171.433 75.9962 171.322 76.0799 171.206 76.1505C171.037 76.254 170.849 76.3293 170.66 76.4046C169.917 76.7058 169.192 76.96 168.505 77.167C167.972 77.3229 167.46 77.4481 166.974 77.5473ZM252.154 140.354C249.585 140.354 247.071 140.1 244.634 139.629C235.805 137.916 228.039 133.238 222.41 126.677C216.518 119.815 212.96 110.902 212.96 101.16C212.96 79.5109 230.505 61.9658 252.154 61.9658C273.803 61.9658 291.348 79.5109 291.348 101.16C291.348 122.809 273.803 140.354 252.154 140.354ZM278.378 68.3287C271.186 62.5776 262.075 59.1326 252.154 59.1326C242.233 59.1326 233.433 62.4553 226.298 68.0275C223.415 70.2781 220.843 72.8948 218.633 75.8119C218.14 75.4938 217.621 75.1276 217.083 74.7104C216.584 74.315 216.057 73.8915 215.53 73.402C215.266 73.1573 214.956 72.969 214.626 72.7996C214.33 72.6385 214.048 72.4393 213.761 72.2363L213.666 72.169C212.377 71.2654 211.021 70.1829 209.572 69.0063C209.35 68.8267 209.127 68.6447 208.901 68.4607L208.901 68.4606L208.9 68.4602C207.647 67.439 206.318 66.3569 204.875 65.2884C204.018 64.6577 203.124 64.0365 202.164 63.4435C201.919 63.3023 201.675 63.1611 201.43 63.0105C201.303 62.9401 201.176 62.8719 201.049 62.8038L201.049 62.8034L201.048 62.8031C200.921 62.735 200.794 62.6668 200.667 62.5964L199.962 62.2293L199.961 62.2291C199.848 62.1726 199.717 62.1068 199.576 62.041L199.161 61.8528L198.747 61.6645L198.352 61.5045L197.552 61.1845L197.419 61.1362L197.419 61.1362C196.918 60.9548 196.423 60.7754 195.905 60.6197C195.349 60.4409 194.766 60.2997 194.173 60.1585L193.241 59.9891C192.902 59.9524 192.553 59.9336 192.214 59.9153L192.187 59.9138V63.4717H192.215C192.308 63.4815 192.401 63.4888 192.495 63.4961C192.582 63.5029 192.671 63.5098 192.761 63.5188L193.439 63.6412L193.439 63.6412C193.909 63.7541 194.38 63.8671 194.86 64.0271C195.274 64.1488 195.688 64.2986 196.096 64.4462L196.291 64.5165L196.997 64.7989L197.345 64.9401L197.665 65.0907L197.985 65.2413C198.008 65.2518 198.031 65.2622 198.055 65.2729L198.055 65.273C198.139 65.3103 198.229 65.3501 198.324 65.4013L199.039 65.7684L199.679 66.1167C199.896 66.239 200.103 66.3614 200.31 66.4932C201.147 67.0015 201.966 67.5662 202.757 68.1592C204.107 69.1577 205.396 70.2105 206.653 71.2369L206.653 71.2374L206.654 71.2376C206.877 71.4204 207.1 71.6024 207.322 71.783C208.79 72.9784 210.212 74.1079 211.605 75.0869C211.716 75.1649 211.828 75.2411 211.94 75.3169C212.178 75.4786 212.413 75.6386 212.631 75.8116C212.96 76.0658 213.29 76.3011 213.666 76.4423C214.41 76.7435 215.135 76.9976 215.822 77.2047C216.356 77.361 216.87 77.4879 217.357 77.5891C213.204 83.7036 210.621 90.9772 210.193 98.8255C210.146 99.5973 210.127 100.379 210.127 101.169C210.127 110.45 213.139 119.025 218.231 125.971C224.782 134.913 234.779 141.163 246.262 142.773C248.191 143.046 250.159 143.187 252.154 143.187C267.694 143.187 281.267 134.744 288.534 122.206C292.12 116.022 294.172 108.831 294.172 101.169C294.172 87.8786 288.007 76.0376 278.378 68.3381V68.3287Z" fill="#0D0D0D"/>
<path d="M132.2 61.9568C110.551 61.9568 93.0061 79.5018 93.0061 101.151C93.0061 122.8 110.551 140.345 132.2 140.345C134.77 140.345 137.283 140.091 139.721 139.62C148.54 137.907 156.306 133.229 161.944 126.678C167.836 119.816 171.394 110.902 171.394 101.151C171.394 79.5018 153.849 61.9568 132.2 61.9568Z" fill="url(#paint4_linear_55_2044)" fill-opacity="0.65"/>
<defs>
<linearGradient id="paint0_linear_55_2044" x1="113.864" y1="6.0476" x2="156.492" y2="12.8585" gradientUnits="userSpaceOnUse">
<stop stop-color="#4D3CB8"/>
<stop offset="1" stop-color="#FF23CF"/>
</linearGradient>
<linearGradient id="paint1_linear_55_2044" x1="219.971" y1="4.53576" x2="268.256" y2="12.933" gradientUnits="userSpaceOnUse">
<stop stop-color="#4D3CB8"/>
<stop offset="1" stop-color="#FF23CF"/>
</linearGradient>
<linearGradient id="paint2_linear_55_2044" x1="154.473" y1="36.2858" x2="191.765" y2="72.4473" gradientUnits="userSpaceOnUse">
<stop stop-color="#4D3CB8"/>
<stop offset="1" stop-color="#FF23CF"/>
</linearGradient>
<linearGradient id="paint3_linear_55_2044" x1="216.506" y1="61.9568" x2="293.531" y2="71.2929" gradientUnits="userSpaceOnUse">
<stop stop-color="#4D3CB8"/>
<stop offset="1" stop-color="#FF23CF"/>
</linearGradient>
<linearGradient id="paint4_linear_55_2044" x1="96.5513" y1="61.9568" x2="173.576" y2="71.2929" gradientUnits="userSpaceOnUse">
<stop stop-color="#4D3CB8"/>
<stop offset="1" stop-color="#FF23CF"/>
</linearGradient>
</defs>
</svg>
