<svg width="1600" height="672" viewBox="0 0 1600 672" fill="none" xmlns="http://www.w3.org/2000/svg">
<g clip-path="url(#clip0_20_1176)">
<rect width="1600" height="672" fill="url(#paint0_linear_20_1176)"/>
<path d="M1456.44 72.2509C1488.02 99.8612 1493.97 156.857 1469.74 199.516C1445.51 242.176 1400.25 254.383 1368.69 226.78C1337.1 199.142 1331.17 142.154 1355.4 99.4943C1379.64 56.8349 1424.86 44.6407 1456.46 72.2586L1456.44 72.2509Z" fill="url(#paint1_linear_20_1176)"/>
<path d="M1449.2 84.9966C1475.55 108.053 1480.52 155.647 1460.31 191.257C1440.07 226.88 1402.29 237.07 1375.94 214.014C1349.57 190.95 1344.6 143.356 1364.84 107.733C1385.08 72.1103 1422.85 61.9405 1449.22 85.0042L1449.2 84.9966Z" fill="url(#paint2_linear_20_1176)"/>
<path d="M1474.79 75.1374C1465.82 67.2835 1455.75 62.6488 1445.37 61.0128L1427.03 58.1267C1437.4 59.7627 1447.48 64.3973 1456.44 72.2512C1488.02 99.8615 1493.97 156.857 1469.74 199.516C1452.39 230.077 1424.25 245.001 1398.07 240.869L1416.41 243.755C1442.59 247.888 1470.71 232.956 1488.08 202.403C1512.31 159.743 1506.36 102.768 1474.79 75.1374Z" fill="url(#paint3_linear_20_1176)"/>
<path d="M1450.05 83.4688C1477.04 107.069 1482.13 155.765 1461.42 192.227C1440.7 228.689 1402.05 239.126 1375.06 215.526C1348.06 191.927 1342.98 143.21 1363.69 106.748C1384.41 70.2858 1423.07 59.8765 1450.07 83.4764L1450.05 83.4688ZM1375.92 214.006C1402.27 237.063 1440.07 226.88 1460.29 191.249C1480.53 155.627 1475.55 108.053 1449.18 84.989C1422.81 61.9252 1385.03 72.1157 1364.8 107.718C1344.56 143.34 1349.53 190.935 1375.9 213.999" fill="#E0A3BA"/>
<path d="M1462.65 124.812C1462.87 125.756 1462.59 126.778 1462.49 127.753C1462.11 130.426 1461.88 133.117 1461.51 135.834C1461.49 136.424 1461.2 137.218 1461.68 137.62C1463.62 139.568 1465.83 141.204 1467.68 143.307C1464.75 143.622 1461.78 143.283 1458.91 143.957C1456.7 146.896 1454.65 150.005 1452.52 153.051C1452.45 149.275 1453.19 145.457 1453.38 141.664C1451.28 139.622 1449.14 137.712 1447.05 135.669C1449.93 135.377 1452.85 135.433 1455.74 135.218C1458.05 131.752 1460.42 128.308 1462.65 124.812Z" fill="white"/>
<path d="M1393.79 111.822C1394.61 111.371 1395.33 111.988 1396.07 112.125C1400.89 114.026 1405.84 115.576 1410.64 117.554C1412.38 118.591 1410.75 122.587 1408.82 122.057C1403.55 120.214 1398.29 118.282 1393.04 116.273C1391.58 115.646 1392.04 112.416 1393.79 111.822Z" fill="white"/>
<path d="M1426.72 123.836C1427.54 123.395 1428.15 123.991 1428.82 124.128C1433.28 125.872 1437.84 127.383 1442.31 129.126C1443.6 129.493 1443.4 132.746 1441.9 134.045C1440.99 135.085 1440.14 134.615 1439.39 134.391C1434.81 132.608 1430.15 131.057 1425.57 129.273C1424.04 128.713 1424.84 124.573 1426.72 123.836Z" fill="white"/>
<path d="M1396.21 124.211C1398.5 123.858 1400.21 126.758 1399.19 129.549C1397.17 135.139 1395.08 140.745 1393.06 146.335C1392.36 148.87 1389.76 150.525 1387.99 149.615C1386.23 148.972 1385.57 146.195 1386.51 143.933C1388.5 138.516 1390.47 133.132 1392.46 127.714C1393.08 125.858 1394.66 124.387 1396.21 124.211Z" fill="white"/>
<path d="M1430.43 137.741C1432.4 137.768 1434.16 139.261 1434.58 141.266C1434.98 142.805 1434.27 144.358 1433.73 145.821C1431.75 151.038 1429.92 156.312 1427.94 161.529C1426.94 164.251 1423.38 165.417 1421.21 163.773C1419.64 162.657 1418.85 160.399 1419.58 158.425C1421.65 152.663 1423.8 146.89 1425.88 141.128C1426.51 139.12 1428.5 137.725 1430.43 137.741Z" fill="white"/>
<path d="M1374.62 129.01C1379.79 129.473 1383.29 135.561 1381.88 141.594C1380.98 146.069 1377.62 149.993 1373.76 151.096C1369.54 152.459 1365.07 150.239 1363.49 145.901C1361.99 142.326 1362.6 137.511 1364.99 134.047C1367.26 130.575 1371.14 128.548 1374.62 129.01Z" fill="white"/>
<path d="M1444.15 154.482C1448.94 154.957 1452.3 160.186 1451.58 165.819C1451.08 170.329 1448.05 174.652 1444.25 176.206C1440.23 177.993 1435.66 176.51 1433.57 172.681C1431.62 169.287 1431.67 164.34 1433.87 160.529C1436.03 156.471 1440.32 153.932 1444.15 154.482Z" fill="white"/>
<path d="M1382.29 165.066C1383.44 164.688 1384.53 165.344 1385.06 166.412C1387.79 171.018 1392.03 174.282 1396.71 176.145C1402.63 178.534 1409.28 178.678 1415.72 177.578C1417.22 177.217 1418.63 178.39 1418.73 180.028C1418.94 181.708 1417.56 183.388 1416.05 183.525C1408 184.945 1399.67 184.441 1392.48 180.93C1387.61 178.526 1383.16 174.818 1380.36 169.788C1379.25 168.142 1380.38 165.497 1382.29 165.066Z" fill="white"/>
<g filter="url(#filter0_f_20_1176)">
<path d="M-23.639 106.989C-66.0161 144.041 -74.0005 220.526 -41.4831 277.772C-8.96565 335.019 51.7656 351.401 94.1148 314.359C136.509 277.27 144.466 200.795 111.949 143.548C79.4312 86.3015 18.738 69.9375 -23.6669 106.999L-23.639 106.989Z" fill="url(#paint4_linear_20_1176)"/>
<path d="M-13.9247 124.093C-49.284 155.033 -55.9525 218.902 -28.8303 266.689C-1.67014 314.493 49.0324 328.168 84.3916 297.228C119.779 266.277 126.447 202.408 99.2868 154.604C72.1266 106.8 21.4345 93.1528 -13.9526 124.103L-13.9247 124.093Z" fill="url(#paint5_linear_20_1176)"/>
<path d="M-48.2557 110.862C-36.2257 100.323 -22.7069 94.1034 -8.78731 91.908L15.8291 88.0349C1.90952 90.2303 -11.6091 96.4497 -23.6391 106.989C-66.0162 144.041 -74.0006 220.526 -41.4832 277.773C-18.2033 318.783 19.5661 338.811 54.6918 333.266L30.0755 337.139C-5.0502 342.684 -42.7918 322.646 -66.0995 281.646C-98.6169 224.399 -90.6225 147.942 -48.2557 110.862Z" fill="url(#paint6_linear_20_1176)"/>
<path d="M-15.0559 122.043C-51.2852 153.713 -58.1071 219.06 -30.3128 267.99C-2.51859 316.92 49.348 330.927 85.5773 299.257C121.807 267.587 128.618 202.212 100.824 153.282C73.0297 104.352 21.1454 90.3831 -15.0838 122.053L-15.0559 122.043ZM84.4188 297.217C49.0595 328.158 -1.67066 314.493 -28.803 266.678C-55.9632 218.875 -49.2845 155.033 -13.8974 124.083C21.4897 93.1323 72.1921 106.807 99.3421 154.583C126.502 202.387 119.834 266.257 84.4466 297.207" fill="#E0A3BA"/>
<path d="M60.4315 160.091C59.3331 159.486 58.3657 160.315 57.3809 160.498C50.9081 163.048 44.263 165.129 37.8286 167.783C35.4893 169.174 37.6743 174.537 40.2626 173.826C47.3334 171.352 54.4046 168.76 61.4374 166.064C63.4084 165.223 62.7838 160.888 60.4315 160.091Z" fill="white"/>
<path d="M16.2401 176.214C15.1505 175.622 14.3219 176.421 13.4338 176.605C7.43678 178.945 1.32526 180.973 -4.67178 183.313C-6.40224 183.805 -6.13176 188.17 -4.12185 189.913C-2.90398 191.309 -1.76409 190.678 -0.75237 190.378C5.39116 187.985 11.6492 185.903 17.7927 183.51C19.8436 182.758 18.7627 177.202 16.2401 176.214Z" fill="white"/>
<path d="M57.1922 176.717C54.1205 176.243 51.8207 180.135 53.1935 183.88C55.9058 191.382 58.7007 198.904 61.413 206.406C62.3588 209.808 65.8452 212.028 68.2207 210.808C70.5766 209.944 71.4693 206.218 70.206 203.183C67.5412 195.913 64.8926 188.688 62.2278 181.418C61.3898 178.926 59.2738 176.953 57.1922 176.717Z" fill="white"/>
<path d="M11.2631 194.873C8.62032 194.909 6.26394 196.913 5.70504 199.604C5.15814 201.669 6.1151 203.753 6.83482 205.716C9.49756 212.717 11.9474 219.795 14.6102 226.796C15.9492 230.449 20.7242 232.013 23.634 229.807C25.7412 228.31 26.8033 225.279 25.8325 222.63C23.0464 214.898 20.1585 207.151 17.3724 199.419C16.5293 196.724 13.8633 194.852 11.2631 194.873Z" fill="white"/>
<path d="M86.1664 183.156C79.2199 183.778 74.525 191.948 76.4186 200.044C77.6316 206.049 82.1392 211.314 87.3218 212.795C92.9755 214.624 98.9722 211.645 101.091 205.823C103.113 201.025 102.291 194.565 99.0835 189.916C96.0439 185.257 90.8367 182.536 86.1664 183.156Z" fill="white"/>
<path d="M-7.14173 217.339C-13.5654 217.976 -18.0797 224.993 -17.1128 232.552C-16.4402 238.605 -12.3811 244.406 -7.27856 246.492C-1.88996 248.89 4.25199 246.899 7.04983 241.76C9.67516 237.206 9.60415 230.568 6.65564 225.453C3.75764 220.008 -2.00108 216.6 -7.14173 217.339Z" fill="white"/>
<path d="M75.8754 231.542C74.3255 231.035 72.8577 231.915 72.1469 233.349C68.4869 239.529 62.8031 243.909 56.5155 246.409C48.5683 249.615 39.6443 249.808 31.0041 248.332C28.9934 247.848 27.0981 249.422 26.9662 251.621C26.684 253.874 28.5334 256.129 30.5621 256.314C41.3633 258.219 52.5399 257.543 62.1944 252.831C68.7277 249.605 74.7045 244.629 78.4539 237.879C79.9462 235.67 78.4318 232.12 75.8754 231.542Z" fill="white"/>
</g>
<path d="M262.635 485.285C299.032 523.116 322.812 573.564 315.762 598.001C308.713 622.438 273.468 611.583 237.07 573.752C200.673 535.945 176.894 485.497 183.967 461.06C191.016 436.623 226.262 447.478 262.659 485.285H262.635Z" fill="url(#paint7_linear_20_1176)"/>
<path d="M260.779 491.723C291.889 524.032 312.214 567.173 306.176 588.038C300.137 608.927 270.037 599.646 238.927 567.314C207.816 535.005 187.515 491.888 193.53 471.022C199.545 450.157 229.669 459.391 260.779 491.723ZM239.185 566.468C269.59 598.048 299.009 607.095 304.907 586.699C310.804 566.303 290.949 524.173 260.544 492.593C230.162 461.036 200.744 451.966 194.846 472.362C188.948 492.757 208.803 534.888 239.185 566.444" fill="url(#paint8_linear_20_1176)"/>
<path d="M260.521 492.593C290.926 524.173 310.781 566.304 304.883 586.699C298.986 607.095 269.567 598.025 239.162 566.468C208.78 534.912 188.925 492.781 194.823 472.385C200.72 451.99 230.139 461.06 260.521 492.617V492.593Z" fill="url(#paint9_linear_20_1176)"/>
<path d="M309.606 607.635L286.884 625.023C273.609 635.198 244.378 622.345 214.349 591.14C177.951 553.333 154.172 502.885 161.245 478.448C162.49 474.171 164.582 470.976 167.401 468.814L190.123 451.426C187.303 453.588 185.189 456.783 183.967 461.06C176.918 485.497 200.697 535.945 237.07 573.752C267.1 604.957 296.33 617.786 309.606 607.635Z" fill="url(#paint10_linear_20_1176)"/>
<path d="M240.211 483.911C240.967 484.388 241.7 485.217 242.425 485.91C244.399 487.867 246.412 489.744 248.422 491.719C248.867 492.117 249.423 492.804 249.811 492.775C251.618 492.876 253.232 492.612 255.142 492.867C254.896 494.82 254.144 496.377 254.18 498.528C256.052 501.752 258.08 504.993 260.047 508.235C257.158 505.833 254.371 502.924 251.512 500.356C249.607 500.287 247.796 500.332 245.891 500.262C246.148 498.347 246.676 496.64 246.992 494.773C244.736 491.149 242.504 487.505 240.211 483.911Z" fill="white"/>
<path d="M218.862 516.676C218.655 515.895 219.245 515.864 219.471 515.513C221.722 513.859 223.726 511.901 226.031 510.314C227.111 509.942 229.886 513.501 229.161 514.311C226.88 516.269 224.532 518.17 222.129 520.004C221.408 520.476 219.023 518.109 218.862 516.676Z" fill="white"/>
<path d="M233.494 504.759C233.293 503.988 233.849 504.004 234.064 503.697C236.136 502.153 238.045 500.407 240.117 498.863C240.611 498.33 243.056 500.554 243.797 502.29C244.439 503.505 243.939 503.709 243.644 504.016C241.523 505.599 239.566 507.384 237.445 508.967C236.764 509.519 233.743 506.359 233.494 504.759Z" fill="white"/>
<path d="M228.705 523.247C228.817 521.65 231.312 522.502 233.269 524.919C237.193 529.743 241.118 534.615 245.043 539.439C246.858 541.501 247.687 544.124 246.699 544.594C245.917 545.228 243.69 543.829 242.123 541.803C238.325 537.112 234.549 532.449 230.751 527.757C229.44 526.183 228.581 524.289 228.705 523.247Z" fill="white"/>
<path d="M244.707 511.536C245.055 510.376 246.485 510.291 248.083 511.34C249.323 512.091 250.388 513.522 251.414 514.789C255.06 519.35 258.776 523.854 262.422 528.415C264.33 530.773 264.627 533.654 263.014 533.887C261.902 534.104 260.049 533.117 258.666 531.407C254.62 526.439 250.578 521.418 246.532 516.449C245.106 514.774 244.373 512.684 244.707 511.536Z" fill="white"/>
<path d="M228.772 539.261C229.986 536.466 235.208 538.312 239.571 543.058C242.831 546.493 245.262 551.04 245.461 554.063C245.799 557.463 243.365 558.699 239.796 556.837C236.821 555.425 233.253 551.945 231.011 548.274C228.741 544.674 227.842 541.043 228.772 539.261Z" fill="white"/>
<path d="M259.746 514.165C260.904 511.61 265.448 512.981 269.621 517.055C272.975 520.273 275.767 524.878 276.319 528.157C277.013 531.714 275.122 533.49 271.857 532.26C268.945 531.234 265.184 528.003 262.645 524.224C259.911 520.307 258.69 516.099 259.746 514.165Z" fill="white"/>
<path d="M257.527 558C257.431 557.065 258.112 556.835 259.015 557.209C262.978 558.558 266.169 558.137 268.368 556.54C271.174 554.545 272.389 550.662 272.622 546.101C272.596 544.971 273.725 544.886 274.99 545.887C276.304 546.848 277.355 548.758 277.209 549.751C276.953 555.482 275.184 560.136 271.312 562.166C268.67 563.522 265.104 563.786 260.806 562.203C259.366 561.803 257.538 559.417 257.527 558Z" fill="white"/>
<g filter="url(#filter1_f_20_1176)">
<path d="M1424.49 522.772C1373.95 575.301 1340.93 645.35 1350.72 679.282C1360.51 713.214 1409.45 698.14 1459.99 645.611C1510.52 593.115 1543.54 523.065 1533.72 489.134C1523.93 455.202 1474.99 470.275 1424.45 522.772H1424.49Z" fill="url(#paint11_linear_20_1176)"/>
<path d="M1427.06 531.711C1383.87 576.573 1355.64 636.476 1364.03 665.448C1372.42 694.453 1414.21 681.566 1457.41 636.671C1500.61 591.81 1528.79 531.94 1520.44 502.967C1512.09 473.995 1470.26 486.817 1427.06 531.711ZM1457.05 635.497C1414.83 679.347 1373.98 691.908 1365.79 663.588C1357.6 635.268 1385.17 576.769 1427.39 532.919C1469.58 489.101 1510.43 476.507 1518.62 504.827C1526.8 533.147 1499.24 591.647 1457.05 635.464" fill="url(#paint12_linear_20_1176)"/>
<path d="M1427.42 532.919C1385.2 576.769 1357.64 635.269 1365.82 663.589C1374.01 691.909 1414.86 679.315 1457.08 635.497C1499.27 591.68 1526.84 533.18 1518.65 504.86C1510.46 476.54 1469.61 489.134 1427.42 532.952V532.919Z" fill="url(#paint13_linear_20_1176)"/>
<path d="M1359.27 692.659L1390.82 716.803C1409.25 730.93 1449.84 713.084 1491.54 669.755C1542.07 617.259 1575.09 547.209 1565.27 513.278C1563.54 507.34 1560.64 502.902 1556.72 499.901L1525.17 475.757C1529.09 478.759 1532.02 483.196 1533.72 489.134C1543.51 523.066 1510.49 593.115 1459.98 645.611C1418.29 688.94 1377.7 706.754 1359.27 692.659Z" fill="url(#paint14_linear_20_1176)"/>
<path d="M1455.62 520.863C1454.57 521.527 1453.56 522.678 1452.55 523.639C1449.81 526.356 1447.01 528.963 1444.22 531.706C1443.6 532.258 1442.83 533.212 1442.29 533.172C1439.79 533.313 1437.54 532.946 1434.89 533.299C1435.23 536.011 1436.28 538.173 1436.23 541.16C1433.63 545.637 1430.81 550.136 1428.08 554.638C1432.09 551.304 1435.96 547.263 1439.93 543.698C1442.58 543.602 1445.09 543.664 1447.74 543.568C1447.38 540.909 1446.65 538.539 1446.21 535.946C1449.34 530.914 1452.44 525.854 1455.62 520.863Z" fill="white"/>
<path d="M1485.27 566.359C1485.56 565.275 1484.74 565.231 1484.42 564.744C1481.3 562.447 1478.51 559.728 1475.31 557.525C1473.81 557.008 1469.96 561.95 1470.97 563.075C1474.13 565.794 1477.39 568.433 1480.73 570.98C1481.73 571.636 1485.04 568.348 1485.27 566.359Z" fill="white"/>
<path d="M1464.95 549.812C1465.23 548.741 1464.46 548.764 1464.16 548.337C1461.28 546.193 1458.63 543.77 1455.76 541.626C1455.07 540.885 1451.67 543.973 1450.65 546.384C1449.75 548.071 1450.45 548.355 1450.86 548.78C1453.8 550.978 1456.52 553.457 1459.47 555.655C1460.41 556.421 1464.61 552.034 1464.95 549.812Z" fill="white"/>
<path d="M1471.6 575.483C1471.45 573.266 1467.98 574.448 1465.26 577.804C1459.81 584.504 1454.36 591.267 1448.91 597.967C1446.4 600.829 1445.24 604.472 1446.62 605.125C1447.7 606.004 1450.79 604.063 1452.97 601.249C1458.24 594.735 1463.49 588.26 1468.76 581.745C1470.58 579.559 1471.77 576.929 1471.6 575.483Z" fill="white"/>
<path d="M1449.38 559.221C1448.9 557.611 1446.91 557.494 1444.69 558.949C1442.97 559.993 1441.49 561.98 1440.07 563.739C1435.01 570.073 1429.85 576.326 1424.78 582.659C1422.13 585.933 1421.72 589.934 1423.96 590.258C1425.51 590.559 1428.08 589.187 1430 586.814C1435.62 579.915 1441.23 572.943 1446.85 566.044C1448.83 563.718 1449.85 560.816 1449.38 559.221Z" fill="white"/>
<path d="M1471.51 597.719C1469.82 593.838 1462.57 596.402 1456.51 602.992C1451.99 607.762 1448.61 614.075 1448.33 618.272C1447.86 622.994 1451.25 624.71 1456.2 622.124C1460.33 620.164 1465.28 615.331 1468.4 610.235C1471.55 605.236 1472.8 600.193 1471.51 597.719Z" fill="white"/>
<path d="M1428.5 562.872C1426.89 559.324 1420.58 561.228 1414.79 566.886C1410.13 571.353 1406.25 577.747 1405.49 582.3C1404.52 587.239 1407.15 589.706 1411.68 587.998C1415.73 586.573 1420.95 582.087 1424.47 576.839C1428.27 571.401 1429.97 565.558 1428.5 562.872Z" fill="white"/>
<path d="M1431.58 623.739C1431.71 622.44 1430.77 622.121 1429.52 622.641C1424.01 624.513 1419.58 623.929 1416.53 621.712C1412.63 618.942 1410.94 613.55 1410.62 607.217C1410.66 605.648 1409.09 605.529 1407.33 606.919C1405.51 608.253 1404.05 610.906 1404.25 612.285C1404.61 620.243 1407.06 626.705 1412.44 629.524C1416.11 631.407 1421.06 631.773 1427.03 629.575C1429.03 629.02 1431.57 625.707 1431.58 623.739Z" fill="white"/>
</g>
<g filter="url(#filter2_f_20_1176)">
<path d="M449.643 -63.0628C488.291 -59.2298 511.607 -23.4424 501.735 16.8512C491.844 57.1635 452.523 86.7433 413.874 82.9103C375.245 79.0772 351.929 43.2898 361.801 2.97752C371.674 -37.3348 411.014 -66.8959 449.643 -63.0628Z" fill="#CD5AA8"/>
<path d="M446.707 -51.0211C478.98 -47.8238 498.444 -17.9448 490.198 15.7111C481.953 49.367 449.101 74.0667 416.828 70.8693C384.575 67.672 365.111 37.7931 373.356 4.11849C381.602 -29.5374 414.454 -54.2184 446.707 -51.0211Z" fill="url(#paint15_linear_20_1176)"/>
<path d="M447.044 -52.4425C480.064 -49.1704 499.996 -18.5996 491.564 15.8603C483.112 50.3015 449.494 75.5808 416.474 72.3087C383.453 69.0366 363.54 38.4471 371.973 4.00594C380.406 -30.4353 414.024 -55.6959 447.044 -52.4238V-52.4425ZM416.81 70.869C449.082 74.0663 481.934 49.3853 490.18 15.7107C498.426 -17.9452 478.961 -47.8242 446.689 -51.0215C414.435 -54.2188 381.584 -29.5378 373.338 4.11813C365.092 37.774 384.557 67.6717 416.81 70.869Z" fill="url(#paint16_linear_20_1176)"/>
<path d="M459.347 -61.361C459.59 -61.3049 459.833 -61.2301 460.076 -61.1553C461.366 -60.8001 462.638 -60.4261 463.872 -60.0148C464.059 -59.9587 464.227 -59.9026 464.414 -59.8278C465.742 -59.3603 467.051 -58.8368 468.322 -58.2946C468.602 -58.1824 468.883 -58.0515 469.163 -57.9206C470.435 -57.341 471.688 -56.7427 472.903 -56.1069C473.015 -56.0508 473.127 -55.976 473.258 -55.9013C474.38 -55.2842 475.483 -54.6298 476.549 -53.938C476.792 -53.7884 477.035 -53.6388 477.278 -53.4705C478.4 -52.7226 479.503 -51.956 480.569 -51.152C480.775 -51.0025 480.962 -50.8342 481.167 -50.6846C482.252 -49.8432 483.299 -48.9644 484.309 -48.0669L474.791 -56.7053C474.193 -57.2475 473.595 -57.771 472.996 -58.2759C472.566 -58.6311 472.099 -58.9864 471.65 -59.3416C471.445 -59.4912 471.258 -59.6595 471.052 -59.8091C469.986 -60.6131 468.883 -61.3984 467.761 -62.1276C467.518 -62.2959 467.275 -62.4455 467.032 -62.595C465.947 -63.2868 464.863 -63.9413 463.722 -64.5583C463.61 -64.6144 463.498 -64.6892 463.367 -64.764C463.33 -64.7827 463.274 -64.8201 463.236 -64.8388C462.058 -65.4558 460.862 -66.0354 459.628 -66.5777C459.347 -66.7085 459.085 -66.8207 458.805 -66.9516C457.533 -67.4938 456.225 -68.0174 454.897 -68.4848C454.71 -68.5409 454.523 -68.597 454.355 -68.6718C453.121 -69.1018 451.849 -69.4758 450.559 -69.8124C450.316 -69.8684 450.073 -69.9432 449.83 -70.018C448.446 -70.3733 447.025 -70.6725 445.586 -70.9342C445.286 -70.9903 444.969 -71.0464 444.669 -71.0838C443.174 -71.3456 441.678 -71.5512 440.126 -71.7008C438.537 -71.8504 436.966 -71.9439 435.377 -71.9813C434.965 -71.9813 434.554 -72 434.143 -72C432.684 -72 431.226 -72 429.767 -71.9252C429.636 -71.9252 429.506 -71.9252 429.375 -71.9252C427.804 -71.8317 426.233 -71.6821 424.682 -71.4952C424.289 -71.4391 423.877 -71.383 423.485 -71.3269C422.12 -71.1399 420.755 -70.9155 419.39 -70.6538C419.222 -70.6164 419.053 -70.5977 418.885 -70.579C418.81 -70.579 418.754 -70.5416 418.68 -70.5416C418.306 -70.4668 417.932 -70.3733 417.539 -70.2798C416.791 -70.1115 416.043 -69.9432 415.295 -69.7563C414.846 -69.6441 414.416 -69.5132 413.986 -69.401C413.313 -69.214 412.64 -69.0271 411.967 -68.8214C411.5 -68.6905 411.051 -68.5409 410.602 -68.3913C409.948 -68.1857 409.312 -67.9613 408.658 -67.7369C408.19 -67.5686 407.741 -67.4004 407.274 -67.2321C406.975 -67.1199 406.657 -67.0077 406.358 -66.8955C406.152 -66.8207 405.965 -66.7272 405.759 -66.6524C404.395 -66.1102 403.048 -65.5493 401.721 -64.951C401.59 -64.8949 401.478 -64.8388 401.347 -64.7827C399.907 -64.1283 398.486 -63.399 397.084 -62.6511C396.934 -62.5576 396.766 -62.5015 396.598 -62.4081C396.373 -62.2959 396.168 -62.1463 395.943 -62.0341C394.933 -61.4732 393.924 -60.8935 392.914 -60.2952C392.596 -60.1082 392.26 -59.9026 391.942 -59.7156C390.67 -58.9303 389.418 -58.1076 388.165 -57.2475C388.109 -57.2101 388.053 -57.1727 387.997 -57.1353C387.81 -57.0044 387.623 -56.8548 387.436 -56.7239C386.426 -56.0134 385.454 -55.2842 384.481 -54.5363C384.126 -54.2559 383.752 -53.9754 383.397 -53.6949C382.443 -52.947 381.508 -52.1617 380.592 -51.3577C380.405 -51.1894 380.218 -51.0585 380.031 -50.8903C379.975 -50.8342 379.919 -50.7781 379.863 -50.7407C378.666 -49.6936 377.526 -48.6091 376.385 -47.4873C376.105 -47.2068 375.843 -46.9263 375.563 -46.6646C374.646 -45.7484 373.749 -44.7948 372.87 -43.8412C372.702 -43.6542 372.515 -43.486 372.347 -43.299C372.216 -43.1494 372.104 -42.9998 371.973 -42.8689C371.673 -42.5324 371.393 -42.2145 371.112 -41.878C370.626 -41.317 370.14 -40.7374 369.673 -40.1765C369.392 -39.8212 369.093 -39.466 368.813 -39.1107C368.345 -38.5311 367.897 -37.9327 367.448 -37.3344C367.186 -36.9792 366.924 -36.6426 366.662 -36.2873C366.176 -35.6142 365.709 -34.9411 365.223 -34.268C365.017 -33.9688 364.811 -33.6884 364.606 -33.3892C364.55 -33.3144 364.512 -33.2583 364.456 -33.1835C364.12 -32.6974 363.82 -32.1925 363.503 -31.6877C363.185 -31.1829 362.848 -30.6967 362.549 -30.1919C362.194 -29.6123 361.857 -29.0326 361.521 -28.4343C361.221 -27.9295 360.922 -27.4433 360.642 -26.9198C360.305 -26.3215 359.987 -25.7044 359.67 -25.1061C359.408 -24.6013 359.127 -24.0964 358.866 -23.5729C358.548 -22.9559 358.267 -22.3201 357.968 -21.6844C357.725 -21.1796 357.482 -20.656 357.239 -20.1512C356.94 -19.4968 356.678 -18.8237 356.397 -18.1505C356.192 -17.6457 355.967 -17.1409 355.762 -16.636C355.481 -15.9442 355.238 -15.2337 354.976 -14.5232C354.789 -14.037 354.602 -13.5509 354.434 -13.0648C354.154 -12.2795 353.911 -11.4755 353.667 -10.6715C353.537 -10.2601 353.387 -9.84876 353.275 -9.41871C352.92 -8.18467 352.583 -6.95061 352.265 -5.69786C345.908 20.2733 353.312 44.356 369.71 59.2393L379.227 67.8777C362.829 52.9943 355.425 28.9116 361.782 2.94048C362.082 1.68774 362.418 0.45369 362.792 -0.780357C362.923 -1.21041 363.054 -1.62176 363.185 -2.0331C363.428 -2.8371 363.671 -3.64111 363.951 -4.42641C364.12 -4.91255 364.307 -5.3987 364.494 -5.90353C364.755 -6.61404 364.998 -7.32457 365.279 -8.01638C365.484 -8.52122 365.709 -9.02606 365.915 -9.5309C366.195 -10.204 366.457 -10.8771 366.756 -11.5316C366.98 -12.0551 367.242 -12.5599 367.485 -13.0648C367.784 -13.7005 368.065 -14.3362 368.383 -14.9532C368.644 -15.4768 368.925 -15.9816 369.187 -16.4865C369.505 -17.0848 369.822 -17.7018 370.159 -18.3001C370.439 -18.805 370.739 -19.3098 371.038 -19.8146C371.374 -20.3943 371.711 -20.9926 372.066 -21.5535C372.384 -22.0584 372.702 -22.5445 373.02 -23.0494C373.375 -23.6103 373.73 -24.1899 374.123 -24.7321C374.328 -25.0313 374.534 -25.3118 374.74 -25.6109C375.207 -26.2841 375.675 -26.9572 376.18 -27.6303C376.441 -27.9855 376.703 -28.3408 376.965 -28.6774C377.414 -29.2757 377.881 -29.874 378.33 -30.4537C378.61 -30.8089 378.909 -31.1642 379.19 -31.5194C379.657 -32.0991 380.144 -32.66 380.63 -33.2396C380.91 -33.5762 381.191 -33.894 381.49 -34.2306C381.789 -34.5671 382.088 -34.885 382.387 -35.2216C383.266 -36.1751 384.164 -37.1287 385.08 -38.0449C385.36 -38.3254 385.622 -38.6059 385.902 -38.8676C387.043 -39.9708 388.202 -41.0553 389.38 -42.121C389.623 -42.3267 389.866 -42.5324 390.109 -42.7381C391.026 -43.5421 391.961 -44.3087 392.914 -45.0753C393.269 -45.3557 393.625 -45.6362 393.998 -45.9167C394.971 -46.6646 395.962 -47.3938 396.953 -48.1043C397.196 -48.2726 397.439 -48.4596 397.682 -48.6278C398.916 -49.4879 400.169 -50.3106 401.459 -51.0959C401.777 -51.3016 402.113 -51.4886 402.431 -51.6756C403.422 -52.2739 404.432 -52.8535 405.46 -53.4145C405.834 -53.6201 406.208 -53.8258 406.601 -54.0315C408.003 -54.7794 409.424 -55.4899 410.864 -56.163C410.995 -56.2191 411.107 -56.2752 411.238 -56.3313C412.565 -56.9296 413.93 -57.5093 415.277 -58.0328C415.781 -58.2385 416.286 -58.4254 416.791 -58.6124C417.24 -58.7807 417.707 -58.949 418.175 -59.1173C418.81 -59.3416 419.465 -59.5473 420.119 -59.7717C420.568 -59.9213 421.035 -60.0708 421.484 -60.2017C422.157 -60.4074 422.83 -60.5944 423.522 -60.7814C423.952 -60.8936 424.401 -61.0244 424.831 -61.1366C425.579 -61.3236 426.327 -61.4919 427.075 -61.6601C427.449 -61.7349 427.823 -61.8284 428.197 -61.9032C428.44 -61.9593 428.664 -61.978 428.907 -62.0341C430.272 -62.2959 431.618 -62.5203 432.983 -62.7072C433.376 -62.7633 433.787 -62.8194 434.18 -62.8755C435.732 -63.0625 437.302 -63.2121 438.873 -63.3056C439.004 -63.3056 439.135 -63.3056 439.266 -63.3056C440.724 -63.3803 442.183 -63.399 443.641 -63.3803C444.052 -63.3803 444.464 -63.3803 444.875 -63.3616C446.464 -63.3243 448.035 -63.2308 449.624 -63.0812C451.157 -62.9316 452.672 -62.7072 454.168 -62.4641C454.467 -62.4081 454.785 -62.3707 455.084 -62.3146C456.524 -62.0528 457.926 -61.7536 459.328 -61.3984L459.347 -61.361Z" fill="url(#paint17_linear_20_1176)"/>
<path d="M476.723 -27.0323C477.087 -26.0897 477.012 -24.9352 477.087 -23.8767C477.207 -20.9482 477.468 -18.0395 477.61 -15.0693C477.688 -14.4374 477.563 -13.5225 478.069 -13.2207C480.153 -11.6558 482.427 -10.4918 484.458 -8.73992C481.877 -7.65472 479.143 -7.25047 476.676 -5.80025C475.191 -2.11976 473.878 1.70068 472.489 5.47204C471.774 1.49186 471.776 -2.74003 471.29 -6.80532C469.051 -8.43034 466.791 -9.90287 464.551 -11.5279C467.1 -12.5786 469.737 -13.268 472.302 -14.2388C473.785 -18.5021 475.321 -22.7581 476.723 -27.0323Z" fill="white"/>
<path d="M416.774 -10.6017C418.774 -11.5632 420.82 -8.93251 420.382 -5.71463C419.53 0.724365 418.624 7.19473 417.772 13.6337C417.576 16.499 415.523 18.9185 413.771 18.4101C412.078 18.1796 410.998 15.4106 411.454 12.7735C412.305 6.52706 413.15 0.318457 414 -5.92801C414.241 -8.05451 415.407 -10.0166 416.774 -10.6017Z" fill="white"/>
<path d="M449.945 -5.0665C451.724 -5.54366 453.564 -4.41396 454.286 -2.39744C454.92 -0.872548 454.547 0.954815 454.317 2.6419C453.433 8.67567 452.702 14.7303 451.818 20.764C451.391 23.9028 448.388 26.0515 446.15 24.8676C444.542 24.0893 443.438 21.9009 443.748 19.6253C444.62 12.9905 445.559 6.32484 446.431 -0.309947C446.649 -2.59804 448.197 -4.58518 449.945 -5.0665Z" fill="white"/>
<path d="M398.157 0.0258694C402.899 -0.813103 407.105 4.73532 406.879 11.4861C406.84 16.4565 404.494 21.474 401.206 23.6347C397.647 26.1597 393.238 24.9575 391.064 20.7692C389.088 17.3702 388.805 12.1151 390.359 7.83234C391.798 3.57411 394.942 0.430849 398.157 0.0258694Z" fill="white"/>
<path d="M465.198 9.13816C469.592 8.4109 473.528 13.0839 473.855 19.2336C474.184 24.1386 472.208 29.4928 469.053 32.1158C465.745 35.0395 461.366 34.644 458.825 31.1249C456.475 28.0335 455.666 22.7821 456.985 18.1819C458.227 13.3303 461.653 9.53904 465.198 9.13816Z" fill="white"/>
<path d="M411.309 36.2369C412.284 35.5402 413.383 35.9537 414.045 36.9487C417.299 41.1245 421.679 43.4929 426.222 44.2623C431.97 45.2711 437.985 43.7147 443.594 40.8965C444.881 40.1292 446.357 41.0087 446.729 42.7183C447.209 44.4427 446.259 46.5755 444.921 47.1097C437.917 50.6806 430.328 52.2866 423.239 50.4166C418.438 49.1219 413.784 46.3391 410.396 41.7305C409.109 40.2733 409.668 37.1823 411.309 36.2369Z" fill="white"/>
</g>
<path d="M1347.97 418.442C1348.29 418.439 1348.24 418.666 1348.35 418.786C1348.82 419.796 1349.39 420.76 1349.86 421.77C1350.04 422.028 1348.99 422.805 1348.26 422.932C1347.73 423.071 1347.69 422.845 1347.59 422.692C1347.1 421.657 1346.53 420.67 1346.04 419.635C1345.87 419.299 1347.32 418.38 1347.97 418.442Z" fill="white"/>
<path d="M1321.24 412.966C1339.64 400.296 1362.48 393.806 1372.25 398.466C1382.02 403.126 1375.02 417.166 1356.62 429.836C1338.22 442.496 1315.39 448.986 1305.62 444.336C1295.85 439.686 1302.84 425.636 1321.24 412.976L1321.24 412.966Z" fill="#E18CC3"/>
<path d="M1323.82 414.196C1339.54 403.376 1359.06 397.826 1367.41 401.806C1375.76 405.786 1369.78 417.786 1354.05 428.606C1338.33 439.426 1318.82 444.976 1310.47 440.996C1302.12 437.016 1308.09 425.016 1323.82 414.196ZM1353.71 428.446C1369.07 417.866 1374.92 406.146 1366.76 402.256C1358.6 398.366 1339.54 403.786 1324.17 414.366C1308.81 424.936 1302.97 436.666 1311.13 440.556C1319.28 444.446 1338.35 439.026 1353.71 428.456" fill="#FDEAF1"/>
<path d="M1324.17 414.356C1339.53 403.776 1358.6 398.356 1366.76 402.246C1374.91 406.136 1369.07 417.856 1353.71 428.436C1338.35 439.006 1319.28 444.426 1311.13 440.536C1302.97 436.646 1308.82 424.926 1324.17 414.346L1324.17 414.356Z" fill="url(#paint18_linear_20_1176)"/>
<path d="M1375.87 401.716L1381.6 412.466C1384.95 418.746 1377.53 430.126 1362.35 440.576C1343.95 453.236 1321.12 459.726 1311.35 455.076C1309.64 454.256 1308.44 453.156 1307.73 451.826L1302 441.076C1302.71 442.406 1303.91 443.516 1305.62 444.326C1315.39 448.986 1338.22 442.496 1356.62 429.826C1371.8 419.376 1379.22 407.996 1375.87 401.716Z" fill="url(#paint19_linear_20_1176)"/>
<path d="M1355.76 423.342C1355.52 423.604 1355.15 423.821 1354.82 424.048C1353.92 424.659 1353.04 425.294 1352.13 425.918C1351.94 426.06 1351.63 426.218 1351.62 426.381C1351.46 427.113 1351.45 427.804 1351.23 428.563C1350.47 428.262 1349.9 427.793 1349.05 427.587C1347.65 428.026 1346.24 428.528 1344.82 429.004C1345.96 428.062 1347.3 427.215 1348.51 426.303C1348.66 425.527 1348.76 424.777 1348.92 424.001C1349.66 424.303 1350.3 424.695 1351.02 425.017C1352.6 424.461 1354.19 423.917 1355.76 423.342Z" fill="white"/>
<path d="M1344.23 411.204C1344.56 411.198 1344.53 411.444 1344.65 411.573C1345.16 412.668 1345.8 413.693 1346.27 414.804C1346.35 415.286 1344.75 416.062 1344.48 415.681C1343.86 414.542 1343.26 413.382 1342.7 412.206C1342.56 411.86 1343.66 411.123 1344.23 411.204Z" fill="white"/>
<path d="M1340.98 414.577C1341.6 414.787 1341.1 415.725 1340.01 416.282C1337.84 417.401 1335.66 418.515 1333.49 419.634C1332.55 420.169 1331.46 420.241 1331.34 419.786C1331.14 419.4 1331.84 418.628 1332.75 418.191C1334.86 417.11 1336.95 416.036 1339.06 414.956C1339.77 414.578 1340.58 414.419 1340.98 414.577Z" fill="white"/>
<path d="M1344.54 422.358C1344.98 422.62 1344.91 423.216 1344.39 423.766C1344.01 424.199 1343.38 424.49 1342.81 424.782C1340.76 425.813 1338.73 426.879 1336.69 427.911C1335.63 428.454 1334.47 428.28 1334.48 427.593C1334.47 427.113 1334.99 426.453 1335.75 426.059C1337.99 424.905 1340.24 423.758 1342.48 422.604C1343.23 422.189 1344.11 422.103 1344.54 422.358Z" fill="white"/>
<path d="M1334.64 412.962C1335.67 413.748 1334.59 415.705 1332.42 417.013C1330.85 418.001 1328.89 418.534 1327.68 418.306C1326.31 418.096 1325.99 416.968 1326.96 415.692C1327.72 414.613 1329.33 413.503 1330.93 412.958C1332.51 412.394 1334 412.396 1334.64 412.962Z" fill="white"/>
<path d="M1342.5 428.272C1343.43 429.01 1342.59 430.738 1340.7 432.036C1339.2 433.085 1337.19 433.761 1335.86 433.652C1334.41 433.572 1333.83 432.612 1334.54 431.396C1335.14 430.304 1336.67 429.089 1338.33 428.432C1340.06 427.71 1341.8 427.639 1342.5 428.272Z" fill="white"/>
<path d="M1325.32 422.863C1325.69 422.92 1325.74 423.224 1325.53 423.556C1324.73 425.048 1324.69 426.403 1325.17 427.471C1325.77 428.829 1327.23 429.727 1329.01 430.291C1329.46 430.396 1329.42 430.869 1328.94 431.286C1328.47 431.728 1327.65 431.965 1327.26 431.803C1325.02 431.109 1323.29 429.905 1322.75 428.104C1322.39 426.879 1322.52 425.385 1323.44 423.781C1323.69 423.23 1324.76 422.723 1325.32 422.863Z" fill="white"/>
<path d="M383.194 284.362C403.754 281.472 425.624 296.202 432.034 317.272C438.444 338.342 426.954 357.772 406.394 360.662C385.834 363.552 363.964 348.812 357.564 327.742C351.164 306.672 362.634 287.252 383.204 284.362H383.194Z" fill="url(#paint20_linear_20_1176)"/>
<path d="M425.474 350.962L420.684 356.142C415.974 361.232 409.444 364.742 401.604 365.842C381.044 368.732 359.174 353.992 352.774 332.922C348.814 319.892 351.694 307.492 359.324 299.242L364.114 294.062C356.474 302.312 353.604 314.712 357.564 327.742C363.964 348.812 385.834 363.552 406.394 360.662C414.244 359.562 420.764 356.052 425.474 350.962Z" fill="url(#paint21_linear_20_1176)"/>
<path d="M385.114 290.662C402.284 288.252 420.534 300.552 425.884 318.142C431.234 335.742 421.654 351.952 404.484 354.372C387.314 356.782 369.064 344.482 363.714 326.882C358.364 309.292 367.944 293.072 385.114 290.662Z" fill="url(#paint22_linear_20_1176)"/>
<path d="M384.884 289.912C402.454 287.442 421.144 300.032 426.624 318.042C432.094 336.052 422.284 352.652 404.714 355.122C387.144 357.592 368.454 344.992 362.984 326.992C357.514 308.982 367.314 292.392 384.894 289.922L384.884 289.912ZM404.484 354.372C421.654 351.962 431.234 335.742 425.884 318.142C420.534 300.552 402.284 288.242 385.114 290.662C367.944 293.072 358.364 309.292 363.714 326.882C369.064 344.482 387.314 356.782 404.484 354.372Z" fill="url(#paint23_linear_20_1176)"/>
<path d="M393.44 296.771C393.885 296.984 394.278 297.413 394.681 297.76C395.769 298.749 396.89 299.685 397.999 300.681C398.249 300.877 398.542 301.238 398.798 301.181C399.969 301.055 401.051 300.727 402.274 300.684C401.911 301.9 401.258 302.928 401.059 304.235C401.948 306.007 402.938 307.772 403.888 309.545C402.249 308.38 400.728 306.895 399.125 305.626C397.887 305.781 396.698 305.996 395.46 306.151C395.826 304.957 396.348 303.862 396.748 302.69C395.649 300.715 394.567 298.724 393.44 296.771Z" fill="white"/>
<path d="M376.089 318.958C376.034 318.504 376.424 318.423 376.608 318.186C378.251 316.944 379.764 315.543 381.435 314.337C382.18 313.998 383.625 315.88 383.067 316.449C381.373 317.879 379.641 319.282 377.881 320.648C377.36 321.011 376.046 319.815 376.089 318.958Z" fill="white"/>
<path d="M386.889 310.177C386.837 309.728 387.2 309.68 387.372 309.47C388.886 308.314 390.315 307.052 391.83 305.896C392.208 305.52 393.576 306.623 393.881 307.604C394.174 308.279 393.827 308.455 393.602 308.672C392.051 309.857 390.587 311.148 389.036 312.333C388.534 312.74 386.886 311.127 386.889 310.177Z" fill="white"/>
<path d="M381.843 321.944C382.082 320.959 383.625 321.22 384.654 322.491C386.72 325.026 388.781 327.589 390.847 330.124C391.82 331.192 392.09 332.706 391.396 333.095C390.818 333.562 389.508 332.94 388.693 331.867C386.696 329.401 384.711 326.949 382.714 324.482C382.02 323.658 381.655 322.592 381.843 321.944Z" fill="white"/>
<path d="M393.518 313.147C393.866 312.404 394.809 312.204 395.745 312.678C396.478 313.008 397.026 313.77 397.566 314.436C399.477 316.839 401.44 319.199 403.351 321.602C404.354 322.842 404.25 324.568 403.171 324.877C402.422 325.125 401.313 324.714 400.585 323.816C398.455 321.206 396.333 318.563 394.202 315.953C393.443 315.08 393.181 313.882 393.518 313.147Z" fill="white"/>
<path d="M380.228 331.701C381.311 329.871 384.534 330.456 386.895 332.897C388.67 334.654 389.789 337.174 389.605 338.996C389.474 341.034 387.754 342.04 385.614 341.274C383.815 340.722 381.844 338.969 380.758 336.964C379.647 335.004 379.435 332.884 380.228 331.701Z" fill="white"/>
<path d="M403.078 313.192C404.099 311.514 406.928 311.879 409.234 313.931C411.093 315.545 412.441 318.063 412.463 320.005C412.548 322.102 411.127 323.381 409.12 322.969C407.323 322.645 405.199 321.065 403.931 319.024C402.549 316.919 402.187 314.48 403.078 313.192Z" fill="white"/>
<path d="M397.085 340.146C397.119 339.586 397.589 339.375 398.14 339.51C400.591 339.922 402.721 339.334 404.324 338.133C406.365 336.626 407.562 334.133 408.186 331.328C408.286 330.642 409.033 330.473 409.756 330.952C410.516 331.402 411.006 332.458 410.807 333.078C410.046 336.599 408.407 339.619 405.665 341.258C403.798 342.359 401.439 342.889 398.793 342.369C397.894 342.274 396.946 341.009 397.085 340.146Z" fill="white"/>
<path d="M1181.47 228.49C1153.66 224.58 1124.07 244.507 1115.4 273.01C1106.73 301.513 1122.27 327.797 1150.09 331.707C1177.9 335.616 1207.49 315.676 1216.14 287.173C1224.8 258.67 1209.29 232.399 1181.46 228.49H1181.47Z" fill="url(#paint24_linear_20_1176)"/>
<path d="M1124.28 318.585L1130.76 325.593C1137.13 332.478 1145.96 337.226 1156.57 338.715C1184.38 342.624 1213.97 322.684 1222.62 294.181C1227.98 276.554 1224.08 259.78 1213.76 248.619L1207.28 241.612C1217.62 252.772 1221.5 269.547 1216.14 287.174C1207.49 315.677 1177.9 335.617 1150.09 331.707C1139.47 330.219 1130.65 325.471 1124.28 318.585Z" fill="url(#paint25_linear_20_1176)"/>
<path d="M1178.87 237.012C1155.65 233.752 1130.96 250.391 1123.72 274.187C1116.48 297.996 1129.44 319.924 1152.67 323.198C1175.9 326.458 1200.59 309.819 1207.82 286.01C1215.06 262.214 1202.1 240.272 1178.87 237.012Z" fill="url(#paint26_linear_20_1176)"/>
<path d="M1179.19 235.998C1155.42 232.656 1130.13 249.688 1122.72 274.051C1115.32 298.415 1128.59 320.871 1152.36 324.213C1176.13 327.554 1201.41 310.509 1208.81 286.159C1216.21 261.795 1202.95 239.353 1179.17 236.011L1179.19 235.998ZM1152.67 323.198C1129.44 319.938 1116.48 297.996 1123.72 274.187C1130.96 250.391 1155.65 233.738 1178.87 237.012C1202.1 240.272 1215.06 262.215 1207.82 286.01C1200.59 309.819 1175.9 326.458 1152.67 323.198Z" fill="url(#paint27_linear_20_1176)"/>
<path d="M1167.61 245.276C1167.01 245.564 1166.48 246.145 1165.93 246.615C1164.46 247.952 1162.95 249.218 1161.44 250.565C1161.11 250.831 1160.71 251.32 1160.36 251.242C1158.78 251.072 1157.32 250.628 1155.66 250.57C1156.15 252.215 1157.04 253.605 1157.31 255.373C1156.1 257.771 1154.76 260.159 1153.48 262.557C1155.7 260.981 1157.75 258.972 1159.92 257.255C1161.6 257.465 1163.21 257.756 1164.88 257.965C1164.38 256.35 1163.68 254.868 1163.14 253.284C1164.62 250.611 1166.09 247.919 1167.61 245.276Z" fill="white"/>
<path d="M1191.08 275.291C1191.16 274.676 1190.63 274.567 1190.38 274.246C1188.16 272.566 1186.11 270.671 1183.85 269.039C1182.84 268.581 1180.89 271.127 1181.64 271.897C1183.94 273.831 1186.28 275.728 1188.66 277.577C1189.37 278.068 1191.14 276.45 1191.08 275.291Z" fill="white"/>
<path d="M1176.47 263.411C1176.54 262.804 1176.05 262.739 1175.82 262.456C1173.77 260.892 1171.84 259.185 1169.79 257.621C1169.28 257.112 1167.43 258.604 1167.02 259.931C1166.62 260.844 1167.09 261.082 1167.39 261.376C1169.49 262.979 1171.47 264.726 1173.57 266.329C1174.25 266.879 1176.48 264.697 1176.47 263.411Z" fill="white"/>
<path d="M1183.3 279.331C1182.98 277.998 1180.89 278.35 1179.5 280.069C1176.7 283.499 1173.91 286.966 1171.12 290.395C1169.8 291.841 1169.44 293.889 1170.38 294.415C1171.16 295.047 1172.93 294.205 1174.03 292.754C1176.74 289.417 1179.42 286.1 1182.12 282.763C1183.06 281.649 1183.56 280.207 1183.3 279.331Z" fill="white"/>
<path d="M1167.51 267.429C1167.04 266.424 1165.76 266.154 1164.49 266.795C1163.5 267.241 1162.76 268.272 1162.03 269.173C1159.45 272.424 1156.79 275.617 1154.21 278.868C1152.85 280.545 1152.99 282.88 1154.45 283.298C1155.46 283.633 1156.96 283.078 1157.95 281.862C1160.83 278.331 1163.7 274.757 1166.58 271.226C1167.61 270.044 1167.96 268.423 1167.51 267.429Z" fill="white"/>
<path d="M1185.48 292.528C1184.02 290.053 1179.66 290.844 1176.47 294.147C1174.07 296.523 1172.55 299.932 1172.8 302.397C1172.98 305.155 1175.3 306.515 1178.2 305.479C1180.63 304.732 1183.3 302.362 1184.77 299.649C1186.27 296.998 1186.56 294.129 1185.48 292.528Z" fill="white"/>
<path d="M1154.57 267.49C1153.19 265.22 1149.37 265.714 1146.25 268.49C1143.73 270.673 1141.91 274.08 1141.88 276.707C1141.76 279.543 1143.68 281.274 1146.4 280.716C1148.83 280.278 1151.7 278.141 1153.42 275.38C1155.29 272.533 1155.78 269.233 1154.57 267.49Z" fill="white"/>
<path d="M1162.68 303.953C1162.63 303.196 1162 302.911 1161.25 303.093C1157.94 303.65 1155.06 302.855 1152.89 301.23C1150.13 299.192 1148.51 295.819 1147.66 292.024C1147.53 291.097 1146.52 290.868 1145.54 291.516C1144.51 292.124 1143.85 293.553 1144.12 294.392C1145.15 299.154 1147.36 303.241 1151.07 305.458C1153.6 306.946 1156.79 307.664 1160.37 306.961C1161.59 306.833 1162.87 305.121 1162.68 303.953Z" fill="white"/>
</g>
<defs>
<filter id="filter0_f_20_1176" x="-90.0911" y="83.1584" width="226.043" height="258.888" filterUnits="userSpaceOnUse" color-interpolation-filters="sRGB">
<feFlood flood-opacity="0" result="BackgroundImageFix"/>
<feBlend mode="normal" in="SourceGraphic" in2="BackgroundImageFix" result="shape"/>
<feGaussianBlur stdDeviation="2" result="effect1_foregroundBlur_20_1176"/>
</filter>
<filter id="filter1_f_20_1176" x="1345" y="467" width="226" height="258.557" filterUnits="userSpaceOnUse" color-interpolation-filters="sRGB">
<feFlood flood-opacity="0" result="BackgroundImageFix"/>
<feBlend mode="normal" in="SourceGraphic" in2="BackgroundImageFix" result="shape"/>
<feGaussianBlur stdDeviation="2" result="effect1_foregroundBlur_20_1176"/>
</filter>
<filter id="filter2_f_20_1176" x="346" y="-76" width="162" height="163.244" filterUnits="userSpaceOnUse" color-interpolation-filters="sRGB">
<feFlood flood-opacity="0" result="BackgroundImageFix"/>
<feBlend mode="normal" in="SourceGraphic" in2="BackgroundImageFix" result="shape"/>
<feGaussianBlur stdDeviation="2" result="effect1_foregroundBlur_20_1176"/>
</filter>
<linearGradient id="paint0_linear_20_1176" x1="1600" y1="336" x2="4.31061e-06" y2="336" gradientUnits="userSpaceOnUse">
<stop stop-color="#FE23CE"/>
<stop offset="1" stop-color="#09112E"/>
</linearGradient>
<linearGradient id="paint1_linear_20_1176" x1="1444.17" y1="63.3121" x2="1380.97" y2="235.717" gradientUnits="userSpaceOnUse">
<stop stop-color="#F7D7E6"/>
<stop offset="1" stop-color="#ED55BB"/>
</linearGradient>
<linearGradient id="paint2_linear_20_1176" x1="1388.24" y1="172.622" x2="1436.23" y2="-16.4091" gradientUnits="userSpaceOnUse">
<stop stop-color="#CC53A5"/>
<stop offset="1" stop-color="#CC53A5" stop-opacity="0"/>
</linearGradient>
<linearGradient id="paint3_linear_20_1176" x1="1422.66" y1="54.1161" x2="1451.96" y2="194.278" gradientUnits="userSpaceOnUse">
<stop stop-color="#9A2765"/>
<stop offset="0.54" stop-color="#D971AE"/>
<stop offset="1" stop-color="#A92E73"/>
</linearGradient>
<linearGradient id="paint4_linear_20_1176" x1="-7.16553" y1="94.9936" x2="77.6415" y2="326.352" gradientUnits="userSpaceOnUse">
<stop stop-color="#F7D7E6"/>
<stop offset="1" stop-color="#ED55BB"/>
</linearGradient>
<linearGradient id="paint5_linear_20_1176" x1="67.8895" y1="241.682" x2="3.48893" y2="-11.9883" gradientUnits="userSpaceOnUse">
<stop stop-color="#CC53A5"/>
<stop offset="1" stop-color="#CC53A5" stop-opacity="0"/>
</linearGradient>
<linearGradient id="paint6_linear_20_1176" x1="21.7" y1="82.6529" x2="-17.6275" y2="270.743" gradientUnits="userSpaceOnUse">
<stop stop-color="#9A2765"/>
<stop offset="0.54" stop-color="#D971AE"/>
<stop offset="1" stop-color="#A92E73"/>
</linearGradient>
<linearGradient id="paint7_linear_20_1176" x1="249.861" y1="448" x2="249.861" y2="611.06" gradientUnits="userSpaceOnUse">
<stop stop-color="#CD5AA8"/>
<stop offset="1" stop-color="#CA469A"/>
</linearGradient>
<linearGradient id="paint8_linear_20_1176" x1="249.856" y1="459.863" x2="249.856" y2="599.201" gradientUnits="userSpaceOnUse">
<stop stop-color="#CF80AB"/>
<stop offset="1" stop-color="#B83489"/>
</linearGradient>
<linearGradient id="paint9_linear_20_1176" x1="305.683" y1="541.989" x2="96.5577" y2="530.24" gradientUnits="userSpaceOnUse">
<stop stop-color="#CD55A7"/>
<stop offset="1" stop-color="#CD55A7" stop-opacity="0"/>
</linearGradient>
<linearGradient id="paint10_linear_20_1176" x1="168.905" y1="478.283" x2="276.405" y2="619.713" gradientUnits="userSpaceOnUse">
<stop stop-color="#AD3278"/>
<stop offset="0.5" stop-color="#FDEAF1"/>
<stop offset="1" stop-color="#CB4395"/>
</linearGradient>
<linearGradient id="paint11_linear_20_1176" x1="1442.23" y1="471" x2="1442.23" y2="697.414" gradientUnits="userSpaceOnUse">
<stop stop-color="#CD5AA8"/>
<stop offset="1" stop-color="#CA469A"/>
</linearGradient>
<linearGradient id="paint12_linear_20_1176" x1="1442.23" y1="487.473" x2="1442.23" y2="680.947" gradientUnits="userSpaceOnUse">
<stop stop-color="#CF80AB"/>
<stop offset="1" stop-color="#B83489"/>
</linearGradient>
<linearGradient id="paint13_linear_20_1176" x1="1364.71" y1="601.507" x2="1655.09" y2="585.194" gradientUnits="userSpaceOnUse">
<stop stop-color="#CD55A7"/>
<stop offset="1" stop-color="#CD55A7" stop-opacity="0"/>
</linearGradient>
<linearGradient id="paint14_linear_20_1176" x1="1554.63" y1="513.049" x2="1405.37" y2="709.429" gradientUnits="userSpaceOnUse">
<stop stop-color="#AD3278"/>
<stop offset="0.5" stop-color="#FDEAF1"/>
<stop offset="1" stop-color="#CB4395"/>
</linearGradient>
<linearGradient id="paint15_linear_20_1176" x1="431.97" y1="80.1676" x2="422.378" y2="-114.729" gradientUnits="userSpaceOnUse">
<stop stop-color="#CD55A7"/>
<stop offset="1" stop-color="#CD55A7" stop-opacity="0.66"/>
</linearGradient>
<linearGradient id="paint16_linear_20_1176" x1="391.421" y1="-37.9913" x2="431.768" y2="72.5937" gradientUnits="userSpaceOnUse">
<stop stop-color="#FE86D2"/>
<stop offset="0.963542" stop-color="#AB2178"/>
</linearGradient>
<linearGradient id="paint17_linear_20_1176" x1="434.382" y1="-65.1153" x2="378.558" y2="62.0299" gradientUnits="userSpaceOnUse">
<stop stop-color="#AD3278"/>
<stop offset="0.54" stop-color="#FDEAF1"/>
<stop offset="1" stop-color="#CB4395"/>
</linearGradient>
<linearGradient id="paint18_linear_20_1176" x1="1338.94" y1="400.986" x2="1339.2" y2="460.957" gradientUnits="userSpaceOnUse">
<stop stop-color="#CD54A6"/>
<stop offset="1" stop-color="#E190C3"/>
</linearGradient>
<linearGradient id="paint19_linear_20_1176" x1="1311.79" y1="451.868" x2="1378.63" y2="416.538" gradientUnits="userSpaceOnUse">
<stop stop-color="#832F5D"/>
<stop offset="0.54" stop-color="#DF87C0"/>
<stop offset="1" stop-color="#A73674"/>
</linearGradient>
<linearGradient id="paint20_linear_20_1176" x1="394.8" y1="284" x2="394.8" y2="361.024" gradientUnits="userSpaceOnUse">
<stop stop-color="#CD5AA8"/>
<stop offset="1" stop-color="#CC53A5"/>
</linearGradient>
<linearGradient id="paint21_linear_20_1176" x1="357.5" y1="311" x2="414.324" y2="358.082" gradientUnits="userSpaceOnUse">
<stop stop-color="#AD3278"/>
<stop offset="0.54" stop-color="#F5D1E3"/>
<stop offset="1" stop-color="#AD3278"/>
</linearGradient>
<linearGradient id="paint22_linear_20_1176" x1="394.799" y1="290.36" x2="394.799" y2="354.673" gradientUnits="userSpaceOnUse">
<stop stop-color="#DE82BE"/>
<stop offset="1" stop-color="#CD54A6"/>
</linearGradient>
<linearGradient id="paint23_linear_20_1176" x1="394.803" y1="289.603" x2="394.803" y2="355.431" gradientUnits="userSpaceOnUse">
<stop stop-color="#F488D1"/>
<stop offset="1" stop-color="#C86EA0"/>
</linearGradient>
<linearGradient id="paint24_linear_20_1176" x1="1165.77" y1="228" x2="1165.77" y2="332.196" gradientUnits="userSpaceOnUse">
<stop stop-color="#CD5AA8"/>
<stop offset="1" stop-color="#CC53A5"/>
</linearGradient>
<linearGradient id="paint25_linear_20_1176" x1="1216.23" y1="264.525" x2="1139.36" y2="328.217" gradientUnits="userSpaceOnUse">
<stop stop-color="#AD3278"/>
<stop offset="0.54" stop-color="#F5D1E3"/>
<stop offset="1" stop-color="#AD3278"/>
</linearGradient>
<linearGradient id="paint26_linear_20_1176" x1="1165.77" y1="236.604" x2="1165.77" y2="323.606" gradientUnits="userSpaceOnUse">
<stop stop-color="#DE82BE"/>
<stop offset="1" stop-color="#CD54A6"/>
</linearGradient>
<linearGradient id="paint27_linear_20_1176" x1="1165.77" y1="235.579" x2="1165.77" y2="324.631" gradientUnits="userSpaceOnUse">
<stop stop-color="#F488D1"/>
<stop offset="1" stop-color="#C86EA0"/>
</linearGradient>
<clipPath id="clip0_20_1176">
<rect width="1600" height="672" fill="white"/>
</clipPath>
</defs>
</svg>
