<svg width="55" height="25" viewBox="0 0 55 25" fill="none" xmlns="http://www.w3.org/2000/svg">
<path fill-rule="evenodd" clip-rule="evenodd" d="M11.4415 0.497177L0.503411 11.2997C-0.167804 11.9626 -0.167804 13.0374 0.503412 13.7003L11.4415 24.5028C12.1127 25.1657 13.2009 25.1657 13.8721 24.5028C14.5434 23.8399 14.5434 22.7652 13.8721 22.1023L5.86818 14.1975L53.2813 14.1975C54.2305 14.1975 55 13.4375 55 12.5C55 11.5625 54.2305 10.8025 53.2813 10.8025L5.86818 10.8025L13.8721 2.89774C14.5434 2.23484 14.5434 1.16007 13.8721 0.497177C13.2009 -0.165721 12.1127 -0.165721 11.4415 0.497177Z" fill="url(#paint0_linear_50_2819)"/>
<defs>
<linearGradient id="paint0_linear_50_2819" x1="52.5126" y1="-6.27828e-06" x2="1.31524" y2="13.6523" gradientUnits="userSpaceOnUse">
<stop stop-color="#4D3CB8"/>
<stop offset="1" stop-color="#FF23CF"/>
</linearGradient>
</defs>
</svg>
