<svg width="55" height="25" viewBox="0 0 55 25" fill="none" xmlns="http://www.w3.org/2000/svg">
<path fill-rule="evenodd" clip-rule="evenodd" d="M43.5585 0.497177L54.4966 11.2997C55.1678 11.9626 55.1678 13.0374 54.4966 13.7003L43.5585 24.5028C42.8873 25.1657 41.7991 25.1657 41.1279 24.5028C40.4566 23.8399 40.4566 22.7652 41.1279 22.1023L49.1318 14.1975L1.71875 14.1975C0.769509 14.1975 -1.17474e-06 13.4375 -1.09278e-06 12.5C-1.01083e-06 11.5625 0.76951 10.8025 1.71875 10.8025L49.1318 10.8025L41.1279 2.89774C40.4566 2.23484 40.4566 1.16007 41.1279 0.497177C41.7991 -0.165721 42.8873 -0.165721 43.5585 0.497177Z" fill="url(#paint0_linear_25_3406)"/>
<defs>
<linearGradient id="paint0_linear_25_3406" x1="2.48744" y1="-6.27828e-06" x2="53.6848" y2="13.6523" gradientUnits="userSpaceOnUse">
<stop stop-color="#4D3CB8"/>
<stop offset="1" stop-color="#FF23CF"/>
</linearGradient>
</defs>
</svg>
