<svg width="343" height="98" viewBox="0 0 343 98" fill="none" xmlns="http://www.w3.org/2000/svg">
<path d="M329.86 39.0925C328.075 39.0925 326.375 39.5647 324.767 40.5153C323.164 41.4659 321.911 42.7333 321.006 44.3425C320.107 45.9516 319.654 47.741 319.654 49.7167C319.654 52.6368 320.651 55.1033 322.645 57.1101C324.638 59.1231 327.041 60.1296 329.854 60.1296C331.738 60.1296 333.474 59.6699 335.071 58.7441C336.673 57.8184 337.92 56.551 338.813 54.948C339.706 53.3451 340.158 51.5619 340.158 49.5986C340.158 47.6354 339.706 45.8833 338.813 44.3052C337.92 42.7271 336.654 41.4659 335.034 40.5215C333.407 39.5709 331.683 39.0987 329.86 39.0987V39.0925Z" fill="white"/>
<path d="M329.75 36.6946C333.413 36.6946 336.483 37.9372 338.948 40.4224C341.412 42.9075 342.653 45.9643 342.653 49.5989C342.653 53.2335 341.424 56.253 338.96 58.763C336.495 61.2668 333.493 62.5281 329.946 62.5281C326.399 62.5281 323.33 61.2793 320.865 58.7817C318.401 56.284 317.159 53.2645 317.159 49.7232C317.159 47.3622 317.722 45.1753 318.847 43.1498C319.972 41.1368 321.507 39.5525 323.452 38.4094C325.39 37.2662 327.494 36.6946 329.75 36.6946Z" fill="#FC23CE"/>
<path d="M300.165 37.3096H314.022V39.7078H302.593V47.4118H313.924V49.8101H302.593V59.5085H313.924V61.9067H300.165V37.3096Z" fill="white"/>
<path d="M295.279 41.8449L293.371 43.336C292.32 41.9443 291.054 40.8881 289.58 40.1674C288.106 39.4467 286.492 39.0863 284.718 39.0863C282.792 39.0863 281.007 39.5585 279.356 40.5029C277.711 41.4472 276.439 42.7147 275.534 44.299C274.629 45.8833 274.176 47.6788 274.176 49.6608C274.176 52.6616 275.185 55.1717 277.209 57.1722C279.233 59.179 281.783 60.1855 284.865 60.1855C288.253 60.1855 291.084 58.8373 293.365 56.1409L295.273 57.6134C294.062 59.1728 292.558 60.3843 290.754 61.2355C288.95 62.0867 286.932 62.5154 284.706 62.5154C280.468 62.5154 277.124 61.0802 274.684 58.216C272.635 55.7992 271.602 52.8791 271.602 49.4557C271.602 45.8584 272.843 42.8265 275.326 40.3724C277.815 37.9121 280.927 36.6819 284.67 36.6819C286.926 36.6819 288.968 37.1354 290.791 38.0363C292.613 38.9434 294.105 40.2108 295.267 41.8386L295.279 41.8449Z" fill="white"/>
<path d="M255.935 43.7153H258.228V61.9069H255.935V43.7153Z" fill="white"/>
<path d="M257.072 36.2471C257.592 36.2471 258.038 36.4335 258.411 36.8187C258.784 37.1977 258.968 37.6574 258.968 38.1917C258.968 38.726 258.784 39.1734 258.411 39.5524C258.038 39.9376 257.598 40.124 257.072 40.124C256.546 40.124 256.118 39.9376 255.745 39.5524C255.372 39.1734 255.188 38.7198 255.188 38.1917C255.188 37.6636 255.372 37.1977 255.745 36.8187C256.118 36.4335 256.552 36.2471 257.072 36.2471Z" fill="white"/>
<path d="M239.344 36.6946H241.638V51.0652L249.997 43.7152H253.336L243.484 52.3823L253.911 61.9068H250.645L241.638 53.6746V61.9068H239.344V36.6946Z" fill="white"/>
<path d="M225.751 45.5669C223.837 45.5669 222.192 46.2814 220.816 47.7104C219.44 49.1456 218.755 50.879 218.755 52.9106C218.755 54.2153 219.067 55.4393 219.691 56.5763C220.321 57.707 221.171 58.583 222.235 59.1981C223.299 59.8132 224.473 60.1239 225.745 60.1239C227.017 60.1239 228.197 59.8132 229.255 59.1981C230.325 58.583 231.169 57.707 231.799 56.5763C232.422 55.4393 232.734 54.2153 232.734 52.9106C232.734 50.879 232.043 49.1456 230.661 47.7104C229.285 46.2752 227.647 45.5669 225.739 45.5669H225.751Z" fill="white"/>
<path d="M225.757 43.2676C228.515 43.2676 230.808 44.2803 232.624 46.3057C234.275 48.151 235.101 50.3379 235.101 52.8604C235.101 55.3829 234.232 57.6133 232.483 59.5083C230.741 61.4032 228.496 62.3538 225.757 62.3538C223.017 62.3538 220.749 61.4032 219.006 59.5083C217.257 57.6133 216.388 55.3953 216.388 52.8604C216.388 50.3255 217.214 48.1696 218.865 46.3244C220.681 44.2865 222.981 43.2676 225.757 43.2676Z" fill="#FC23CE"/>
<path d="M210.182 36.6946H212.475V61.9068H210.182V36.6946Z" fill="white"/>
<path d="M194.545 37.3096H206.683V39.7078H196.973V47.4118H206.683V49.8101H196.973V61.9067H194.545V37.3096Z" fill="white"/>
<path d="M167.914 36.6946H170.207V51.0652L178.566 43.7152H181.905L172.054 52.3823L182.48 61.9068H179.214L170.207 53.6746V61.9068H167.914V36.6946Z" fill="white"/>
<path d="M147.355 43.7153H149.648V46.9771C150.577 45.7345 151.599 44.8026 152.718 44.1937C153.843 43.5848 155.06 43.2742 156.381 43.2742C157.702 43.2742 158.912 43.6159 159.952 44.3055C160.991 44.9952 161.762 45.9271 162.257 47.0951C162.753 48.257 162.997 50.0836 162.997 52.5501V61.9006H160.704V53.2335C160.704 51.146 160.612 49.7481 160.441 49.046C160.16 47.8469 159.646 46.946 158.882 46.3372C158.123 45.7345 157.133 45.4301 155.916 45.4301C154.516 45.4301 153.262 45.896 152.161 46.8342C151.054 47.7661 150.321 48.9218 149.978 50.3072C149.758 51.2081 149.648 52.8546 149.648 55.2465V61.9068H147.355V43.7153Z" fill="white"/>
<path d="M140.267 43.7153H142.561V61.9069H140.267V43.7153Z" fill="white"/>
<path d="M141.411 36.2471C141.931 36.2471 142.377 36.4335 142.75 36.8187C143.123 37.1977 143.306 37.6574 143.306 38.1917C143.306 38.726 143.123 39.1734 142.75 39.5524C142.377 39.9376 141.937 40.124 141.411 40.124C140.885 40.124 140.457 39.9376 140.084 39.5524C139.711 39.1734 139.527 38.7198 139.527 38.1917C139.527 37.6636 139.711 37.1977 140.084 36.8187C140.457 36.4335 140.891 36.2471 141.411 36.2471Z" fill="white"/>
<path d="M123.451 39.7078V48.0642L127.554 48.1139C129.211 48.1139 130.428 47.9586 131.192 47.6541C131.963 47.3435 132.568 46.8527 133.009 46.1692C133.449 45.4858 133.669 44.7154 133.669 43.8704C133.669 43.0255 133.449 42.2861 133.009 41.6027C132.568 40.9193 131.987 40.4347 131.266 40.1427C130.544 39.8507 129.37 39.7078 127.731 39.7078H123.451Z" fill="white"/>
<path d="M121.023 37.3096H125.848C128.612 37.3096 130.483 37.4276 131.449 37.6761C132.831 38.0241 133.963 38.7323 134.837 39.8134C135.718 40.8882 136.158 42.2427 136.158 43.8642C136.158 45.4858 135.73 46.8527 134.874 47.9151C134.018 48.9775 132.838 49.692 131.339 50.0648C130.239 50.3319 128.19 50.4624 125.181 50.4624H123.451V61.9005H121.023V37.3096Z" fill="#FC23CE"/>
<path d="M7.52514 37.6673C7.2511 37.8746 6.96548 38.0858 6.67985 38.3284C5.65315 39.1967 4.77313 40.2215 3.99345 41.1329C3.05167 42.2398 2.21024 43.5814 1.42285 45.2321C1.05617 45.9048 0.766684 46.5541 0.546677 47.2073L0.318951 47.751C0.318951 47.751 0.303512 47.7902 0.295792 47.8058C0.187719 48.0835 0.145261 48.373 0.156841 48.6507C0.102804 48.9323 0.064206 49.2178 0.0371876 49.4995C-0.00141007 49.9063 -0.00912961 50.3248 0.0101692 50.7746C0.0101692 50.7863 0.0101692 50.7942 0.0101692 50.8059C0.0371876 51.3574 0.114383 51.9324 0.237896 52.5191C0.241756 52.5543 0.249475 52.5856 0.257195 52.6169C0.264914 52.656 0.276493 52.6951 0.280353 52.7108C0.295792 52.7812 0.311231 52.8477 0.33053 52.9181C0.33439 52.9376 0.33825 52.9572 0.345969 52.9807L0.361408 53.0432C0.403866 53.2075 0.446323 53.3718 0.492641 53.5283L0.565976 53.7786C0.604574 53.9038 0.643172 54.025 0.685629 54.1502L0.735806 54.3027C0.778264 54.4318 0.824581 54.5609 0.870898 54.69L0.886337 54.7369C1.21056 55.6365 1.5811 56.4931 1.93234 57.2911C3.62291 61.1439 6.29774 65.0436 10.3544 69.573C14.0752 73.727 18.375 77.0283 21.7059 79.4416C24.1955 81.2487 26.2875 82.6099 28.283 83.7208C29.3444 84.3114 30.5024 84.8825 31.8301 85.4692C32.0617 85.5709 32.3049 85.6687 32.548 85.7704C33.0073 85.9581 33.4435 86.138 33.8218 86.3414C34.1151 86.6426 34.3891 86.9125 34.6593 87.1628C34.6593 87.1668 34.6593 87.1707 34.6593 87.1785L34.6246 87.3897C34.6053 87.5188 34.586 87.6479 34.5706 87.7769L34.5474 87.9843C34.532 88.1212 34.5204 88.2581 34.5088 88.4028C34.5049 88.4693 34.5011 88.5358 34.4972 88.5827C34.4895 88.7313 34.4856 88.88 34.4818 89.013C34.4818 89.0834 34.4818 89.1499 34.4818 89.2164C34.4818 89.3689 34.4895 89.5175 34.4972 89.6662C34.4972 89.717 34.5049 89.7679 34.5127 89.8539C34.5242 90.0104 34.5435 90.1668 34.5628 90.3194C34.5706 90.3702 34.5783 90.4211 34.5937 90.4954C34.6207 90.6597 34.6516 90.8201 34.6941 91.0039L34.7288 91.1408C34.7713 91.309 34.8176 91.4811 34.8755 91.6532C34.8909 91.7001 34.9064 91.7432 34.9179 91.7745C34.9797 91.9544 35.0492 92.1343 35.1225 92.3025C35.1341 92.326 35.1457 92.3573 35.1611 92.3885C35.3502 92.8149 35.5664 93.206 35.8173 93.5894C37.6005 96.2804 40.7308 97.8881 44.193 97.8881C44.8375 97.8881 45.486 97.8294 46.119 97.7199C46.1499 97.716 46.1769 97.712 46.2078 97.7042C46.2464 97.6964 46.285 97.6886 46.3236 97.6807C46.5744 97.6338 46.7983 97.583 47.0067 97.5243C47.0453 97.5126 47.0878 97.5008 47.1418 97.4852C47.3734 97.4226 47.605 97.3522 47.8173 97.2779C47.8829 97.2544 47.9485 97.2309 48.0103 97.2036L48.1029 97.1684C48.2805 97.1019 48.458 97.0354 48.624 96.961C48.8826 96.8476 49.1373 96.7224 49.3766 96.5894C52.2174 95.1813 54.0084 92.2986 54.047 89.056C54.0508 88.6688 54.0354 88.2659 53.9968 87.8513C55.0273 86.9282 55.9305 85.8173 56.633 84.6126C59.9061 83.7755 62.9901 82.1562 66.1203 80.4312C68.9264 78.8823 71.6784 76.9383 74.303 74.6501C80.0811 69.5965 83.829 64.3982 85.4539 59.196C85.4578 59.1881 85.4655 59.1764 85.4694 59.1686C85.4809 59.1451 85.4925 59.1255 85.5041 59.1021C85.5465 59.016 85.5813 58.93 85.6122 58.8361C85.8052 58.2377 85.9943 57.6353 86.1834 57.0368L86.1989 56.9938C86.1989 56.9938 86.2066 56.9625 86.2143 56.9469C86.388 56.3914 86.5501 55.8321 86.7122 55.261L86.7315 55.1945C86.8396 54.8073 86.9438 54.4201 87.0364 54.0563C87.0364 54.0485 87.0441 54.0211 87.048 54.0133C87.0557 53.9898 87.0596 53.9624 87.0673 53.935C87.1599 53.5556 87.2564 53.1762 87.3375 52.7929L87.434 52.3431C87.6771 51.2283 87.928 50.0744 87.9473 48.8071C87.9782 47.1721 87.3336 45.7679 86.7238 44.5749C85.2918 41.7704 83.1149 39.7756 81.0113 37.8472C80.5134 37.3896 80.0155 36.9359 79.5562 36.4939C79.4983 36.4352 79.4327 36.3726 79.3864 36.3296C78.7341 35.6959 78.186 35.1171 77.7074 34.546C77.5954 34.4169 77.4874 34.2839 77.387 34.1587C77.3716 34.1392 77.3523 34.1157 77.3368 34.0962C77.5568 33.3608 77.7845 32.6176 78.0084 31.9018C78.7379 29.5511 79.4906 27.1181 79.9692 24.5639C80.6176 21.0788 80.9032 17.5233 80.8145 13.9874C80.7797 12.5832 80.6601 11.179 80.5481 9.82559L80.4632 8.80861C80.3204 7.04064 80.1583 5.44867 79.6372 3.888C79.6257 3.85671 79.6179 3.82542 79.6064 3.79022C79.6064 3.78631 79.6064 3.7824 79.6025 3.77457L79.5214 3.46557L79.5099 3.42254L79.4597 3.24261C79.4404 3.1683 79.4172 3.09398 79.3902 3.01184L79.3632 2.92579C79.3285 2.82018 79.2899 2.71457 79.259 2.63243C79.2513 2.60505 79.2397 2.57767 79.2281 2.5542C79.1818 2.44077 79.1355 2.33125 79.0814 2.22564C79.0737 2.20999 79.066 2.19435 79.0583 2.1787C78.9888 2.03789 78.9039 1.89707 78.8112 1.76409C78.8035 1.75235 78.792 1.73671 78.7881 1.72888C78.3172 1.05611 77.7421 0.758842 77.3368 0.625853C76.9007 0.48504 76.4298 0.422457 75.9357 0.442014C75.5034 0.383342 75.0557 0.352051 74.6041 0.352051C72.6742 0.352051 70.7984 0.907477 69.2159 1.44726C66.6105 2.34298 64.2676 3.66896 62.5153 4.72897C60.2689 6.08624 58.2039 7.69776 56.3783 9.5205C55.0389 10.8543 53.5683 12.415 52.3795 14.183C49.9865 13.5063 47.2345 13.1738 44.0193 13.1738C43.448 13.1738 42.8459 13.1855 42.2283 13.2051C39.7658 13.2833 37.2492 13.6236 34.7558 14.2103C33.7639 14.445 32.8337 14.7149 31.9691 15.02C31.8726 14.8831 31.7761 14.7423 31.6796 14.6054C30.7957 13.3303 29.8848 12.0121 28.8041 10.7839C27.2717 9.0433 25.6159 7.43178 23.879 5.99628C22.5744 4.91672 21.1887 4.01317 19.8455 3.13701C19.4711 2.8945 19.1006 2.64807 18.7262 2.40165C17.4679 1.56851 15.9935 0.67279 14.2797 0.500686C13.5811 0.312936 12.8709 0.37552 12.2032 0.676701C10.8214 1.30253 10.1922 2.86712 9.77153 3.90365C9.72907 4.01317 9.68661 4.11487 9.64802 4.20874C9.61714 4.26742 9.59012 4.33 9.56696 4.39258C8.16586 7.51783 7.22408 11.0851 6.76477 15.0004C6.37879 18.2782 6.37879 21.5013 6.76477 24.5757L6.80723 24.8925C6.85354 25.2445 6.90758 25.5927 6.96548 25.9408C6.99249 26.1011 7.01951 26.2615 7.05039 26.4258C7.09671 26.68 7.14689 26.9382 7.19706 27.1846C7.24338 27.4115 7.29356 27.6383 7.34373 27.8691C7.38233 28.0295 7.41707 28.1938 7.45953 28.3541C7.53672 28.6631 7.61778 28.9722 7.70269 29.2733C7.73743 29.3985 7.77217 29.5237 7.81849 29.6762C7.91112 29.9891 8.00762 30.302 8.11569 30.6189L8.21604 30.9044C8.32026 31.2095 8.43219 31.5146 8.55184 31.8197L8.64834 32.0661C8.78729 32.4103 8.93396 32.7506 9.08835 33.0909L9.20028 33.3373C9.36625 33.6933 9.53608 34.0336 9.70591 34.3582L9.80627 34.5421C9.83715 34.5968 9.86416 34.6516 9.89504 34.7024C9.51678 35.4143 9.20028 35.9658 8.8722 36.4704C8.60202 36.8928 8.10797 37.2644 7.53672 37.6947L7.52514 37.6673Z" fill="white"/>
<path d="M86.0897 48.8135C86.1128 47.6236 85.6032 46.5236 85.0743 45.4863C82.8157 41.0671 78.256 38.695 75.4453 34.7298C75.3604 34.6123 75.2832 34.491 75.2021 34.3696C75.287 34.3266 75.3565 34.2483 75.3913 34.1348C76.3526 30.8233 77.5031 27.637 78.1363 24.2354C78.7579 20.8848 79.0359 17.4597 78.951 14.0543C78.9085 12.3594 78.7425 10.6645 78.6073 8.97348C78.4877 7.48995 78.3448 5.91639 77.8699 4.49549C77.6692 3.88094 77.5147 2.6675 76.7812 2.42872C76.4762 2.33086 76.1712 2.31521 75.8623 2.33869C73.8276 2.00597 71.7659 2.56964 69.8278 3.23507C67.6039 4.00228 65.4959 5.13744 63.4806 6.35088C61.3841 7.61912 59.4344 9.13397 57.697 10.868C56.033 12.5277 54.3419 14.3557 53.203 16.4381C49.763 15.1738 45.8751 14.9781 42.2884 15.0955C39.8985 15.1738 37.5048 15.5065 35.1767 16.0545C33.8949 16.3559 32.5475 16.763 31.2811 17.3149C29.9993 15.5456 28.8411 13.6824 27.401 12.0384C25.9493 10.3866 24.3779 8.85214 22.6869 7.45472C21.1155 6.15125 19.3859 5.10221 17.691 3.97488C16.5829 3.23899 15.2779 2.44046 13.9189 2.35826C13.6294 2.25258 13.3205 2.22909 12.9614 2.39349C12.1082 2.78101 11.6372 4.32326 11.2935 5.09047C9.85731 8.2689 9.0195 11.7527 8.61412 15.2129C7.85739 21.6833 8.55234 28.9718 11.9846 34.6084C11.9962 34.6241 12.0078 34.6319 12.0194 34.6476C11.5213 35.6261 11.0117 36.593 10.4249 37.5089C9.79167 38.4993 8.74538 39.0864 7.86897 39.8223C6.9694 40.5817 6.16634 41.5172 5.40189 42.4097C4.45213 43.5292 3.71084 44.8092 3.07767 46.1439C2.76494 46.7154 2.49082 47.3104 2.28619 47.9289C2.20125 48.1324 2.11632 48.336 2.02752 48.5434C2.00435 48.6021 2.03138 48.6491 2.06999 48.6726C1.98505 49.0171 1.92714 49.3654 1.88853 49.7295C1.6646 52.0546 2.72247 54.505 3.62977 56.5756C5.53316 60.9088 8.60253 64.8701 11.7298 68.3617C15.0038 72.0177 18.8338 75.1061 22.7873 77.9714C24.8451 79.4627 26.9608 80.8993 29.1808 82.1362C30.2812 82.7508 31.4163 83.2988 32.5668 83.8037C33.339 84.1443 34.2154 84.4457 34.9644 84.8958C35.4972 85.4556 36.0493 85.9918 36.64 86.4694C38.0839 87.628 39.8213 88.2386 41.6012 88.6301C43.493 89.0489 45.4581 89.1429 47.3886 89.0411C48.3692 88.9902 49.2727 88.6653 50.1105 88.1995C52.3768 87.2561 54.3226 85.2403 55.4114 82.9934C55.4539 82.9934 55.4925 82.9974 55.5349 82.9934C58.9363 82.2536 62.1988 80.5039 65.2372 78.8286C68.0518 77.2746 70.6656 75.3918 73.0941 73.2742C77.5224 69.399 81.9624 64.3456 83.7307 58.5328C83.7693 58.4545 83.8079 58.3762 83.8465 58.2979C84.4681 56.3603 85.0936 54.4345 85.5183 52.4304C85.7769 51.2247 86.0665 50.0426 86.0897 48.8057V48.8135Z" fill="#FC23CE"/>
<path d="M56.9925 75.003C56.9616 74.8659 56.8575 74.7445 56.6801 74.7405C55.292 74.7053 53.9039 74.6779 52.5351 74.3919C51.3436 74.149 50.1907 73.6828 49.0532 73.2479C46.8669 72.4057 44.6498 71.5751 42.2746 71.9356C38.0717 72.5702 35.3687 76.7385 30.946 76.8443C30.7648 76.8521 30.7223 77.1498 30.9113 77.1734C30.9229 77.1734 30.9306 77.1734 30.9383 77.1734C33.0474 78.9519 35.4111 80.3152 37.7092 81.8274C40.0343 83.3553 42.691 84.5815 45.5251 84.3974C48.1047 84.2289 49.8976 82.2623 51.8102 80.7501C52.8435 79.9313 54.0157 79.3163 55.0221 78.4505C55.9745 77.6317 56.6801 76.4956 57.0811 75.3008C57.1236 75.1676 57.0773 75.0618 56.9963 74.9952L56.9925 75.003Z" fill="#68151A"/>
<path d="M54.5014 77.9647C53.4873 78.8736 52.2535 79.4808 51.1892 80.3231C49.2883 81.8274 47.7035 83.5355 45.1509 83.704C42.4749 83.8802 39.9185 82.4307 37.7284 81.0439C35.6462 79.7237 33.4715 78.5719 31.4086 77.2164C35.3184 77.4084 38.1371 73.8121 41.7038 72.723C44.3181 71.9277 47.0442 73.1892 49.4425 74.1216C51.7329 75.0109 53.9038 75.383 56.3253 75.4026C55.8086 76.3428 55.3227 77.2282 54.5014 77.9647ZM56.9885 75.003C56.9576 74.8659 56.8535 74.7445 56.6762 74.7405C55.288 74.7053 53.8999 74.6779 52.5311 74.3919C51.3396 74.149 50.1867 73.6828 49.0492 73.2479C46.8629 72.4057 44.6458 71.5751 42.2706 71.9356C38.0677 72.5702 35.3647 76.7385 30.942 76.8443C30.7569 76.8521 30.7145 77.1498 30.9073 77.1734C30.9189 77.1734 30.9266 77.1734 30.9343 77.1734C33.0435 78.9519 35.4071 80.3152 37.7052 81.8274C40.0303 83.3553 42.687 84.5815 45.5211 84.3974C48.1007 84.2289 49.8937 82.2623 51.8062 80.7501C52.8396 79.9313 54.0117 79.3163 55.0181 78.4505C55.9705 77.6317 56.68 76.4956 57.0772 75.3047C57.1196 75.1715 57.0733 75.0657 56.9885 74.9991V75.003Z" fill="#AC5C1A"/>
<path d="M83.8481 58.0429C84.3501 56.4651 84.8522 54.8872 85.2538 53.2778C85.8022 50.0905 85.474 46.9702 82.3651 45.1912C81.0095 44.4141 79.5188 43.9762 78.0551 43.4673C76.7922 43.0216 75.5178 42.5916 74.2279 42.2445C71.3816 41.4753 68.1684 40.8638 65.3646 42.1025C65.1947 42.1774 64.9861 42.0275 65.0479 41.8184C65.8281 39.3254 65.7508 36.6746 63.4954 34.0711C62.0665 32.4183 59.8034 30.7181 57.5943 30.4656C50.1677 29.6057 54.4043 40.0591 55.1883 43.3805C55.1999 43.416 55.1999 43.4476 55.1922 43.4792C55.3003 43.562 55.3466 43.7158 55.2076 43.8145C54.5433 44.2839 53.1762 45.0649 53.4697 46.0984C53.6474 46.7296 54.2151 47.0018 54.6322 47.4396C55.3659 48.2049 55.4277 49.199 55.2424 50.2246C54.9952 51.5894 54.5047 52.8793 53.9911 54.1574C53.5238 55.3172 52.9986 59.7549 52.4772 60.8871C52.1142 61.6721 51.8091 59.3289 50.9362 59.6011C49.6425 60.0113 48.3796 59.3802 47.1592 59.0015C45.2553 58.4059 43.1737 57.8378 41.1732 58.1376C40.5977 58.2244 40.03 58.3506 39.4623 58.4729C39.4314 58.5518 39.358 58.611 39.2499 58.611C39.0993 58.607 38.9371 58.611 38.7749 58.6228C37.9832 58.7885 37.1914 58.9305 36.3766 58.9463C36.2916 58.9463 36.2337 58.9108 36.2028 58.8555C35.3879 58.8792 34.6039 58.7964 33.9667 58.4098C32.2365 57.3566 31.9971 54.4612 31.746 52.6387C31.4641 50.5323 31.5761 48.9662 32.7618 47.2029C33.2368 46.4968 33.8895 45.7395 34.1173 44.8992C34.4726 43.5778 33.2252 42.9545 32.2172 42.5285C32.1129 42.4812 32.0164 42.3549 32.0743 42.2366C33.3063 39.6331 37.1103 32.3394 34.3568 30.1461C30.2553 26.876 18.8432 33.6372 23.2265 40.6311C23.3038 40.7613 23.1338 40.9112 22.9909 40.9112C15.3017 40.7968 3.92432 41.8303 1.85815 50.4336C1.9547 52.4652 2.8391 54.5361 3.61922 56.3231C5.52318 60.6898 8.59345 64.6818 11.7217 68.2005C14.9966 71.8848 18.8277 74.9972 22.7824 77.8847C24.8408 79.3876 26.9572 80.8353 29.1778 82.0818C30.2785 82.7012 31.4139 83.2534 32.5648 83.7623C33.3372 84.1055 34.2139 84.4092 34.9631 84.8629C35.4999 85.4269 36.0483 85.9674 36.6392 86.4486C38.0836 87.6162 39.8215 88.2316 41.6018 88.6261C43.4942 89.0482 45.46 89.1428 47.3909 89.0403C48.3719 88.989 49.2756 88.6616 50.1136 88.1922C52.3806 87.2415 54.3271 85.21 55.4162 82.9457C55.4586 82.9457 55.4972 82.9497 55.5397 82.9457C58.9421 82.2002 62.2055 80.4369 65.241 78.7486C68.0564 77.1826 70.671 75.2852 73.1002 73.1511C77.5299 69.2458 81.9712 64.1533 83.7399 58.2954C83.7786 58.2165 83.8172 58.1376 83.8558 58.0587L83.8481 58.0429Z" fill="white"/>
<path d="M65.0323 64.9019C65.0323 63.1331 64.7275 61.3218 64.1751 59.5183C63.4245 57.0761 62.2205 54.7926 60.8108 52.6833C59.4315 50.6166 57.7855 48.7124 56.151 46.8469C55.6824 46.3128 55.1985 45.7864 54.707 45.2756C54.4936 45.5194 54.2726 45.7594 54.0555 46.0071C53.5487 46.5953 52.9201 47.3888 53.1982 48.2286C53.4001 48.8401 53.9374 49.3278 54.025 49.9819C54.1317 50.7443 54.044 51.3829 53.7697 52.095C53.3468 53.1981 53.1944 54.394 53.0496 55.559C52.7943 57.6102 52.6191 59.6692 52.0514 61.6624C52.0209 61.7592 51.9256 61.8211 51.8266 61.8172C48.8395 61.6276 45.8257 61.287 42.8309 61.287C40.1791 61.2909 37.5121 61.4999 34.8831 61.078C35.0317 61.6237 35.226 62.0533 35.4927 62.1114C35.7747 62.1694 35.6261 62.599 35.3441 62.5371C34.8564 62.4404 34.6088 61.674 34.464 61.0083C34.3878 60.9929 34.3116 60.9851 34.2354 60.9696C33.9573 60.9116 34.0982 60.4897 34.3726 60.54C34.3497 60.4007 34.3268 60.2807 34.3078 60.1878C33.9496 58.3959 33.7286 56.5768 33.5343 54.7578C33.3743 53.2639 33.3781 51.7274 32.8409 50.3224C32.5437 49.5484 32.0713 48.6466 32.4675 47.8416C32.6961 47.3694 33.1838 47.114 33.3553 46.5953C33.6143 45.8019 33.7477 45.1169 33.3667 44.4009C32.8028 44.904 32.2427 45.4149 31.6979 45.9296C29.7395 47.7797 27.9106 49.7496 26.3676 51.9789C24.4816 54.6998 22.8585 57.7418 22.0622 60.989C21.5859 62.928 21.5783 64.8593 21.8945 66.7519C21.9402 67.6188 22.0583 68.4819 22.3022 69.3334C22.7365 70.8389 23.6891 72.1626 24.7025 73.3198C26.7143 75.6226 29.4042 77.4145 32.2808 78.3589C34.7917 79.1833 37.5273 79.0749 39.8286 77.7203C41.0821 76.9811 42.1642 75.82 42.8614 74.5428C42.9148 74.4422 42.9567 74.3338 43.0062 74.2332C43.3758 75.5142 44.6445 76.4895 45.719 77.1088C47.2697 77.999 49.0681 78.4247 50.775 78.8737C51.7466 79.1291 52.6838 79.0052 53.5716 78.6801C54.1583 78.5137 54.7413 78.3047 55.3052 78.1189C55.9453 77.8364 56.5663 77.5307 57.1569 77.2249C58.8638 76.3386 60.3878 75.1001 61.6833 73.6758C64.0189 71.0982 65.0209 68.0716 65.0247 64.9057L65.0323 64.9019Z" fill="white"/>
<path d="M62.2428 17.5643C61.8916 18.695 61.5838 19.1706 62.8584 19.9348C64.1291 20.699 69.2551 24.3951 70.9204 27.7209C72.5817 31.0388 74.4837 25.1164 75.1309 18.2193C75.7741 11.3261 76.0385 4.95532 73.3907 6.16397C70.7428 7.37262 64.2514 11.0961 62.2468 17.5643H62.2428Z" fill="white"/>
<path d="M14.4483 31.1862C14.4483 31.1862 17.5065 25.3386 21.9934 21.3228C22.8545 20.5517 23.3565 19.581 22.3873 17.6592C21.4181 15.7374 18.0046 9.31835 15.1936 8.58642C12.3825 7.8584 11.3476 14.6845 11.9191 19.8237C12.4829 24.959 14.4483 31.1862 14.4483 31.1862Z" fill="white"/>
<path d="M73.4227 6.28857C70.6503 7.31106 68.0862 9.35603 66.0657 11.5068C63.9719 13.7359 61.8975 16.4468 61.7509 19.624C61.7432 19.7729 61.9476 19.7689 61.9862 19.6514C62.5298 18.1706 62.9501 16.7877 63.7714 15.4322C64.5426 14.159 65.4526 12.9759 66.4358 11.8672C68.4795 9.56367 70.8393 7.91437 73.4574 6.37476C73.4998 6.35126 73.469 6.2729 73.4188 6.29249L73.4227 6.28857Z" fill="#AC5C1A"/>
<path d="M76.2486 35.6193C75.9324 35.251 75.6317 34.871 75.3502 34.4714C75.2653 34.3539 75.1882 34.2324 75.1073 34.111C75.1921 34.0679 75.2615 33.9935 75.2962 33.8759C76.2563 30.5617 77.4054 27.3728 78.0377 23.9684C78.6585 20.615 78.9361 17.1871 78.8513 13.7788C78.8513 13.6965 78.8436 13.6143 78.8397 13.532C78.7472 16.5563 78.485 19.5533 77.6136 22.417C77.4709 23.2632 77.3128 24.1055 77.1393 24.9478C76.5224 27.8429 75.4774 30.5813 74.6407 33.4058C73.5109 31.6312 72.5547 29.7468 71.394 27.9917C70.0522 25.9585 68.2746 24.2936 66.3968 22.7892C66.3467 22.7461 66.2773 22.8205 66.3274 22.8636C68.024 24.368 69.5124 26.0839 70.7347 28.0113C72.0264 30.0485 73.0906 32.2306 74.4055 34.2559C75.1304 35.3725 75.6471 35.4038 76.5301 36.3401C76.5224 36.3205 78.377 37.9228 78.3693 37.9032C78.2382 37.5467 76.3643 36.2343 76.2447 35.6232L76.2486 35.6193Z" fill="#AC5C1A"/>
<path d="M12.0136 34.3928C11.8825 34.6553 11.7437 34.9139 11.6049 35.1724C11.8748 34.863 12.1409 34.5456 12.3877 34.2009C12.8697 33.5231 13.3516 32.8493 13.8529 32.1912C13.9107 32.0776 13.9686 31.964 14.0226 31.8543C15.1716 29.6918 16.6754 27.78 17.8437 25.6371C17.8823 25.5666 17.7782 25.4843 17.7281 25.5509C16.4094 27.306 14.8901 28.9435 13.8182 30.8788C13.3246 31.7681 12.8697 32.6848 12.4147 33.6054C11.5625 32.1207 10.9032 30.5497 10.4019 28.9239C9.59601 27.1845 8.95208 25.3158 8.53564 23.4041C8.93666 27.2864 10.0047 31.0982 11.9828 34.3537C11.9944 34.3693 12.0059 34.3772 12.0175 34.3928H12.0136Z" fill="#AC5C1A"/>
<path d="M82.3913 60.0848C79.8001 64.7467 76.4532 69.0091 72.4624 72.5427C70.1026 74.6308 67.5037 76.429 64.766 77.9686C61.9011 79.5787 58.8743 81.0791 55.7009 81.941C55.7471 81.8195 55.7934 81.702 55.832 81.5806C55.8898 81.4082 55.643 81.3338 55.5582 81.4748C55.431 81.6903 55.296 81.9018 55.1649 82.1094C55.0608 82.1721 55.0068 82.2622 55.003 82.368C54.4092 83.2886 53.7729 84.1818 53.0403 84.9888C52.674 85.4002 52.2807 85.7724 51.8643 86.1249C50.3759 86.8928 49.0341 87.9584 47.3105 88.0955C45.4519 88.2444 43.5356 88.0837 41.7117 87.7351C39.7954 87.3668 38.0409 86.6264 36.4947 85.4159C36.2518 85.2278 36.0166 85.0241 35.7891 84.8165C35.5115 84.4404 35.1567 84.127 34.7596 83.8527C34.0694 83.175 33.3985 82.4816 32.6658 81.843C32.5386 81.7255 32.3612 81.9175 32.4808 82.0428C32.8394 82.4032 33.1825 82.7833 33.5296 83.1672C32.716 82.7872 31.86 82.4777 31.1543 82.1369C28.995 81.0791 26.963 79.7746 24.9811 78.4152C20.9632 75.6729 17.0688 72.6328 13.6486 69.1462C11.9945 67.4577 10.4251 65.636 8.97146 63.7203C6.17595 60.03 3.49226 56.5238 2.07715 52.0225C2.4049 53.5268 3.04497 55.0116 3.62721 56.3318C5.52816 60.6685 8.59359 64.6331 11.7168 68.1276C14.9866 71.7866 18.8117 74.8776 22.7601 77.7453C24.8153 79.2378 26.9283 80.6756 29.1454 81.9136C30.2444 82.5286 31.378 83.0771 32.527 83.5824C33.2982 83.9233 34.1735 84.2249 34.9215 84.6754C35.4575 85.2357 36.005 85.7724 36.595 86.2503C38.0371 87.4099 39.7722 88.021 41.5498 88.4128C43.4392 88.832 45.4018 88.926 47.3298 88.8242C48.3091 88.7732 49.2114 88.4481 50.0481 87.9819C52.3116 87.0377 54.2549 85.0202 55.3423 82.7715C55.3847 82.7715 55.4232 82.7754 55.4657 82.7715C58.8627 82.0311 62.1209 80.2799 65.1516 78.6032C67.9626 77.0479 70.573 75.1636 72.9984 73.0402C77.421 69.1618 81.8553 64.1082 83.6213 58.2867C83.6599 58.2083 83.6984 58.13 83.737 58.0516C83.9298 57.4405 84.1264 56.8332 84.3154 56.2182C83.7293 57.5306 83.0853 58.8116 82.3874 60.0692L82.3913 60.0848Z" fill="#AC5C1A"/>
<path d="M22.7365 19.3612C22.6324 18.2564 21.9114 17.1517 21.4178 16.1997C20.743 14.9108 19.9796 13.6729 19.1313 12.4937C18.202 11.2009 13.8988 5.60659 12.7806 9.47715C12.7575 9.56334 12.8809 9.60251 12.9194 9.532C13.2973 8.84642 13.7485 8.41941 14.4734 8.67013C13.6752 9.22643 13.2549 10.5427 13.0004 11.385C12.6264 12.5877 12.4722 14.2096 12.7768 15.4397C12.7922 15.5024 12.8847 15.4867 12.8847 15.4201C12.9349 14.2488 13.0814 13.1714 13.4169 12.0471C13.6135 11.3889 13.8487 10.7504 14.161 10.1392C14.3885 9.6887 14.7587 9.35571 15.0132 8.94044C15.4528 9.23818 15.8538 9.66128 16.2124 10.0256C17.2265 11.0559 18.1326 12.2586 18.9539 13.4496C20.0875 15.1106 21.2289 17.0106 21.8959 18.9185C22.3586 20.2466 21.4255 21.0262 20.6775 21.9546C20.0721 22.7146 19.5246 23.5256 18.9192 24.2895C18.8498 24.3796 18.9539 24.5363 19.0542 24.454C19.9834 23.694 20.6351 22.6559 21.5296 21.8567C22.3278 21.1476 22.8406 20.4659 22.7365 19.3494V19.3612Z" fill="#AC5C1A"/>
<path d="M65.3094 64.9973C65.3094 63.207 65.0009 61.3736 64.4418 59.548C63.7477 57.2836 62.6681 55.1682 61.3956 53.1819C61.6077 53.6168 61.8429 54.0203 61.9509 54.2749C62.8763 56.461 63.6128 58.9604 64.1834 61.2757C65.2939 65.773 64.4765 69.8708 61.3879 73.3575C59.9574 74.9637 58.1413 76.2447 56.1748 77.1928C56.1555 77.1928 56.1362 77.1928 56.1131 77.2045C54.3741 77.9058 52.7585 78.8421 50.8267 78.3328C49.3075 77.9332 47.7882 77.5218 46.3616 76.8402C45.6405 76.4954 44.9696 76.0645 44.3796 75.5121C43.5313 74.7286 43.4966 73.8746 43.5815 72.7933C43.7241 70.8698 43.593 68.9071 43.6316 66.9757C43.6316 66.8856 43.5005 66.8739 43.4812 66.9601C43.3116 67.9394 43.1766 68.9384 43.0725 69.9374C43.0339 69.9648 43.0031 70.0079 43.0031 70.0589C43.0069 70.3096 43.0031 70.5564 42.9992 70.7993C42.98 71.0774 42.9607 71.3517 42.9491 71.6298C42.8489 72.6836 42.6021 73.7061 42.07 74.6777C41.3913 75.9195 40.169 76.9264 38.9583 77.5884C36.7527 78.7872 34.1114 78.4973 31.8287 77.7099C29.2993 76.8402 27.059 75.1595 25.1966 73.2399C24.1131 72.1234 23.1916 70.7836 22.644 69.3145C22.5862 69.1578 22.5361 68.9933 22.486 68.8327C20.9012 63.6144 23.4152 55.7323 26.5693 51.3877C26.4382 51.564 26.311 51.7364 26.1876 51.9166C24.2789 54.6706 22.6363 57.7498 21.8305 61.0367C21.3485 62.9994 21.3408 64.9543 21.6608 66.8699C21.7071 67.7475 21.8266 68.6211 22.0734 69.483C22.5129 71.0069 23.4769 72.3467 24.5026 73.5181C26.5385 75.849 29.2607 77.6629 32.1719 78.6187C34.7129 79.4532 37.4815 79.3435 39.8104 77.9724C41.079 77.2241 42.1741 76.0488 42.8797 74.756C42.9337 74.6542 42.9761 74.5445 43.0262 74.4426C43.4002 75.7393 44.6843 76.7266 45.7716 77.3534C47.341 78.2544 49.1609 78.6853 50.8884 79.1398C51.8716 79.3983 52.8202 79.273 53.7186 78.9439C54.3124 78.7755 54.9023 78.5639 55.473 78.3759C56.1208 78.0899 56.7493 77.7804 57.347 77.4709C59.0744 76.5738 60.6167 75.3202 61.9277 73.8785C64.2914 71.2694 65.3055 68.2058 65.3094 65.0013V64.9973Z" fill="#AF743C"/>
<path d="M78.3308 65.0331C75.9286 67.6069 73.349 70.3531 70.3722 72.2375C68.961 73.1307 67.4649 73.9416 65.9804 74.6899C64.9046 75.2266 63.7286 75.8103 62.5024 75.7241C62.3173 75.7124 62.2479 75.5165 62.3289 75.3676C63.9059 72.4373 65.7413 69.315 65.3557 65.8793C65.3326 65.8871 65.3133 65.8988 65.2863 65.9067C63.9792 69.9183 60.748 73.2678 57.108 75.2031C55.1454 76.2491 52.9514 77.0208 50.7111 77.0914C49.0646 77.1423 47.2023 76.6878 45.7987 75.6771C45.0931 75.1639 44.4106 74.639 44.4337 73.8241C44.453 72.9662 44.399 71.7086 44.9157 70.9564C45.2512 70.4785 46.2344 70.5255 46.7318 70.4393C47.7228 70.263 48.7215 70.0789 49.6893 69.7968C51.7599 69.1935 54.2855 68.0574 54.887 65.7069C55.3073 64.0576 54.7019 62.3025 53.6339 60.9196C53.0362 60.332 52.3691 59.8109 51.6558 59.3722C47.6418 56.9315 42.6485 56.6808 38.1409 57.5466C36.9225 57.7777 35.6346 58.193 34.4663 58.808C33.2671 59.6151 32.2337 60.7002 31.7787 62.0361C31.1387 63.9087 31.7093 65.6873 33.1321 66.9918C35.65 69.2875 38.8119 69.8517 41.9621 70.5843C42.1279 70.6234 42.1433 70.7801 42.0778 70.8977C42.6754 71.1406 42.3824 72.1395 42.1935 72.6684C41.777 73.875 40.9403 74.7056 39.8414 75.3128C37.2772 76.7231 34.3082 76.4293 31.6129 75.5322C26.6157 73.8633 22.756 69.8948 21.6455 64.6609C20.2805 67.5795 22.0658 71.4579 23.2688 74.1297C23.3421 74.2864 23.2302 74.4744 23.0529 74.4627C22.7714 74.4431 22.5053 74.3765 22.2431 74.2785C21.2329 74.0474 19.9836 73.068 19.2278 72.5352C17.9978 71.6773 16.8372 70.7253 15.7498 69.6871C13.444 67.4972 11.4313 65.0487 9.34907 62.6473C6.73479 59.6346 3.6925 56.2107 2.15015 52.3284C2.49332 53.7269 3.08713 55.0981 3.62695 56.3321C5.5279 60.6689 8.59332 64.6335 11.7166 68.1279C14.9864 71.787 18.8114 74.8779 22.7598 77.7456C24.815 79.2382 26.928 80.6759 29.1452 81.9139C30.2441 82.5289 31.3777 83.0774 32.5268 83.5828C33.2979 83.9236 34.1732 84.2253 34.9213 84.6758C35.4534 85.236 36.0048 85.7727 36.5947 86.2506C38.0368 87.4102 39.772 88.0214 41.5495 88.4131C43.4389 88.8323 45.4016 88.9263 47.3295 88.8245C48.3089 88.7736 49.2112 88.4484 50.0479 87.9822C52.3113 87.0381 54.2547 85.0205 55.342 82.7718C55.3844 82.7718 55.423 82.7758 55.4654 82.7718C58.8624 82.0314 62.1207 80.2803 65.1514 78.6035C67.9623 77.0483 70.5727 75.1639 72.9981 73.0445C77.4208 69.1661 81.855 64.1085 83.621 58.2909C83.6519 58.2243 83.6866 58.1577 83.7213 58.0911C82.1519 60.5514 80.3397 62.8666 78.3269 65.0213L78.3308 65.0331Z" fill="#F5D2B6"/>
<path d="M75.0454 7.43676C74.8603 6.67675 74.5171 5.98726 73.6033 6.25366C73.0326 6.42211 72.5044 6.70026 72.0031 7.0215C69.5469 8.60028 67.2257 10.418 65.3594 12.702C64.3222 13.9713 63.3467 15.3268 62.6719 16.8272C62.3634 17.501 62.0164 18.2218 61.8467 18.9427C61.8043 19.1386 61.7658 19.3305 61.7195 19.5264C62.2747 20.0474 63.0151 20.259 63.6436 20.6703C64.4417 21.1953 65.2013 21.7594 65.9224 22.3823C67.0792 23.3774 68.1781 24.486 69.196 25.6261C70.6921 27.2949 72.2499 29.2929 73.1406 31.4672C72.782 28.7601 71.0623 26.2333 69.8747 23.8867C69.3426 22.825 68.7295 21.493 69.0341 20.2668C69.3888 18.8369 70.3027 17.6029 71.0199 16.3414C71.3707 15.7264 73.7344 11.9106 74.4786 14.1672C74.8295 15.2327 74.7485 16.5334 74.7986 17.6381C74.8256 18.2023 74.841 18.7703 74.8565 19.3384C75.1225 16.5334 75.2228 13.7245 75.3462 10.9038C75.3346 10.7158 75.3192 10.5316 75.3076 10.3436C75.2189 9.37988 75.2729 8.38873 75.0415 7.44068L75.0454 7.43676Z" fill="white"/>
<path d="M20.6198 22.5503C21.576 21.5395 22.7868 20.5249 22.486 18.9618C22.0657 16.7953 20.4848 15.1265 19.2741 13.3675C17.9515 11.4518 16.5827 9.36371 14.4157 8.38431C13.764 8.25112 13.1201 8.35297 12.6767 9.03071C12.3643 9.50474 12.1484 10.0179 12.0135 10.5703C11.3734 13.0972 11.3734 15.5691 11.516 18.1195C11.7397 19.1459 11.9633 20.1723 12.1908 21.1948C12.2101 20.1605 12.372 19.1381 12.7499 18.1547C13.4286 16.384 14.2691 17.9393 14.5121 18.9383C14.8707 20.423 15.2447 21.8647 15.7112 23.3181C15.9966 24.2152 15.9619 24.9596 15.4915 25.7862C14.2691 27.933 13.6483 30.1739 13.1856 32.544C13.309 32.3716 13.4556 32.2188 13.6291 32.0778C13.6676 32.0504 13.7062 32.0347 13.7486 32.0347C15.21 29.8291 16.4554 27.4707 18.1289 25.4258C18.9348 24.4464 19.7483 23.4709 20.6198 22.5503Z" fill="white"/>
<path d="M56.9614 27.4128C56.9088 27.3737 56.8562 27.3476 56.7998 27.3171C56.8111 27.2997 56.8149 27.278 56.8074 27.2563C56.0219 25.2693 54.2218 22.0214 51.7302 24.5736C50.4938 25.8389 50.5013 27.6345 51.5874 28.3954C52.1736 28.8085 53.0154 28.6867 53.7558 28.4693C54.8306 28.1519 55.8415 27.7867 56.9163 27.5519C56.9727 27.5432 57.0028 27.4432 56.9614 27.4128Z" fill="#FAF9E8"/>
<path d="M21.5605 44.0734C21.5605 44.0734 24.5989 42.8119 28.4548 43.5327C29.2645 43.6855 31.2812 44.5004 32.249 45.2212C32.249 45.2212 31.9135 44.1439 30.7182 43.047C30.7182 43.047 33.9803 34.2873 32.0138 32.3206C30.0473 30.354 26.4806 34.0953 25.4626 37.1628C24.4408 40.2302 24.73 41.6523 25.2737 42.1459C25.2737 42.1459 23.2224 42.6395 21.5566 44.0734H21.5605Z" fill="#AC5C1A"/>
<path d="M21.9541 44.1284C21.9541 44.1284 24.5992 42.8121 28.4551 43.533C29.2648 43.6858 31.2814 44.5006 32.2493 45.2215C32.2493 45.2215 31.3431 44.2303 30.1478 43.1295C30.1478 43.1295 32.2762 39.1335 31.9215 35.2708C31.6632 32.4776 27.6608 34.8751 26.6428 37.9426C25.6248 41.0101 25.8562 41.9189 26.3999 42.4165C26.3999 42.4165 23.6198 42.6907 21.9502 44.1284H21.9541Z" fill="#AC5C1A"/>
<path d="M22.5823 43.799C25.1002 42.3378 29.1334 42.1693 31.3043 44.3553C31.3852 44.4376 31.3081 44.6217 31.1847 44.5747C29.7118 43.9832 28.4239 43.4308 26.8122 43.372C25.3701 43.3211 24.0089 43.658 22.5977 43.8578C22.5668 43.8617 22.5553 43.8186 22.5823 43.799Z" fill="#AF743C"/>
<path d="M38.9782 25.0049C38.4665 21.9113 34.4505 22.8769 32.5551 24.7509C32.1826 24.9727 31.8551 25.2445 31.6259 25.6701C31.5276 25.856 31.6259 26.042 31.8265 26.0492C33.8324 26.0957 35.0851 27.8875 37.0132 28.0341C38.6712 28.1593 39.1788 26.1743 38.9782 25.0049Z" fill="#FAF9E8"/>
<path d="M26.9937 40.5987C26.693 42.4713 27.1479 43.5095 28.8484 43.5369C29.608 43.5487 30.5527 42.8944 31.2622 39.0905C31.6092 37.2218 31.9292 35.549 30.7069 35.6469C29.0682 35.7801 27.2983 38.7222 26.9937 40.6027V40.5987Z" fill="#491C00"/>
<path d="M30.3158 37.8256C29.7091 38.4937 28.9614 38.8814 28.6367 38.6876C28.312 38.4972 28.547 37.8014 29.1451 37.1333C29.7518 36.4618 30.4995 36.081 30.8242 36.2679C31.1404 36.4583 30.9182 37.1541 30.3115 37.8222L30.3158 37.8256Z" fill="white"/>
<path d="M65.8726 44.5555C65.8726 44.5555 62.8534 43.2431 58.9898 43.8973C58.1762 44.0305 56.1442 44.8101 55.1648 45.5153C55.1648 45.5153 55.5195 44.4458 56.7341 43.3685C56.7341 43.3685 53.6186 34.5539 55.6159 32.6186C57.6133 30.6873 61.1144 34.4873 62.0861 37.5744C63.0539 40.6575 62.7454 42.0757 62.1902 42.5614C62.1902 42.5614 64.2299 43.0903 65.8726 44.5555Z" fill="#AC5C1A"/>
<path d="M65.4713 44.6063C65.4713 44.6063 62.8493 43.2469 58.9857 43.9011C58.1721 44.0343 56.14 44.8139 55.1606 45.5191C55.1606 45.5191 55.6272 44.6651 56.8418 43.5838C56.8418 43.5838 54.5707 40.5555 55.6581 35.5763C56.2557 32.8379 59.9188 35.259 60.8905 38.3382C61.8583 41.4252 61.6077 42.3263 61.0563 42.8121C61.0563 42.8121 63.8325 43.1372 65.4713 44.6063Z" fill="#AC5C1A"/>
<path d="M64.6616 44.0107C62.1167 42.5964 58.0796 42.5063 55.9473 44.7354C55.8663 44.8177 55.9473 45.0018 56.0745 44.9509C57.532 44.3319 58.816 43.756 60.4239 43.6659C61.866 43.5876 63.231 43.8971 64.65 44.0655C64.6808 44.0733 64.6885 44.0224 64.6654 44.0107H64.6616Z" fill="#AF743C"/>
<path d="M60.1313 41.3313C60.0156 43.2274 59.3447 44.1363 57.6789 43.7758C56.9348 43.6191 56.1559 42.769 56.2985 38.8985C56.3679 36.9984 56.4219 35.2943 57.5941 35.6665C59.1596 36.164 60.2431 39.4313 60.1313 41.3313Z" fill="#491C00"/>
<path d="M56.9874 37.7409C56.9484 38.6398 57.0847 39.3668 57.288 39.3668C57.4935 39.3668 57.5541 38.4756 57.593 37.5806C57.6319 36.6817 57.5065 36.2205 57.301 36.2205C57.0955 36.2205 57.0263 36.8458 56.9874 37.7409Z" fill="white"/>
<path d="M53.8762 62.9224C53.7182 59.4784 49.2392 58.0938 46.6104 57.4626C42.3242 56.4448 37.9031 57.0641 34.0987 59.2575C32.4644 60.2004 31.0536 61.6876 31.786 63.7035C32.3911 65.3761 34.2683 66.5044 35.6752 67.3644C39.4603 69.6801 45.1033 70.3586 49.2084 68.5045C51.3361 67.5459 54.0034 65.5892 53.8801 62.9184L53.8762 62.9224Z" fill="#6A5D53"/>
<path d="M51.7752 61.9261C51.0079 62.5294 48.3204 61.2836 47.5453 61.1308C45.0467 60.645 42.5057 60.4923 40.1343 61.0133C39.0817 61.2444 38.1524 61.6754 37.1229 61.93C36.4867 62.0867 35.6152 62.2238 34.9713 61.8086C33.1128 60.6019 37.7861 58.7881 38.4339 58.6314C41.5687 57.8871 44.9927 58.2436 48.3743 59.1368C49.1417 59.3405 52.1994 60.6607 51.9603 61.6283C51.9295 61.7576 51.8678 61.8556 51.7752 61.9261ZM54.2468 62.8937C54.0888 59.4776 49.6082 58.0986 46.9747 57.4718C42.6908 56.4571 38.2681 57.08 34.4585 59.2582C32.8236 60.1906 31.4123 61.6675 32.1449 63.6694C32.7503 65.3265 34.6243 66.447 36.0355 67.3049C39.822 69.6045 45.467 70.2823 49.5735 68.441C51.6981 67.4851 54.3702 65.542 54.2468 62.8937Z" fill="#0D0D0D"/>
<path d="M39.4632 68.0334C38.48 67.7239 37.5353 67.3086 36.6638 66.8033C35.295 66.008 33.876 65.1422 32.9044 63.8533C31.4006 61.8593 33.4172 60.2492 35.0559 59.3246C36.0122 58.784 36.98 58.2982 38.025 57.9652C40.5159 57.4089 43.0145 57.1347 45.5941 57.6714C48.2161 58.2159 53.1709 59.3795 53.3097 62.8348C53.4061 65.2637 50.4525 66.9678 48.5824 67.7631C45.7406 68.9697 42.4168 68.9658 39.4632 68.0334ZM54.0037 62.6781C53.8495 59.258 49.3651 57.8829 46.7354 57.2561C42.4477 56.2454 38.025 56.8605 34.2192 59.0386C32.5843 59.9749 31.1731 61.4519 31.9057 63.4537C32.5111 65.1148 34.385 66.2352 35.7963 67.0892C39.5827 69.3889 45.2277 70.0627 49.3343 68.2214C51.4627 67.2695 54.131 65.3263 54.0076 62.6741L54.0037 62.6781Z" fill="#0D0D0D"/>
<path d="M48.8209 60.4947C44.0346 59.1999 42.3258 59.3431 39.0098 59.9621C36.4837 60.4348 37.1289 61.0871 37.5982 61.1204C38.5132 61.1837 40.7186 61.0805 43.3698 61.1038C46.0914 61.1304 48.031 61.3434 48.4924 61.3767C50.3303 61.5132 49.3136 60.6278 48.8209 60.4947Z" fill="white"/>
<path d="M43.1202 74.6052C43.0711 74.7108 43.0334 74.8163 42.9768 74.9179C42.2825 76.2079 41.2108 77.3806 39.9732 78.1272C39.309 78.5259 38.611 78.8152 37.894 79.0106C38.0827 80.6719 37.9959 82.3527 37.5355 84.0922C36.7658 87.0161 35.7469 89.7641 37.5431 92.5394C39.9052 96.1826 44.905 96.9096 48.452 94.9083C50.5689 93.8489 51.9915 91.6795 52.0254 89.0409C52.0481 87.1842 51.4821 85.3861 51.033 83.6153C50.6595 82.1456 50.5199 80.6914 50.5463 79.2217C48.935 78.7917 47.2596 78.3617 45.8069 77.5135C44.7428 76.888 43.4862 75.8991 43.1202 74.6091V74.6052Z" fill="#FF00FF"/>
<path d="M50.5146 90.536C49.4928 94.4379 44.3992 95.6759 41.0291 94.2969C39.2824 93.58 37.9059 92.154 37.528 90.2305C37.3005 89.0552 37.3622 85.835 38.2722 83.2729C39.1706 80.7186 39.0048 79.6687 41.0484 79.3357C42.263 79.1359 42.3864 80.4326 42.3633 81.3689C42.2785 84.9261 41.8736 89.9131 43.9596 92.4635C43.0959 89.9249 42.4057 82.7362 44.5303 80.6716C45.1241 80.0957 45.93 79.9116 46.7474 80.0095C47.4453 80.0957 48.4016 80.3112 48.7795 81.0046C49.3733 82.1093 49.0802 83.4374 49.5584 84.6048C50.318 86.4657 51.0544 88.4989 50.5223 90.536H50.5146ZM52.1187 88.8985C52.1418 87.0416 51.5634 85.2395 51.1046 83.4609C50.7228 81.9879 50.5802 80.5306 50.6072 79.0576C48.9607 78.6266 47.2487 78.1996 45.7642 77.3456C44.6768 76.7188 43.3928 75.7276 43.0188 74.4348C42.9687 74.5406 42.9301 74.6464 42.8723 74.7482C42.1628 76.041 41.0677 77.2163 39.803 77.9645C39.1243 78.3641 38.411 78.654 37.6745 78.8499C37.8673 80.5149 37.7786 82.2034 37.3082 83.9428C36.5216 86.8731 35.4805 89.6272 37.3159 92.4086C39.7297 96.0637 44.8388 96.7924 48.4633 94.7827C50.6264 93.721 52.0801 91.5468 52.1109 88.9024L52.1187 88.8985Z" fill="#991E0A"/>
<path d="M37.5779 82.7163C37.6087 82.6693 37.6357 82.6223 37.6627 82.5753C37.6666 82.5714 37.6743 82.5714 37.6781 82.5635C37.8439 81.6782 38.0907 80.8202 38.6729 80.1699C39.93 78.7752 41.8001 78.1915 43.0764 76.8086C43.1843 76.6872 43.3733 76.7812 43.408 76.9183C43.7897 78.4697 45.5248 79.1905 46.9014 79.5705C47.8615 79.833 49.535 79.7115 50.1905 80.64C50.5066 81.0944 50.6416 81.6076 50.8305 82.113C50.6609 81.0984 50.5915 80.0837 50.6108 79.0612C48.9643 78.6303 47.2523 78.2033 45.7678 77.3492C44.6804 76.7224 43.3964 75.7313 43.0224 74.4385C42.9723 74.5443 42.9337 74.65 42.8759 74.7519C42.1664 76.0447 41.0713 77.22 39.8066 77.9682C39.1279 78.3678 38.4146 78.6577 37.682 78.8536C37.8285 80.1268 37.8092 81.4118 37.5817 82.7241L37.5779 82.7163Z" fill="#991E0A"/>
<path d="M36.9648 86.6346C37.3079 84.7424 38.0791 82.862 38.3259 81.0247C38.4339 80.2333 38.4146 79.442 38.3066 78.6545C38.0984 78.729 37.8902 78.7917 37.6781 78.8465C37.8709 80.5115 37.7822 82.1999 37.3118 83.9393C36.5676 86.7052 35.6075 89.3064 37.0342 91.9234C36.3787 90.18 36.4288 88.3819 36.9648 86.6346Z" fill="#991E0A"/>
<path d="M52.1183 88.8989C52.1414 87.042 51.563 85.2399 51.1042 83.4613C50.7225 81.9883 50.5798 80.531 50.6068 79.058C50.441 79.0188 50.2752 78.9718 50.1055 78.9287C50.0207 79.771 50.0053 80.6172 50.0708 81.4555C50.1942 82.9246 50.6569 84.335 51.0078 85.761C51.324 86.5993 51.4358 87.5199 51.4435 88.4406C51.4705 89.0204 51.4512 89.6002 51.3548 90.1643C51.1196 92.0996 49.8896 93.4747 48.2855 94.5363C47.5259 95.0417 46.6853 95.4295 45.8101 95.7077C46.7355 95.5353 47.6377 95.2258 48.4629 94.7714C50.6261 93.7097 52.0797 91.5355 52.1144 88.8911L52.1183 88.8989Z" fill="#991E0A"/>
<path d="M42.7292 80.2605C42.494 83.5238 42.5248 87.0653 43.1572 90.2816C43.1726 90.3521 43.296 90.3365 43.2883 90.262C42.8873 87.2298 43.0531 84.0644 43.269 81.0166C43.3808 79.379 43.5967 77.7532 43.9129 76.1353C43.9245 76.0765 43.9322 76.0138 43.9476 75.9511C43.7278 75.72 43.5312 75.4693 43.3731 75.2029C43.3538 75.3282 43.3423 75.4575 43.3268 75.5711C43.107 77.1382 42.8448 78.6817 42.7292 80.2644V80.2605Z" fill="#991E0A"/>
<path d="M48.1713 91.5337C46.7739 91.7781 45.5485 92.4296 44.0925 92.5192C42.622 92.6128 40.9831 92.2993 39.9442 91.0247C39.8235 90.8741 39.5894 91.041 39.6479 91.2283C40.7234 94.7425 46.9788 95.2149 48.2994 91.7048C48.336 91.603 48.2701 91.5175 48.175 91.5337H48.1713Z" fill="#FFF3F6"/>
<path d="M50.0871 89.8267C50.0871 89.8267 50.0837 89.8158 50.0803 89.8122C49.7193 89.3021 48.6806 90.7926 48.9837 91.4401C49.2902 92.1094 50.4788 90.438 50.0906 89.8267H50.0871Z" fill="#FFF3F6"/>
<path d="M12.7547 3.49024C14.6287 2.97374 17.0426 5.05916 18.2958 6.16595C20.8061 8.37564 22.495 10.1232 24.5194 12.2746C25.5181 13.3348 26.4821 14.4377 27.5232 15.4474C28.2559 16.1581 28.9345 16.5931 29.7289 16.7134C26.6903 12.1504 23.1621 9.0902 18.8626 5.7776C16.9346 4.29023 12.8858 1.06307 11.7676 4.1815C12.0876 3.87082 12.3845 3.59121 12.7586 3.49024H12.7547Z" fill="url(#paint0_linear_54_1561)"/>
<path d="M73.1829 2.65082C69.4008 3.2362 65.4864 5.42536 62.4086 7.68669C59.3814 9.91595 56.4125 12.907 55.1285 16.5917C55.0935 16.6839 55.2296 16.7561 55.2919 16.6839C57.7238 13.4643 60.3036 10.6818 63.5681 8.32019C65.0039 7.27773 66.4864 6.31145 67.9961 5.39329C69.6771 4.36687 73.7977 3.09587 75.5564 2.24586C75.6849 2.18572 73.3308 2.62676 73.1907 2.65082H73.1829Z" fill="url(#paint1_linear_54_1561)"/>
<path d="M27.8708 19.2302C27.8708 19.2302 33.5694 15.4827 42.9043 15.4548C52.2393 15.4268 56.3212 18.4351 57.5999 19.0464C57.5999 19.0464 42.6086 13.641 27.8708 19.2302Z" fill="url(#paint2_linear_54_1561)"/>
<path d="M69.2309 26.1389C60.3624 26.1389 53.175 33.4413 53.175 42.4517C53.175 46.5103 54.6326 50.2202 57.0464 53.0722C59.356 55.8028 62.5371 57.7498 66.1501 58.4628C67.1488 58.6587 68.1783 58.7645 69.2309 58.7645C78.0995 58.7645 85.2868 51.4621 85.2868 42.4517C85.2868 33.4413 78.0995 26.1389 69.2309 26.1389Z" fill="url(#paint3_linear_54_1561)" fill-opacity="0.65"/>
<path fill-rule="evenodd" clip-rule="evenodd" d="M23.1724 58.4633C26.7853 57.7503 29.9664 55.8072 32.2761 53.0766C34.6899 50.2207 36.1474 46.5108 36.1474 42.4522C36.1474 33.4418 28.96 26.1394 20.0915 26.1394C11.223 26.1394 4.03562 33.4418 4.03562 42.4522C4.03562 51.4626 11.223 58.7649 20.0915 58.7649C21.1442 58.7649 22.1737 58.6592 23.1724 58.4633ZM34.3364 32.628C36.0435 35.1796 37.1053 38.2157 37.281 41.4884L37.2733 41.4845C37.2926 41.8058 37.3003 42.127 37.3003 42.4483C37.3003 46.311 36.0664 49.8799 33.9804 52.775C31.3005 56.4928 27.2056 59.0979 22.5014 59.7678C21.7148 59.8815 20.909 59.9402 20.0876 59.9402C13.7216 59.9402 8.16141 56.4301 5.18467 51.208C3.71558 48.6341 2.875 45.645 2.875 42.4522C2.875 36.9206 5.4006 31.9922 9.34517 28.7877C12.2911 26.394 16.0968 24.9602 20.0915 24.9602C24.0862 24.9602 27.7647 26.3431 30.6875 28.6662C31.8666 29.6044 32.9247 30.6955 33.8286 31.9088C34.0302 31.7766 34.2425 31.6244 34.4624 31.4511C34.6668 31.2865 34.8827 31.1103 35.0987 30.9065C35.2066 30.8008 35.33 30.7185 35.465 30.648C35.5865 30.5809 35.7018 30.498 35.8193 30.4135L35.8193 30.4135L35.8583 30.3855C36.3865 30.0094 36.9418 29.5589 37.5356 29.0692C37.6689 28.9601 37.8041 28.8485 37.9417 28.735L37.9423 28.7345C38.4171 28.3426 38.9187 27.9287 39.4597 27.5218C39.8067 27.2593 40.1769 26.9968 40.5702 26.7539C40.6742 26.6952 40.7782 26.6325 40.8823 26.5699L40.8825 26.5698C40.9307 26.5443 40.9789 26.5179 41.0271 26.4914C41.0753 26.465 41.1235 26.4385 41.1717 26.4131L41.484 26.2485C41.556 26.2094 41.628 26.1772 41.6999 26.1449C41.7359 26.1288 41.7719 26.1127 41.8079 26.0958C42.2398 25.896 42.6793 25.7236 43.1382 25.5826C43.3657 25.5081 43.6009 25.4494 43.8515 25.3906C43.9903 25.3632 44.1329 25.3397 44.2755 25.3162L44.2757 25.3162C44.3374 25.3083 44.3875 25.3044 44.4453 25.3005L44.5301 25.2927L44.5726 25.2887H44.5918H44.6034H44.6535V26.7735H44.6188L44.534 26.7813C44.516 26.7826 44.4976 26.7835 44.4792 26.7844C44.4423 26.7861 44.4055 26.7879 44.3721 26.7931C44.2949 26.8127 44.214 26.8283 44.1368 26.8401L44.1197 26.8442C43.943 26.8862 43.7489 26.9323 43.5585 26.9968C43.1652 27.1182 42.7719 27.271 42.4017 27.4434C42.3679 27.4598 42.3323 27.4757 42.2966 27.4917L42.2966 27.4917C42.2387 27.5175 42.1804 27.5436 42.1279 27.5727L41.858 27.7137C41.8294 27.7295 41.8003 27.7456 41.771 27.7619L41.7705 27.7622C41.7054 27.7984 41.6391 27.8354 41.5727 27.8704C41.5322 27.8959 41.4908 27.9204 41.4493 27.9449C41.4079 27.9693 41.3664 27.9938 41.3259 28.0193C40.9827 28.2308 40.6473 28.4698 40.3234 28.7127C39.7702 29.1284 39.2421 29.5666 38.7272 29.9939L38.7271 29.994C38.6354 30.07 38.5442 30.1458 38.4533 30.221C37.8556 30.7146 37.2695 31.1847 36.6989 31.596C36.6309 31.6464 36.562 31.6942 36.494 31.7413C36.4192 31.7932 36.3454 31.8444 36.2747 31.8977C36.2527 31.9138 36.2311 31.9303 36.2097 31.9468L36.2093 31.947C36.1632 31.9823 36.1177 32.0172 36.0703 32.0466C36.001 32.0896 35.9238 32.121 35.8467 32.1523L35.8467 32.1523C35.5421 32.2777 35.2452 32.3835 34.9637 32.4696C34.7454 32.5345 34.5356 32.5866 34.3364 32.628ZM69.2312 58.7681C68.1786 58.7681 67.149 58.6624 66.1504 58.4665C62.5335 57.7535 59.3524 55.8064 57.0466 53.0759C54.6329 50.22 53.1753 46.51 53.1753 42.4554C53.1753 33.4449 60.3627 26.1426 69.2312 26.1426C78.0997 26.1426 85.2871 33.4449 85.2871 42.4554C85.2871 51.4658 78.0997 58.7681 69.2312 58.7681ZM79.9737 28.7909C77.0278 26.3972 73.2953 24.9634 69.2312 24.9634C65.1671 24.9634 61.5619 26.3463 58.6391 28.6655C57.4582 29.6023 56.4045 30.6915 55.499 31.9057C55.2969 31.7733 55.0842 31.6209 54.8638 31.4472C54.6594 31.2826 54.4435 31.1063 54.2276 30.9026C54.1196 30.8008 53.9924 30.7224 53.8574 30.6519C53.7359 30.5849 53.6206 30.5019 53.5031 30.4174L53.5031 30.4174L53.4641 30.3894C52.9359 30.0133 52.3806 29.5628 51.7868 29.0731C51.6962 28.9984 51.6046 28.9226 51.5121 28.846C50.9984 28.4209 50.4541 27.9705 49.8627 27.5257C49.5118 27.2632 49.1455 27.0046 48.7522 26.7578C48.652 26.6991 48.5517 26.6403 48.4515 26.5776C48.3994 26.5482 48.3474 26.5198 48.2953 26.4914L48.2953 26.4914C48.2432 26.463 48.1912 26.4346 48.1392 26.4052L47.85 26.2525L47.8499 26.2524C47.8036 26.2289 47.7497 26.2015 47.6919 26.1741L47.5222 26.0958L47.3526 26.0174L47.1906 25.9508L46.8629 25.8176L46.8083 25.7975C46.6033 25.722 46.4006 25.6473 46.1881 25.5826C45.9606 25.5081 45.7215 25.4494 45.4786 25.3906L45.0969 25.3201C44.9579 25.3048 44.8153 25.297 44.6761 25.2893L44.665 25.2887V26.7696H44.6766C44.7147 26.7737 44.7528 26.7767 44.7915 26.7797C44.8271 26.7826 44.8632 26.7854 44.9002 26.7892L45.1778 26.8401L45.1779 26.8401C45.3707 26.8871 45.5634 26.9341 45.7601 27.0007C45.9296 27.0514 46.0992 27.1137 46.2663 27.1751L46.2663 27.1751L46.3462 27.2044L46.6354 27.322L46.778 27.3807L46.9091 27.4434L47.0402 27.5061L47.0692 27.5193C47.1035 27.5348 47.1401 27.5514 47.179 27.5727L47.4721 27.7255L47.7343 27.8704C47.823 27.9213 47.9078 27.9723 47.9926 28.0271C48.3358 28.2387 48.6713 28.4737 48.9952 28.7205C49.5483 29.1362 50.0764 29.5745 50.5913 30.0017L50.5914 30.0018C50.6831 30.0779 50.7743 30.1536 50.8653 30.2288C51.4668 30.7263 52.049 31.1964 52.6197 31.6039C52.6652 31.6364 52.7111 31.6681 52.7568 31.6996C52.8543 31.7669 52.9507 31.8335 53.04 31.9055C53.1749 32.0113 53.3099 32.1092 53.4641 32.168C53.7687 32.2934 54.0656 32.3991 54.3471 32.4853C54.5662 32.5504 54.7766 32.6032 54.9764 32.6453C53.2751 35.1902 52.2171 38.2174 52.0417 41.4838C52.0224 41.805 52.0147 42.1302 52.0147 42.4593C52.0147 46.322 53.2486 49.8909 55.3346 52.7821C58.0183 56.5038 62.1133 59.105 66.8174 59.7749C67.6079 59.8886 68.4138 59.9473 69.2312 59.9473C75.5973 59.9473 81.1574 56.4333 84.1342 51.215C85.6033 48.6412 86.4439 45.6482 86.4439 42.4593C86.4439 36.9277 83.9183 31.9993 79.9737 28.7948V28.7909Z" fill="#0D0D0D"/>
<path d="M20.0915 26.1389C11.223 26.1389 4.03564 33.4413 4.03564 42.4517C4.03564 51.4621 11.223 58.7645 20.0915 58.7645C21.1442 58.7645 22.1737 58.6587 23.1724 58.4628C26.7853 57.7498 29.9664 55.8028 32.2761 53.0762C34.6899 50.2202 36.1474 46.5103 36.1474 42.4517C36.1474 33.4413 28.9601 26.1389 20.0915 26.1389Z" fill="url(#paint4_linear_54_1561)" fill-opacity="0.65"/>
<defs>
<linearGradient id="paint0_linear_54_1561" x1="12.5799" y1="2.86963" x2="30.056" y2="5.61791" gradientUnits="userSpaceOnUse">
<stop stop-color="#4D3CB8"/>
<stop offset="1" stop-color="#FF23CF"/>
</linearGradient>
<linearGradient id="paint1_linear_54_1561" x1="56.0472" y1="2.24023" x2="75.8455" y2="5.62911" gradientUnits="userSpaceOnUse">
<stop stop-color="#4D3CB8"/>
<stop offset="1" stop-color="#FF23CF"/>
</linearGradient>
<linearGradient id="paint2_linear_54_1561" x1="29.2154" y1="15.4546" x2="44.7273" y2="30.2592" gradientUnits="userSpaceOnUse">
<stop stop-color="#4D3CB8"/>
<stop offset="1" stop-color="#FF23CF"/>
</linearGradient>
<linearGradient id="paint3_linear_54_1561" x1="54.6273" y1="26.1389" x2="86.1951" y2="29.905" gradientUnits="userSpaceOnUse">
<stop stop-color="#4D3CB8"/>
<stop offset="1" stop-color="#FF23CF"/>
</linearGradient>
<linearGradient id="paint4_linear_54_1561" x1="5.48794" y1="26.1389" x2="37.0557" y2="29.905" gradientUnits="userSpaceOnUse">
<stop stop-color="#4D3CB8"/>
<stop offset="1" stop-color="#FF23CF"/>
</linearGradient>
</defs>
</svg>
